<?xml version="1.0" encoding="utf-8"?>
<!-- Generator: Adobe Illustrator 14.0.0, SVG Export Plug-In . SVG Version: 6.00 Build 43363)  -->
<!DOCTYPE svg PUBLIC "-//W3C//DTD SVG 1.1//EN" "http://www.w3.org/Graphics/SVG/1.1/DTD/svg11.dtd">
<svg version="1.1" id="Layer_1" xmlns="http://www.w3.org/2000/svg" xmlns:xlink="http://www.w3.org/1999/xlink" x="0px" y="0px"
	 width="100px" height="100px" viewBox="0 0 100 100" enable-background="new 0 0 100 100" xml:space="preserve">
<path fill="#FFFFFF" d="M70.376,9.213V6H59.607v2.748l5.326,5.756h-5.326v3.207h10.974v-2.742l-5.326-5.755L70.376,9.213
	L70.376,9.213z M57.434,9.213V6H46.658v2.748l5.333,5.756h-5.333v3.207h10.977v-2.742l-5.33-5.755L57.434,9.213L57.434,9.213z
	 M44.612,9.345V6h-9.458v11.71h9.458v-3.34h-5.53V9.345H44.612L44.612,9.345z M52.831,92.77l25.28-6.978l5.623-62.737H22
	l5.616,62.744L52.831,92.77z M28.341,28.188H78.1l-4.804,53.606l-20.429,5.642l-20.492-5.736L28.341,28.188z M44.37,58.616h18.04
	l-0.9,9.977l-8.594,2.313l-8.643-2.309l-0.549-6.138h-7.76c0,0,1.086,12.085,1.083,12.085l15.869,4.361l15.816-4.361l1.432-15.931
	l1.9-21.205l0.184-2.066H33.535l0,0l0.715,7.695H63.8l-0.709,7.881H43.675L44.37,58.616z"/>
</svg>
