<?xml version="1.0" encoding="utf-8"?>
<!-- Generator: Adobe Illustrator 14.0.0, SVG Export Plug-In  -->
<!DOCTYPE svg PUBLIC "-//W3C//DTD SVG 1.1//EN" "http://www.w3.org/Graphics/SVG/1.1/DTD/svg11.dtd" [
	<!ENTITY ns_flows "http://ns.adobe.com/Flows/1.0/">
]>
<svg version="1.1"
	 xmlns="http://www.w3.org/2000/svg" xmlns:xlink="http://www.w3.org/1999/xlink" xmlns:a="http://ns.adobe.com/AdobeSVGViewerExtensions/3.0/"
	 x="0px" y="0px" width="100px" height="100px" viewBox="-4.905 -3.847 100 100" enable-background="new -4.905 -3.847 100 100"
	 xml:space="preserve">
<defs>
</defs>
<path fill-rule="evenodd" clip-rule="evenodd" fill="#FFFFFF" d="M0.012,1.169v88.034c0,0-0.194,2.537,0.979,2.537
	c1.168,0,15.418,0,16.397,0c0.974,0,1.558-1.363,1.558-1.363V55.431c0,0,29.082,0,30.062,0c0.979,0,1.173-1.753,1.173-1.753V41.77
	c0,0,0.585-1.947-1.173-1.947c-1.757,0-30.452,0-30.452,0v-24.01c0,0,32.988,0,34.158,0c1.173,0,0.977-1.369,0.977-1.369
	L52.323,1.363c0,0,0.783-1.363-1.558-1.363c-2.347,0-48.8,0-49.774,0C0.012,0,0.012,1.169,0.012,1.169z M63.061,78.663
	c0,10.734,10.342,18.349,24.596,12.491c0-6.439,0-11.712,0-11.712s-6.056,1.562-6.056-3.122c0-4.687,0-74.562,0-74.562
	S81.601,0,79.848,0c-1.757,0-13.666,0-15.228,0c-1.56,0-1.56,1.759-1.56,1.759S63.061,67.928,63.061,78.663z"/>
</svg>
