<?xml version="1.0" encoding="utf-8"?>
<!-- Generator: Adobe Illustrator 14.0.0, SVG Export Plug-In  -->
<!DOCTYPE svg PUBLIC "-//W3C//DTD SVG 1.1//EN" "http://www.w3.org/Graphics/SVG/1.1/DTD/svg11.dtd" [
	<!ENTITY ns_flows "http://ns.adobe.com/Flows/1.0/">
]>
<svg version="1.1"
	 xmlns="http://www.w3.org/2000/svg" xmlns:xlink="http://www.w3.org/1999/xlink" xmlns:a="http://ns.adobe.com/AdobeSVGViewerExtensions/3.0/"
	 x="0px" y="0px" width="100px" height="100px" viewBox="-2.91 -2 100 100" enable-background="new -2.91 -2 100 100"
	 xml:space="preserve">
<defs>
</defs>
<path fill="#FFFFFF" d="M40.286,26.707v-6.434H25.522c-1.747-0.454-3.715-0.756-6.971-0.756c-11.585,0-17.337,5.98-17.337,14.69
	c0,5.603,2.802,9.54,6.512,11.354c-1.819,1.67-3.331,3.112-4.695,4.546c-1.367,1.441-2.198,2.954-2.198,4.623
	c0,2.046,0.831,3.934,3.33,4.995C1.512,62.229,0,64.038,0,67.448c0,5.982,5.227,9.466,18.932,9.466
	c13.173,0,20.82-4.922,20.82-13.632c0-10.068-7.717-10.449-20.82-11.28l-7.42-0.454l2.499-4.012
	c1.365,0.375,3.558,0.681,5.979,0.681c9.544,0,16.13-4.92,16.13-13.33c0-3.483-1.437-5.908-2.8-7.647L40.286,26.707z M21.957,62.526
	c3.641,0.227,6.517,0.376,6.517,2.806c0,4.082-5.983,4.388-10.375,4.388c-5.302,0-9.161-0.908-9.161-3.933
	c0-1.521,0.983-2.807,1.968-4.012L21.957,62.526z M26.127,33.826c0,3.942-2.877,6.437-7.116,6.437c-5,0-7.044-2.574-7.044-6.284
	c0-4.921,3.103-6.968,7.268-6.968C23.552,27.012,26.127,29.36,26.127,33.826z M65.425,58.986v-5.979l-3.863-0.528
	c-1.142-0.154-1.215-0.303-1.215-1.518V19.535H44.674l-0.834,6.137l4.085,1.437c0.761,0.229,0.988,0.761,0.988,1.592v22.262
	c0,1.137-0.149,1.363-1.21,1.518l-3.863,0.528v5.979H65.425z M60.503,6.659c0-4.312-2.5-6.659-6.896-6.659
	c-4.319,0-6.814,2.347-6.814,6.659c0,4.319,2.495,6.822,6.814,6.822C58.003,13.481,60.503,10.978,60.503,6.659z M93.32,49.385
	c-1.817,0.678-4.013,1.21-6.132,1.21c-4.091,0-5.146-1.739-5.146-6.205V26.292H93.32v-7.574H82.645
	c-0.603,0-0.603-0.229-0.603-0.753V7.206h-7.198c-0.836,8.251-3.484,11.585-10.144,12.342v6.744h5.295
	c0.607,0,0.607,0.302,0.607,0.756v19.837c0,8.562,3.405,12.193,12.417,12.193c4.317,0,9.091-1.438,12.347-3.028L93.32,49.385z"/>
</svg>
