<?xml version="1.0" encoding="utf-8"?>
<!-- Generator: Adobe Illustrator 14.0.0, SVG Export Plug-In  -->
<!DOCTYPE svg PUBLIC "-//W3C//DTD SVG 1.1//EN" "http://www.w3.org/Graphics/SVG/1.1/DTD/svg11.dtd" [
	<!ENTITY ns_flows "http://ns.adobe.com/Flows/1.0/">
]>
<svg version="1.1"
	 xmlns="http://www.w3.org/2000/svg" xmlns:xlink="http://www.w3.org/1999/xlink" xmlns:a="http://ns.adobe.com/AdobeSVGViewerExtensions/3.0/"
	 x="0px" y="0px" width="100px" height="100px" viewBox="-23.954 -5 100 100" enable-background="new -23.954 -5 100 100"
	 xml:space="preserve">
<defs>
</defs>
<path fill="#FFFFFF" d="M31.292,88.436l25.656-7.111l5.707-63.946H0L5.705,81.33L31.292,88.436z M5.394,22.607h51.544L52.06,77.251
	l-20.73,5.744l-20.256-6.862L5.394,22.607z M5.828,0v11.925h3.988V7.931h3.646v3.994h3.988V0h-3.988v3.938H9.815V0H5.828L5.828,0z
	 M22.691,3.951v7.974h3.986V3.951h3.508V0H19.181v3.951H22.691L22.691,3.951z M31.935,11.925h3.902V6.012l2.743,4.242h0.065
	l2.745-4.242v5.913h3.968V0h-4.155l-2.558,4.189L36.093,0h-4.158V11.925z M47.344,11.925h9.592V7.981H51.33V0h-3.986V11.925z
	 M41.147,53.142l-0.913,10.173l-8.756,2.359l-8.565-2.876l-0.727-5.738h-7.875l1.1,12.315l16.067,4.463l16.091-4.463l2.152-24.078
	H21.137l-0.721-8.033h30.017l0.701-7.844H31.487h-19.64l0.186,2.105l1.932,21.617h17.551H41.147z"/>
</svg>
