<?xml version="1.0" encoding="utf-8"?>
<!-- Generator: Adobe Illustrator 14.0.0, SVG Export Plug-In  -->
<!DOCTYPE svg PUBLIC "-//W3C//DTD SVG 1.1//EN" "http://www.w3.org/Graphics/SVG/1.1/DTD/svg11.dtd" [
	<!ENTITY ns_flows "http://ns.adobe.com/Flows/1.0/">
]>
<svg version="1.1"
	 xmlns="http://www.w3.org/2000/svg" xmlns:xlink="http://www.w3.org/1999/xlink" xmlns:a="http://ns.adobe.com/AdobeSVGViewerExtensions/3.0/"
	 x="0px" y="0px" width="100px" height="100px" viewBox="-2.306 -1 100 100" enable-background="new -2.306 -1 100 100"
	 xml:space="preserve">
<defs>
</defs>
<path fill="#FFFFFF" d="M23.062,5.267v6.535L0.004,89.144c0,0-0.118,1.269,0.907,1.269c1.03,0,14.163,0,14.163,0
	s1.03,0.244,1.089-0.909c0.759-3.183,5.626-20.875,5.626-20.875h23.603l6.792,20.931c0,0,0.107,0.854,1.079,0.854
	c0.966,0,14.764,0,15.367,0c0.606,0,0-1.637,0-1.637L43.943,5.267H23.062z M42.306,53.921H25.059l8.352-34.316L42.306,53.921z
	 M78.07,24.934c-1.449,0-1.21,1.939-1.21,1.939v61.723c0,0-0.606,1.838,1.21,1.838s12.349,0,14.526,0c2.177,0,1.69-1.353,1.69-1.353
	V26.873c0,0,0.307-1.939-1.69-1.939C90.599,24.934,79.527,24.934,78.07,24.934z M86.057,0C80.98,0,76.86,3.845,76.86,8.595
	c0,4.749,4.12,8.59,9.196,8.59c5.083,0,9.202-3.841,9.202-8.59C95.259,3.845,91.14,0,86.057,0z"/>
</svg>
