<?xml version="1.0" encoding="utf-8"?>
<!-- Generator: Adobe Illustrator 14.0.0, SVG Export Plug-In  -->
<!DOCTYPE svg PUBLIC "-//W3C//DTD SVG 1.1//EN" "http://www.w3.org/Graphics/SVG/1.1/DTD/svg11.dtd" [
	<!ENTITY ns_flows "http://ns.adobe.com/Flows/1.0/">
]>
<svg version="1.1"
	 xmlns="http://www.w3.org/2000/svg" xmlns:xlink="http://www.w3.org/1999/xlink" xmlns:a="http://ns.adobe.com/AdobeSVGViewerExtensions/3.0/"
	 x="0px" y="0px" width="100px" height="100px" viewBox="0 0 100 100" enable-background="new 0 0 100 100" xml:space="preserve">
<defs>
</defs>
<path fill="#FFFFFF" d="M42.095,0.727c-4.666,0-9.324,0-13.981,0c-0.101,16.928,0.184,34.235-0.147,50.917
	c-0.264,3.154-1.211,5.196-3.281,6.277c-5.835,3.031-11.697-1.973-13.127-6.566C7.62,53.652,3.781,56.053,0,58.503
	c3.751,7.347,9.485,12.674,20.12,12.981c0.67,0,1.331,0,1.998,0c12.776-0.45,19.296-7.308,19.978-20.129
	C42.095,34.482,42.095,17.601,42.095,0.727z M54.083,20.278c0.569,13.936,11.213,17.777,21.402,22.324
	c3.212,1.43,6.893,2.892,8.423,5.835c2.457,4.743-1.049,8.631-4.424,9.777c-8.838,2.981-15.508-3.315-18.408-8.026
	c-3.7,2.35-7.728,4.357-11.277,6.857c4.681,8.396,11.996,14.098,24.546,14.439c0.667,0,1.332,0,1.993,0
	c7.335-0.035,12.5-2.292,16.554-5.688c0.466-0.597,0.989-1.128,1.57-1.601c2.377-3.081,3.989-6.42,4.285-10.942
	c1.037-15.902-10.662-20.863-21.264-25.529c-3.754-1.661-7.846-3.088-9.13-6.427c-1.478-3.839,0.445-7,2.992-8.17
	c5.246-2.407,10.8,1.419,12.272,5.4c3.843-2.15,7.213-4.777,10.99-7C91.062,4.834,85.608,0.104,75.63,0c-0.617,0-1.237,0-1.854,0
	C62.104,0.707,55.292,6.388,54.083,17.797C54.083,18.624,54.083,19.45,54.083,20.278z"/>
</svg>
