<?xml version="1.0" encoding="utf-8"?>
<!-- Generator: Adobe Illustrator 14.0.0, SVG Export Plug-In  -->
<!DOCTYPE svg PUBLIC "-//W3C//DTD SVG 1.1//EN" "http://www.w3.org/Graphics/SVG/1.1/DTD/svg11.dtd" [
	<!ENTITY ns_flows "http://ns.adobe.com/Flows/1.0/">
]>
<svg version="1.1"
	 xmlns="http://www.w3.org/2000/svg" xmlns:xlink="http://www.w3.org/1999/xlink" xmlns:a="http://ns.adobe.com/AdobeSVGViewerExtensions/3.0/"
	 x="0px" y="0px" width="100px" height="100px" viewBox="0 0 100 100" enable-background="new 0 0 100 100" xml:space="preserve">
<defs>
</defs>
<path fill-rule="evenodd" clip-rule="evenodd" fill="#FFFFFF" d="M66.787,22.943c4.518-0.327,7.401-2.291,9.251-5.283
	c-1.988,0.848-3.919,1.764-6.722,1.801c-0.212,0.2-1.24,0.2-1.447,0c-4.394-0.203-8.102-2.212-10.932-4.683
	C53.294,11.587,50.633,6.703,51.774,0c-1.351,1.465-2.529,3.599-2.762,6.127c-0.512,5.46,2.213,9.552,5.163,12.374
	c2.88,2.754,6.554,4.255,10.695,4.442C65.506,22.943,66.146,22.943,66.787,22.943z M13.333,27.632
	c0.531,9.996,4.552,16.508,9.371,22.224c0.889,0.788,1.729,1.632,2.525,2.521c5.886,5.082,12.841,9.1,23.423,9.492
	c0.836,0,1.679,0,2.525,0c9.085-0.362,15.162-3.738,20.178-8.173c0.351-0.449,0.75-0.849,1.202-1.198
	c1.812-1.993,3.327-4.277,4.685-6.727c-0.344-0.178-0.645,0.301-0.841,0.479c-4.761,4.246-10.746,7.476-19.463,7.57
	c-0.366,0.196-1.556,0.196-1.917,0c-11.855-0.32-18.77-5.581-25.353-11.173c-0.607-0.508-1.169-1.073-1.682-1.684
	c-4.405-4.804-7.838-10.578-8.411-19.221c-0.275-0.441-0.037-1.398-0.117-2.039c0-0.321,0-0.641,0-0.965
	c0.08-0.679-0.162-1.677,0.117-2.16c0.015-2.668,0.604-4.768,0.966-7.087c-1.184,0.655-2.005,1.805-2.767,2.882
	c-2.441,3.471-4.217,7.933-4.442,13.457C13.333,26.429,13.333,27.029,13.333,27.632z M32.675,17.54c0-0.839,0-1.68,0-2.521
	C32.471,15.582,32.471,16.979,32.675,17.54z M69.316,19.461c-0.486,0-0.965,0-1.447,0C68.076,19.661,69.104,19.661,69.316,19.461z
	 M66.787,22.943c-0.641,0-1.281,0-1.917,0C65.231,23.143,66.423,23.143,66.787,22.943z M13.333,27.632c0-0.603,0-1.203,0-1.801
	C13.133,26.155,13.133,27.304,13.333,27.632z M56.938,53.82c-0.637,0-1.277,0-1.917,0C55.382,54.017,56.571,54.017,56.938,53.82z
	 M51.177,61.869c-0.846,0-1.688,0-2.525,0C49.212,62.069,50.61,62.069,51.177,61.869z M24.264,69.676
	c-0.128-0.197-1.069-0.197-1.198,0C23.464,69.676,23.864,69.676,24.264,69.676z M92.136,71.836c0.061,0.067,0.182-0.219,0.12-0.238
	c-1.1-0.372-3.765,0.185-4.929,0.122C88.892,71.798,90.772,71.558,92.136,71.836z M12.13,74.003c-1.16-0.2-3.158-0.2-4.327,0
	C9.247,74.003,10.69,74.003,12.13,74.003z M71.109,73.879c-1.355,0.081-3.036-0.159-4.197,0.124
	C68.272,73.92,69.952,74.161,71.109,73.879z M73.517,73.879c0.883,0.282,2.284,0.041,3.363,0.124
	C75.996,73.72,74.599,73.957,73.517,73.879z M11.411,77.484c0.018-0.144-0.02-0.339,0.117-0.361c0.113-1.131,0.448-2.034,0.603-3.12
	c-1.44,0-2.883,0-4.327,0c-0.188,1.209-0.602,2.196-0.715,3.481C8.528,77.484,9.968,77.484,11.411,77.484z M31.473,77.726
	c0.2-0.328,0.2-1.478,0-1.806C31.473,76.523,31.473,77.123,31.473,77.726z M11.169,78.807c-1.165-0.2-3.161-0.2-4.321,0
	C8.287,78.807,9.726,78.807,11.169,78.807z M12.733,81.447c-0.203,0.483-0.203,1.799,0,2.284
	C12.733,82.971,12.733,82.21,12.733,81.447z M20.661,85.413c1.12,0.199,3.082,0.199,4.201,0
	C23.464,85.413,22.063,85.413,20.661,85.413z M77.003,86.855c0.195-0.211,0.195-1.236,0-1.442
	C77.003,85.891,77.003,86.37,77.003,86.855z M76.279,89.256c1.243,0.2,3.324,0.2,4.562,0C79.325,89.256,77.801,89.256,76.279,89.256
	z M21.381,89.497c0-0.041,0-0.079,0-0.117c-0.479,0-0.96,0-1.443,0C20.183,89.652,20.939,89.422,21.381,89.497z M24.625,89.497
	c0-0.041,0-0.079,0-0.117c-1.085,0-2.164,0-3.245,0c0,0.038,0,0.076,0,0.117C22.462,89.497,23.54,89.497,24.625,89.497z
	 M27.146,89.38c-0.84,0-1.684,0-2.521,0c0,0.038,0,0.076,0,0.117C25.424,89.418,26.548,89.655,27.146,89.38z M42.404,89.38
	c-1.439,0-2.882,0-4.325,0C39.243,89.577,41.244,89.577,42.404,89.38z M58.259,89.38c-1.56,0-3.119,0-4.683,0
	c1.323,0.275,3.161,0.038,4.683,0.117C58.259,89.456,58.259,89.418,58.259,89.38z M59.94,89.38c-0.562,0-1.115,0-1.682,0
	c0,0.038,0,0.076,0,0.117C58.78,89.422,59.617,89.652,59.94,89.38z M41.084,34.357c-0.632-0.73-1.315-1.412-2.045-2.041
	C39.672,33.051,40.351,33.728,41.084,34.357z M61.384,35.438c-6.805-0.753-12.386-3.691-16.459-7.328
	c-4.126-3.682-7.507-8.746-7.925-15.977c-0.202-1.002-0.202-2.841,0-3.839c-0.002-1.726,0.241-3.204,0.6-4.568
	c-0.449-0.242-0.629,0.457-0.84,0.72c-2.187,2.736-3.881,6.146-4.084,10.573c0,0.841,0,1.681,0,2.521
	c0.425,6.621,3.109,10.989,6.364,14.776c0.73,0.629,1.414,1.311,2.045,2.041c4.9,4.473,12.376,7.937,21.502,6.485
	c8.057-1.277,13.927-5.697,16.455-12.25c-2.791,3.034-7.754,6.572-13.931,6.847C64.146,35.639,62.346,35.639,61.384,35.438z
	 M25.229,52.377c-0.795-0.89-1.636-1.733-2.525-2.521C23.496,50.746,24.336,51.586,25.229,52.377z M72.557,52.498
	c-0.452,0.35-0.852,0.749-1.202,1.198C71.804,53.349,72.207,52.946,72.557,52.498z M29.668,42.647
	c-0.506-0.61-1.07-1.172-1.682-1.684C28.499,41.574,29.061,42.139,29.668,42.647z M12.733,83.731
	c0.31,3.976,2.773,5.792,7.204,5.648c0.483,0,0.964,0,1.443,0c1.081,0,2.159,0,3.245,0c0.836,0,1.68,0,2.521,0
	c1.082,0,2.164,0,3.245,0c0.191-1.333,0.614-2.434,0.839-3.727c-0.516-0.245-1.562,0.042-2.042-0.24
	c0.785-2.545,1.843-4.809,2.284-7.688c0-0.603,0-1.202,0-1.806c-0.652-3.832-3.045-5.923-7.209-6.244c-0.4,0-0.799,0-1.198,0
	c-6.704,0.667-9.525,5.213-10.332,11.771C12.733,82.21,12.733,82.971,12.733,83.731z M20.661,85.413
	c-5.37,0.411-2.841-8.358-1.085-10.334c1.809-2.027,6.768-1.939,7.334,1.203c0.535,3-1.7,6.24-2.047,9.131
	C23.743,85.612,21.781,85.612,20.661,85.413z M80.002,78.928c-1.017-0.468-3.35-0.252-4.563-0.121
	C76.927,78.883,78.714,78.653,80.002,78.928z M62.702,83.129c-3.281,0-6.562,0-9.847,0c-0.115,0.004-0.09,0.148-0.119,0.24
	C55.78,83.012,59.661,83.486,62.702,83.129z M57.42,85.653c1.201,0.358,3.244-0.12,4.442,0.237
	C61.305,85.367,58.765,85.785,57.42,85.653z M11.528,77.123c-0.137,0.022-0.099,0.218-0.117,0.361c-1.443,0-2.883,0-4.322,0
	C7.548,77.484,11.452,78.076,11.528,77.123z M34.958,74.119c1.039-0.278,2.599-0.037,3.843-0.116c0,0.236,0,0.479,0,0.715
	c0.172,0.22,0.146-0.813,0.12-0.839c-0.494-0.472-4.217,0.108-4.084,0.36C34.905,74.232,34.977,74.226,34.958,74.119z
	 M41.922,85.291c-1.248,0.276-2.996,0.047-4.448,0.122C38.65,85.544,40.945,85.756,41.922,85.291z M67.869,89.139
	c-1.168,0.272-2.842,0.041-4.206,0.117C64.76,89.389,66.972,89.6,67.869,89.139z M58.259,89.38c0.566,0,1.12,0,1.682,0
	c0.399,0,0.807,0,1.207,0c0.202-1.198,0.499-2.306,0.715-3.489c-1.198-0.357-3.241,0.121-4.442-0.237
	c-2.249,0.004-5.502,0.382-4.684-2.284c0.029-0.092,0.004-0.236,0.119-0.24c3.284,0,6.565,0,9.847,0
	c0.502-2.486,1.372-5.935-0.116-7.807c-2.352-2.955-8.795-2.084-11.535,0.719c-1.51,1.55-3.01,6.621-2.882,9.492
	c0.129,2.833,2.285,3.885,5.408,3.847C55.14,89.38,56.699,89.38,58.259,89.38z M59.1,79.647c-1.646,0.275-3.797,0.042-5.644,0.116
	C53.467,77.085,59.314,75.936,59.1,79.647z M19.576,21.743c-0.075-0.641,0.163-1.598-0.117-2.039
	C19.539,20.344,19.301,21.302,19.576,21.743z M80.605,81.088c-0.175-0.751-0.467-1.376-0.604-2.16
	c-1.288-0.274-3.075-0.045-4.563-0.121c0.332,2.394,1.414,4.028,1.564,6.606c0.195,0.206,0.195,1.231,0,1.442
	c0,1.045-0.406,1.677-0.724,2.4c1.521,0,3.046,0,4.562,0c2.304-7.269,7.827-11.319,11.294-17.42
	c-1.363-0.278-3.244-0.038-4.809-0.116C85.007,74.678,82.908,78.506,80.605,81.088z M38.802,74.003
	c-1.244,0.079-2.804-0.162-3.843,0.116c0.018,0.106-0.053,0.113-0.121,0.12c-0.524,4.906-5.32,16.094,3.241,15.141
	c1.443,0,2.886,0,4.325,0c0.919,0,1.838,0,2.762,0c1.036-5.173,2.11-10.306,3.243-15.377c-1.322,0-2.644,0-3.963,0
	c-0.917,3.688-1.688,7.521-2.524,11.288c-0.977,0.465-3.271,0.253-4.448,0.122c-0.746-3.904,1.063-7.027,1.328-10.695
	C38.802,74.481,38.802,74.239,38.802,74.003z M73.517,73.879c-0.802,0-1.6,0-2.407,0c-1.157,0.282-2.837,0.041-4.197,0.124
	c-1.04,5.124-2.126,10.207-3.249,15.253c1.364-0.076,3.038,0.155,4.206-0.117c0.79-3.854,1.469-7.826,2.524-11.413
	c3.083,0,6.164,0,9.25,0c-0.251-1.911-0.586-3.742-2.764-3.723C75.801,73.92,74.399,74.161,73.517,73.879z M6.848,78.807
	c-1.553,3.852-1.331,9.48-3.611,12.612c-0.459,0.498-1.583,0.335-2.396,0.479C0.626,93.213,0.276,94.381,0,95.624
	c0.479,0.076,1.278-0.154,1.557,0.121c0.686,0,1.364,0,2.045,0c4.293-0.173,4.839-4.623,5.766-8.651
	c0.682-2.955,1.149-5.95,1.801-8.287C9.726,78.807,8.287,78.807,6.848,78.807z M37,12.133c0-1.277,0-2.562,0-3.839
	C36.797,9.292,36.797,11.131,37,12.133z M19.459,18.739c0.28-0.483,0.042-1.479,0.117-2.16
	C19.297,17.062,19.539,18.061,19.459,18.739z M65.11,35.438c-1.243,0-2.486,0-3.727,0C62.346,35.639,64.146,35.639,65.11,35.438z"/>
</svg>
