<?xml version="1.0" encoding="utf-8"?>
<!-- Generator: Adobe Illustrator 14.0.0, SVG Export Plug-In  -->
<!DOCTYPE svg PUBLIC "-//W3C//DTD SVG 1.1//EN" "http://www.w3.org/Graphics/SVG/1.1/DTD/svg11.dtd" [
	<!ENTITY ns_flows "http://ns.adobe.com/Flows/1.0/">
]>
<svg version="1.1"
	 xmlns="http://www.w3.org/2000/svg" xmlns:xlink="http://www.w3.org/1999/xlink" xmlns:a="http://ns.adobe.com/AdobeSVGViewerExtensions/3.0/"
	 x="0px" y="0px" width="100px" height="100px" viewBox="-5.267 -2.814 100 100" enable-background="new -5.267 -2.814 100 100"
	 xml:space="preserve">
<defs>
</defs>
<path fill-rule="evenodd" clip-rule="evenodd" fill="#FFFFFF" d="M92.006,24.92c0,0,0.308-0.335-0.682-1.119
	c-3.698-2.935-32.26-10.666-35.342,15.044c-0.005,22.316,27.582,20.709,24.017,29.813c-3.573,9.102-22.882-2.321-22.882-2.321
	s-1.135-0.181-1.135,0.711c0,0.896,0,11.609,0,11.609s-0.072,2.438,0.974,3.032c13.792,9.106,37.047,6.59,37.887-14.461
	c0.891-22.316-26.369-19.813-24.904-29.636c0.81-8.568,20.444-0.535,20.444-0.535s1.297,1.012,1.297-0.176
	C91.68,34.74,92.006,24.92,92.006,24.92z M0.813,1.352c0,0-0.813,0.421-0.813,0.892c0,1.252,0,80.875,0,82.306
	c0,1.426,0.813,1.07,0.813,1.07l13.464,0.179c0,0,1.084,0.163,0.977-1.431c-0.154-2.312,0-25.709,0-25.709
	S49.49,64.196,49.98,27.597C50.469-9,0.813,1.352,0.813,1.352z M34.562,29.74c-0.327,20.528-19.308,15.712-19.308,15.712V14.026
	C15.254,14.026,34.887,9.21,34.562,29.74z"/>
</svg>
