<?xml version="1.0" encoding="utf-8"?>
<!-- Generator: Adobe Illustrator 14.0.0, SVG Export Plug-In  -->
<!DOCTYPE svg PUBLIC "-//W3C//DTD SVG 1.1//EN" "http://www.w3.org/Graphics/SVG/1.1/DTD/svg11.dtd" [
	<!ENTITY ns_flows "http://ns.adobe.com/Flows/1.0/">
]>
<svg version="1.1"
	 xmlns="http://www.w3.org/2000/svg" xmlns:xlink="http://www.w3.org/1999/xlink" xmlns:a="http://ns.adobe.com/AdobeSVGViewerExtensions/3.0/"
	 x="0px" y="0px" width="100px" height="100px" viewBox="-2 -2.114 100 100" enable-background="new -2 -2.114 100 100"
	 xml:space="preserve">
<defs>
</defs>
<path fill-rule="evenodd" clip-rule="evenodd" fill="#FFFFFF" d="M43.619,0c-0.446,0-0.892,0-1.338,0c-0.245,0-0.49,0-0.739,0
	c-3.712,0.21-7.126,0.854-10.235,1.854C22.109,4.81,14.478,9.293,8.013,14.981c-0.293,0.357-0.612,0.676-0.965,0.969
	c-0.104,0.038-0.182,0.114-0.222,0.222c-0.217,0.274-0.462,0.522-0.743,0.739C3.303,19.994,0.714,23.262,0,28.409
	c0,0.395,0,0.79,0,1.191c0.567,3.535,2.344,5.867,4.306,8.007c0.424,0.362,0.821,0.764,1.184,1.189
	c3.879,3.784,8.925,6.408,13.055,9.937c-4.105,2.128-8.066,4.396-11.347,7.344c-0.342,0.402-0.714,0.771-1.115,1.114
	c-1.484,1.657-2.704,3.574-2.968,6.454c0,0.565,0,1.139,0,1.706c0.414,3.421,2.092,5.573,5.859,5.638c0.668,0,1.337,0,2.006,0
	c3.949-0.376,6.654-2.001,8.976-4.007c0.264-0.324,0.56-0.625,0.891-0.893c2.179-2.464,3.828-5.464,4.077-9.865
	c0-0.714,0-1.435,0-2.146c-0.051-1.955-0.592-3.415-1.111-4.897c1.799-0.848,3.456-2.231,5.264-2.823
	c-0.666,2.306-1.465,5.548-1.109,8.536c0.29,2.465,1.337,5.714,2.893,6.897c0.77,0.587,2.426,0.822,3.561,0.293
	c1.257-0.585,2.162-2.445,2.815-3.783c0.777-1.58,1.287-3.197,2.079-4.599c-0.016,0.655-0.137,1.203-0.149,1.854
	c0,0.521,0,1.045,0,1.561c0.217,2.013,0.566,4.21,2.895,3.93c1.716-0.204,3.156-2.541,4.003-4.077
	c1.035-1.865,1.847-3.681,2.745-5.344c1.927-3.567,3.44-7.496,5.122-11.051c0.477,3.153,1.643,5.624,2.813,8.083
	c-1.623,2.54-3.716,4.597-5.636,6.974c-0.535,0.669-1.561,1.796-1.334,2.892c0.328,1.618,3.359,1.249,4.895,0.893
	c2.56-0.587,5.355-2.16,6.528-4.153c1.013-1.727,1.039-4.235,0.446-6.153c-0.217-0.7-0.653-1.369-0.596-1.86
	c0.067-0.549,1.105-1.694,1.484-2.3c1.593-2.535,2.856-4.955,4.226-7.343c0.389,2.98,1.37,5.355,2.522,7.567
	c-0.306,0.286-0.576,0.604-0.962,0.814c-0.362,0.426-0.761,0.821-1.188,1.191c-1.441,1.847-2.978,3.593-3.337,6.522
	c0,0.324,0,0.644,0,0.968c0.569,3.076,3.685,1.872,6.01,0.739c2.552-1.242,4.535-3.103,5.044-6.152c0-0.301,0-0.599,0-0.893
	c-0.02-1.319-0.534-2.14-0.744-3.267c1.56-0.561,3.191-1.057,5.267-1.108c0.67-0.127,1.854-0.127,2.524,0
	c5.623,0.356,9.733,2.23,10.903,7.044c0.165,0.014,0.031,0.319,0.076,0.447c0.122,0.083,0.122,0.662,0,0.738
	c-0.013,0.114,0.025,0.28-0.076,0.299c-0.206,1.274-0.828,2.153-1.557,2.822c-0.542,0.496-1.487,0.7-1.704,1.554
	c0.643,0.562,1.42-0.019,1.926-0.292c1.769-0.969,3.191-2.746,3.338-4.976c0-0.369,0-0.738,0-1.107
	c-0.207-2.395-1.186-4.014-2.373-5.421c-0.328-0.261-0.624-0.561-0.892-0.885c-2.108-1.873-4.886-3.077-8.604-3.337
	c-0.815,0-1.63,0-2.447,0c-3.011,0.127-5.283,0.993-7.492,1.923c-0.863-1.783-2.003-3.287-2.073-5.853
	c-0.172-0.084-0.032-0.472-0.078-0.669c-0.12-0.083-0.12-0.663,0-0.746c0.043-0.127-0.089-0.433,0.078-0.444
	c0.025-1.906,0.802-3.052,1.107-4.67c-0.29-0.452-0.792-0.693-1.484-0.745c-0.541,0-1.085,0-1.631,0
	c-1.031,0.032-1.904,0.222-2.596,0.592c-0.805,2.765-1.62,5.267-2.895,7.566c-1.248,2.256-2.474,4.479-3.854,6.605
	c-0.694-1.458-1.49-2.815-1.483-4.974c-0.125-0.319-0.125-1.16,0-1.484c-0.319-1.478,1.434-3.758,1.038-4.816
	c-0.261-0.7-1.369-0.738-2.522-0.745c-0.102,0.172-0.516,0.032-0.745,0.076c-0.682,0.185-1.765,0.083-2.296,0.593
	c-0.449,0.427-0.66,2.204-0.966,3.038c-1.802,4.962-4.2,9.491-6.23,14.02c-0.858,1.917-1.541,3.86-2.82,5.345
	c-0.103-0.096-0.071-0.326-0.074-0.523c-0.125-0.248-0.125-1.013,0-1.261c0.423-4.147,1.946-7.205,2.45-11.274
	c-0.427-1.083-2.65-1.199-3.191-0.37c0.013-0.452,0.184-0.758,0.15-1.262c0-0.541,0-1.088,0-1.63
	c-0.277-5.606-7.392-2.345-9.052-0.147c-0.388,0.447-0.808,0.867-1.262,1.261c-0.783,1.306-2.025,1.853-3.486,2.669
	c-1.663,0.924-2.988,1.644-4.672,2.592c-0.678,0.389-2.233,1.331-2.522,1.115c-0.401-0.339-0.773-0.715-1.111-1.115
	c-2.956-2.7-6.402-4.924-9.345-7.637c-0.427-0.37-0.824-0.764-1.191-1.186c-1.381-1.681-2.841-3.306-3.114-5.936
	c-0.482-4.631,2.134-7.834,4.153-10.167c0.025-0.146,0.204-0.139,0.223-0.292c0.292-0.356,0.612-0.674,0.969-0.967
	c0.171-0.051,0.197-0.243,0.369-0.294c3.771-3.465,8.205-6.159,12.98-8.528c4.778-2.376,10.173-4.407,16.765-4.822
	c0.153-0.172,0.618-0.032,0.889-0.076c0.322,0,0.643,0,0.965,0c0.274,0.044,0.738-0.096,0.892,0.076
	c4.668,0.446,8.853,1.376,9.268,6.083c0.127,0.127,0.127,0.758,0,0.885c-0.331,3.745-2.176,5.98-4.076,8.16
	c-0.39,0.452-0.81,0.872-1.261,1.261c-4.224,3.84-9.587,6.541-16.912,7.274c-0.325,0.166-0.965,0.025-1.411,0.07
	c-0.124,0-0.249,0-0.373,0c-0.395-0.045-0.988,0.095-1.262-0.07c-2.445-0.268-4.42-0.931-5.782-2.154
	c-0.428-0.382-0.714-1.216-1.484-1.037c-0.427,0.668,0.019,1.579,0.295,2.076c1.367,2.433,5.309,4.242,9.124,4.299
	c0.988,0,1.978,0,2.969,0c8.181-0.567,14.299-3.204,18.764-7.491c0.242-0.299,0.517-0.574,0.816-0.815
	c1.565-1.624,2.91-3.484,4.005-5.714c1.071-2.172,2.026-4.923,1.708-8.082C58.991,3.229,52.034,0.472,44.357,0
	C44.111,0,43.867,0,43.619,0z M32.415,51.848c0.086-2.133,0.675-4.178,1.484-5.929c0.777-1.682,1.694-3.401,2.821-4.529
	c0.728-0.726,1.811-1.619,3.115-1.408c0.491,0.714,0.108,1.649-0.077,2.447c-0.535,2.35-1.334,4.458-2.223,6.681
	c-0.787,1.956-1.497,4.294-2.599,6.3c-0.185,0.344-0.872,1.516-1.407,1.483c-0.962-0.057-1-1.961-1.115-2.814
	C32.293,53.505,32.293,52.421,32.415,51.848z M70.542,49.702c-0.261,2.478-1.892,3.986-3.93,4.445
	c0.007-2.396,1.437-4.001,2.522-5.56c0.315-0.376,0.662-0.727,1.038-1.04c0.351,0.147,0.274,0.714,0.369,1.109
	C70.67,48.836,70.67,49.523,70.542,49.702z M20.994,54.147c0.122,0.153,0.122,0.815,0,0.968c-0.043,0.198,0.096,0.586-0.076,0.669
	c-0.178,2.611-1.347,4.81-2.892,6.599c-1.641,1.898-3.669,3.485-6.6,3.854c-0.152,0.129-0.815,0.129-0.967,0
	c-0.649,0.039-0.912-0.318-1.335-0.516c-1.685-2.541,0.697-6.312,2.004-7.712c0.267-0.333,0.56-0.626,0.891-0.893
	c2.58-2.211,5.369-4.224,8.528-5.86c0.134,0.732,0.376,1.357,0.37,2.223C21.089,53.562,20.95,53.95,20.994,54.147z M56.008,55.556
	c-0.756,0.758-1.669,1.611-2.896,1.86c0.11-0.574,0.643-0.988,1.038-1.416c1.18-1.26,2.424-2.705,3.487-4.152
	c0.194-0.306,0.217,0.568,0.074,0.593C57.581,53.823,56.781,54.784,56.008,55.556z"/>
</svg>
