<?xml version="1.0" encoding="utf-8"?>
<!-- Generator: Adobe Illustrator 14.0.0, SVG Export Plug-In  -->
<!DOCTYPE svg PUBLIC "-//W3C//DTD SVG 1.1//EN" "http://www.w3.org/Graphics/SVG/1.1/DTD/svg11.dtd" [
	<!ENTITY ns_flows "http://ns.adobe.com/Flows/1.0/">
]>
<svg version="1.1"
	 xmlns="http://www.w3.org/2000/svg" xmlns:xlink="http://www.w3.org/1999/xlink" xmlns:a="http://ns.adobe.com/AdobeSVGViewerExtensions/3.0/"
	 x="0px" y="0px" width="261px" height="185px" viewBox="-1 -2.725 261 185" enable-background="new -1 -2.725 261 185"
	 xml:space="preserve">
<defs>
</defs>
<path fill-rule="evenodd" clip-rule="evenodd" d="M87.12,10.08c0.25-0.738-0.508-2.526-0.72-3.6c1.207-0.011,3.299,2.199,2.4,4.32
	c-0.457,0.45-0.603,0.026-1.2,0c0.997,2.319-0.635,3.975-1.92,4.8c-2.109-0.051-3.417-0.903-4.8-1.68
	c0.553-0.567,1.472-0.768,2.16-1.2c-1.092-1.868-3.059-2.862-3.84-5.04C82.604,7.717,85.875,7.885,87.12,10.08z"/>
<path fill-rule="evenodd" clip-rule="evenodd" d="M234.96,17.04c-1.12,2.24-2.487,4.232-3.84,6.24
	c1.172,0.028,2.529-0.129,3.36,0.24c-1.831,2.593-8.791,5.62-9.601,0c-0.005-0.392-1.356,0.385-1.68-0.24
	c-1.074-1.834,0.823-3.671,1.68-5.04c0.556,0.885,0.084,2.796,0.24,4.08C227.144,19.303,230.852,17.972,234.96,17.04z"/>
<path fill-rule="evenodd" clip-rule="evenodd" d="M85.68,17.52c0.756,0.993,1.49,2.501,0.96,4.08
	c-2.791,1.746-6.817-0.202-9.36-0.96C79.054,18.702,81.855,16.619,85.68,17.52z"/>
<path fill-rule="evenodd" clip-rule="evenodd" d="M188.88,30.72c-0.73,0.789-1.972,1.068-3.36,1.2
	c3.449,1.032,5.23,3.729,7.201,6.24c-1.891,0.526-4.198-0.6-6-0.96c0.206,0.993,0.643,1.756,0.719,2.88
	c-3.017-0.824-7.234-6.14-2.399-7.92c-0.098-0.462-0.931-0.19-0.72-0.96C184.496,29.101,187.797,30.235,188.88,30.72z"/>
<path fill-rule="evenodd" clip-rule="evenodd" d="M162.48,34.08c-2.252,2.609-8.479,1.092-11.76,0.48
	C152.959,32.156,161.764,26.766,162.48,34.08z"/>
<path fill-rule="evenodd" clip-rule="evenodd" d="M55.68,36.24c1.268,0.968,3.055,2.439,2.16,4.8
	c-0.501,0.102-0.635-0.165-0.96-0.24c0.619,2.291-0.519,3.64-1.68,4.8c-2.474,0.233-3.55-0.93-5.28-1.44
	c0.536-0.665,1.338-1.062,2.4-1.2c-1.227-1.732-2.757-3.163-4.08-4.8c3.108-0.787,6.551,0.167,8.16,1.68
	C56.198,38.603,55.646,37.713,55.68,36.24z"/>
<path fill-rule="evenodd" clip-rule="evenodd" d="M54.72,47.52c0.909,0.812,1.611,2.699,0.96,4.32c-3.107,1.35-6.961-0.284-9.36-1.2
	C48.388,48.968,50.961,46.723,54.72,47.52z"/>
<path fill-rule="evenodd" clip-rule="evenodd" d="M60,50.64c0.145,0.575,0.345,1.095,0.24,1.92c-1.131,0.709-2.81,0.87-4.56,0.96
	C56.698,52.226,57.748,49.928,60,50.64z"/>
<path fill-rule="evenodd" clip-rule="evenodd" d="M60,56.64c4.59,3.979-2.959,7.064-6.96,7.68c0.687-2.033,1.812-3.628,2.88-5.28
	c-0.819-0.38-2.059-0.341-3.12-0.48c1.141-1.259,2.095-2.705,4.56-2.64C58.393,56.486,58.336,57.069,60,56.64z"/>
<path fill-rule="evenodd" clip-rule="evenodd" d="M232.08,74.64c0.197,1.401-0.739,3.738-2.16,4.32
	C227.332,77.513,230.77,75.229,232.08,74.64z"/>
<path fill-rule="evenodd" clip-rule="evenodd" d="M239.279,79.68c-1.788,1.331-2.956,3.283-5.76,3.6
	C232.316,79.893,235.938,79.315,239.279,79.68z"/>
<path fill-rule="evenodd" clip-rule="evenodd" d="M248.88,100.08c-0.989,0.03-1.503-0.416-2.64-0.24
	c0.343,1.338,1.184,2.176,1.199,3.841c-2.098-1.423-5.1-1.94-5.279-5.28C244.76,97.05,247.95,97.462,248.88,100.08z"/>
<path fill-rule="evenodd" clip-rule="evenodd" d="M243.359,104.16c0.4,0,0.801,0,1.201,0c1.064,0.791,0.72,3.104,0.479,4.561
	C243.946,107.859,242.701,105.988,243.359,104.16z"/>
<path fill-rule="evenodd" clip-rule="evenodd" d="M116.4,145.919c0.922-2.197,2.668-3.57,4.08-5.279
	c-1.189-0.41-2.933-0.268-4.32-0.48c1.377-1.643,5.647-3.941,7.92-1.68c2.242-0.715,4.489,0.6,4.56,2.16
	C128.804,144.228,119.678,145.082,116.4,145.919z"/>
<path fill-rule="evenodd" clip-rule="evenodd" d="M182.88,143.759c-0.846,0.834-1.821,1.539-3.12,1.921
	c3.919,0.481,5.99,2.81,8.4,4.8c-1.424,0.921-4.148,0.329-6,0.24c-0.35,0.602,0.911,1.641,0.96,2.64
	c-3.632-0.081-7.972-4.696-4.08-7.2c-0.476-0.324-0.934-0.666-0.72-1.68C179.101,143.243,181.209,143.519,182.88,143.759z"/>
<path fill-rule="evenodd" clip-rule="evenodd" d="M171.359,150.24c0.99,1.01,1.42,2.58,1.44,4.561
	C172.313,155.585,167.188,150.406,171.359,150.24z"/>
<path fill-rule="evenodd" clip-rule="evenodd" d="M166.561,152.4c0.07,1.789,1.256,2.996,3.6,3.12c1.099,1.382,2.08,2.88,2.16,5.28
	c-0.963-0.637-1.918-1.283-2.881-1.92c-0.529,1.55-0.041,4.118-0.479,5.76c-1.794-1.967-3.372-4.148-4.319-6.96
	c-1.887,0.993-2.849,2.911-4.801,3.84c0.232-1.929,0.561-3.76,0.96-5.521c-0.663-0.254-2.003,0.871-3.12,0.961
	c0.829-1.99,1.91-4.944,4.561-4.32C163.411,151.796,165.266,151.301,166.561,152.4z"/>
<path fill-rule="evenodd" clip-rule="evenodd" d="M181.439,157.68c0.516-0.444,1.759-0.162,2.641-0.24
	c2.8,1.711,2.096,6.788,1.68,10.561c-1.636-1.085-2.308-3.133-3.359-4.8c-0.889,2.23-1.883,4.357-3.121,6.239
	c-0.865-2.666-1.889-7.424-0.719-10.56c-1.253-1.761-4.791-2.154-4.561-4.801c0.188-2.172,2.887-2.337,4.561-1.199
	C180.152,153.962,180.676,156.326,181.439,157.68z"/>
<path fill-rule="evenodd" clip-rule="evenodd" d="M110.88,0c0.24,0,0.48,0,0.72,0c-1.367,2.554-3.246,4.595-4.8,6.96
	c1.228,0.453,2.292,1.068,3.12,1.92c-0.849,0.352-2.245,0.155-2.88,0.72c2.022,0.458,2.967,1.993,5.28,2.16
	c-0.703-0.994-0.23-2.765-0.24-3.36c-3.629,0.933-0.049-4.93,1.68-4.32c-0.071,1.374-1.239,2.914-0.96,3.84
	c1.974-2.426,6.417-2.383,10.8-2.4c-1.537,1.983-3.73,3.31-5.52,5.04c1.25,0.19,2.269,0.611,3.12,1.2
	c-1.185,0.576-2.613,0.908-3.84,1.44c0.48,0,0.96,0,1.44,0c-1.516,2.004-3.675,3.364-5.52,5.04c1.233,0.208,2.35,0.53,3.12,1.2
	c-1.68,0.96-4.108,1.172-6,1.92c1.446,2.075,5.843,1.197,7.68,2.88c4.027-5.468,9.717,2.022,11.279,5.76
	c-2.158-0.324-4.633-1.604-6.479-1.44c1.386,2.36,1.696,3.875,2.16,6.48c2.165-1.515,5.864-1.496,9.601-1.44
	c-1.43,2.01-3.731,3.149-5.281,5.04c1.123,0.238,2.331,0.389,2.881,1.2c-2.386,1.113-6.439,2.299-8.64,0.24
	c0.077,0.563,0.379,0.901,0.24,1.68c3.293,0.468,7.549-0.028,10.561,0.72c-1.42,0.1-2.733,0.307-3.601,0.96
	c1.278,0.082,2.017,0.704,3.12,0.96c3.649-5.55,9.905,2.336,11.28,5.76c-2.341-0.22-4.021-1.101-6.24-1.44
	c0.884,2.236,1.573,4.667,1.92,7.44c-3.566-2.274-6.917-4.763-8.88-8.64c-1.795,0.593-6.68,1.197-7.44-0.72
	c-0.407-0.907,0.784-2.164-0.24-2.16c-1.478,1.569-0.473,3.914,0.24,4.56c-0.4,0-0.8,0-1.2,0c0.249,0.631,0.288,1.473,0.24,2.4
	c2.125,0.197,4.33,1.587,4.8,2.64c-1.301,0.058-2.335,0.385-3.84,0.24c0.993,1.889,3.333,3.705,3.6,5.52
	c-4.63-0.183-16.548-4.712-7.92-7.92c-1.961-1.079-3.407-2.673-5.52-3.6c-0.228,2.172-0.732,4.068-0.96,6.24
	c-1.007-0.672-1.604-1.756-2.88-2.16c-1.93,3.43-4.463,6.256-6.48,9.6c-6.477,2.163-9.732,7.547-13.2,12.72
	c1.023,2.177,1.755,4.645,2.64,6.96c10.599,0.371,20.58-1.553,30.72-2.4c1.826-3.374,3.468-6.932,5.52-10.08
	c5.127,3.354,13.38,0.04,20.16,0c1.758-2.248,5.639-4.015,7.68-6.72c2.234-2.959,2.985-7.775,5.28-11.04
	c2.058-2.927,8.085-5.067,6.239-8.4c-2.787,1.613-5.517,3.283-9.119,4.08c0.818-2.141,2.022-3.897,3.119-5.76
	c-1.203-0.156-3.034,0.314-3.84-0.24c1.473-1.268,3.152-3.541,6-2.64c-0.154-0.966,0.312-2.552-0.24-3.12
	c-0.707,0.412-1.73,0.509-2.879,0.48c0.804-2.236,3.923-2.157,3.359-5.76c-2.99-1.729-8.125-1.315-11.279-2.88
	c0.85-0.51,1.736-0.982,2.64-1.44c-1.75-1.292-4.595-2.764-5.28-4.32c3.103-0.396,7.403-0.523,9.6,0.72
	c-0.047-1.392-1.021-1.858-0.959-3.36c2.785,0.654,3.189,3.689,4.56,5.76c0.942-0.018,1.324-0.596,1.92-0.96
	c-0.927,0.047-1.769,0.009-2.399-0.24c1.227-1.033,1.086-1.485,0.479-3.12c0.845,0.194,1.113,0.967,2.16,0.96
	c0.061-1.849-0.249-5.741,1.2-6.96c0.801,1.599,1.756,3.044,2.64,4.56c0.479-0.511,0.901-1.984,1.68-1.44
	c0.171,1.83-0.726,4.725,1.44,4.56c-0.703-2.791,2.417-3.584,2.4-5.04c-0.01-0.779-1.714-0.767-1.201-2.16
	c1.234-2.367,4.729-3.751,7.681-3.6c-0.323,1.238-2.565,2.979-1.92,3.6c2.084-0.084,3.942,0.058,5.76,0.24
	c-2.153,1.847-4.376,3.624-8.16,3.84c0.033,2.033-0.687,3.313-0.96,5.04c1.275,0.262-0.029,1.388,0.48,2.64
	c0.453,0.605,1.471,1.592,2.16,1.2c-2.881-8.337,9.342-3.814,9.84-0.48c-1.578-0.058-2.617,0.423-4.32,0.24
	c-1.668,1.135-1.721,3.454-4.32,3.12c-0.273,2.127-0.427,4.373-0.72,6.48c3.229,1.41,3.897,5.382,4.319,9.6
	c-1.07-0.787-1.896-1.527-3.119-2.64c-0.523-0.476-2.348-2.913-3.12-2.88c-0.071,0.003-2.173,2.173-2.64,2.64
	c-2.789,2.789-5.961,5.744-7.44,8.16c3.627-0.417,7.479-2.584,11.521-1.92c1.45,0.238,2.832,1.372,4.319,1.68
	c1.771,0.366,3.677,0.534,5.521,0.72c7.876,0.797,13.457,3.719,19.439,5.28c1.57-2.91,2.898-6.062,5.52-7.92
	c0.054-0.772-0.424-1.016-0.239-1.92c0.515-1.193,2.435-1.928,0.96-3.12c-1.723,0.837-1.748,3.373-4.08,3.6
	c-1.822-2.233-4.674-3.068-7.92-1.68c-0.859,2.688-1.271,7.1-3.84,7.2c-1.066,0.042-3.148-2.099-4.08-3.12
	c-2.043-2.241-3.23-6.535-3.6-9.12c1.212,0.69,2.2,1.395,3.6,2.4c0.633,0.455,2.819,2.673,3.359,2.64
	c0.619-0.038,2.14-2.222,2.641-2.64c1.141-0.953,2.192-1.391,2.88-2.4c-0.585-0.939-1.104-3.208-2.399-2.64
	c0.42,0.219,0.834,0.446,0.719,1.2c-1.893,1.969-4.623-1.221-4.559-2.64c1.341,0.024,2.896,1.096,3.6,0.96
	c-2.232-2.168-2.371-6.429-2.4-10.8c1.99,1.45,3.275,3.604,5.04,5.28c0.313-1.047,0.598-2.123,1.2-2.88
	c0.596,1.004,0.833,2.367,1.439,3.36c0.316-1.365,1.068-2.292,1.44-3.6c-2.707-2.173-3.729-6.03-4.56-10.08
	c1.182,0.677,2.598,1.572,4.319,2.88c1.867,1.419,3.659,4.219,5.28,2.4c-1.639-5.545,4.608-8.246,7.68-9.84
	c-0.199,2.363-1.701,4.697-1.68,6.48c0.848-0.909,0.807,1.099,0.96,1.68c0.804,0.076,1.513,0.247,1.92,0.72
	c-0.696,0.264-1.623,0.297-1.681,1.2c1.721,2.359,5.658,2.503,7.681,4.56c1.05-2.761,5.11-2.787,8.64-2.4
	c2.088-6.671,10.09-0.297,12.48,2.16c-1.904,0.495-4.885-0.085-6.721,0.48c1.638,1.643,2.816,3.744,3.841,6
	c1.543,0.457,3.109,0.891,4.079,1.92c-2.129,0.671-4.07,1.529-6.479,1.92c-0.054,1.574,0.133,2.907,0.96,3.6
	c0.27-1.574,3.248-1.708,4.801-1.2c-0.691,1.148-2.135,1.546-3.121,2.4c4.936,0.025,7.267,2.654,10.08,4.8
	c-2.045,0.594-5.059,0.221-7.199,0.72c0.503,0.704,1.701,1.97,1.439,2.64c-1.214-0.146-2.109-0.611-3.119-0.96
	c0.531,1.788,1.85,2.79,1.439,5.52c0.649,0.352,2.084-0.217,3.359,0c3.188,1.803,2.893,7.148,2.641,11.76
	c-1.8-1.4-2.9-3.5-4.32-5.28c-0.672,2.768-1.592,5.287-3.119,7.2c-0.908-3.252-2.062-6.257-1.92-10.56
	c-2.561-0.721-4.94-1.621-7.681-2.16c0.288,1.312,1.077,2.123,1.2,3.6c-1.5-0.34-2.347-1.333-3.6-1.92
	c0.098,2.672,0.061,4.009,0,6.72c-2.499-3.182-5.956-5.404-6.24-10.8c0.108-1.091,2.012-0.388,1.68-1.92
	c-1.944,0.078-3.227,2.489-5.52,2.64c-3.254,0.215-7.252-2.65-11.281-2.16c-2.104,2.534-3.889,5.391-5.76,8.16
	c-5.226-0.534-9.104-2.415-12.959-4.32c3.777,5.902,8.941,10.417,9.84,19.2c3.228,0.941,6.224,3.364,9.359,3.6
	c-0.013-0.413,0.186-0.615,0.48-0.72c-3.312-4.51,3.037-6.381,7.68-6c-1.188,1.772-3.191,2.729-4.32,4.56
	c3.702,1.648,8.551,0.728,12.48,0.72c-0.898,1.262-2.17,2.151-2.88,3.6c5.726-0.661,10.522,1.825,12.72,4.56
	c-1.756,0.644-4.654,0.146-5.76,1.44c1.682,0.878,4.145,0.976,6.48,1.2c0.424,0.775,0.719,1.68,0.959,2.64
	c2.148,0.251,3.916,0.886,5.041,2.16c-1.1,0.261-2.42,0.301-3.121,0.96c0.191,0.027,0.729,0.793,0.24,0.721
	c-0.701-0.979-2.727-0.634-4.08-0.961c-0.355-1.244-1.028-2.172-2.16-2.64c-0.211,0.791,1.176,1.199,0.48,1.68
	c-5.311-0.992-7.816-4.006-14.16-2.88c0.277,1.365,1.615,0.178,2.881,0.48c1.592,0.969,3.736,2.66,4.079,4.08
	c-2.79-0.529-7.303-0.484-6.72-3.601c-0.723,0.558-1.709,0.852-2.641,1.2c1.103,2.419,2.955,5.363,2.881,8.16
	c-3.476-2.285-7.785-3.734-9.12-8.16c-1.192,0.248-2.825,0.055-3.841,0.48c0.42,0.221,0.53,0.75,0.48,1.439
	c-0.908,1.574-3.76,2.479-5.52,2.4c1.029-1.531,2.163-2.957,3.6-4.08c-2.706-0.334-5.885-0.195-7.68-1.44
	c3.385-1.895,9.229-1.33,12.24-3.601c-4.311-0.33-7.715-1.565-11.28-2.639c-0.876-6.291-3.685-10.264-6.479-15.12
	c-1.146-1.99-3.769-7.45-5.281-8.64c-1.625-1.279-4.406-1.568-6.479-2.4c-2.103-0.844-4.026-1.906-6.239-2.64
	c-4.327,1.594-8.578,3.263-13.201,4.56c-3.62,4.06-7.161,8.199-10.799,12.24c-7.354,1.446-14.918,2.683-22.32,4.08
	c-2.138,3.303-3.842,7.039-6.24,10.08c-8.608,2.913-16.75,6.29-25.44,9.12c-6.809,8.871-13.164,18.196-19.68,27.359
	c-3.238,1.562-6.675,2.926-9.6,4.801c14.104,7.176,27.913,14.647,41.76,22.08c6.385-1.615,12.587-3.412,18.96-5.04
	c-0.287-1.874-1.131-3.189-1.68-4.8c1.965-4.676,6.117-7.162,5.279-14.641c0.779-1.861,3.5-1.779,3.36-4.56
	c-1.714,0.046-2.691,0.829-4.32,0.96c0.226,1.055,1.185,1.375,0.96,2.88c-0.559,0.722-1.447,1.112-2.88,0.96
	c0.274,2.273-1.53,2.471-2.159,3.84c-0.307-0.494-0.383-1.217-1.201-1.199c-0.545,1.939-3.022,1.85-5.04,1.199
	c-0.471,0.182,0.651,0.766,0.24,1.68c-1.404,1.717-6.16,0.081-6.96,2.4c-2.495-1.024-4.862-2.178-7.68-2.88
	c-1.738,4.263-5.675,6.325-9.36,8.64c0.242-2.799,1.774-5.584,1.92-7.68c-1.92,0.88-4.199,1.4-6.72,1.68
	c2.255-3.508,6.899-10.388,12.24-6.24c3.591-0.457,6.848-1.549,10.32-0.239c0.583-0.946-0.901-1.569-1.2-2.399
	c-3.092,0.132-5.266-0.654-7.2-1.681c0.99-0.37,1.856-0.864,3.12-0.96c-1.483-1.878-4.634-3.364-5.52-5.04
	c5.038-0.397,9.924,0.635,12,2.399c-1.142-0.818-0.688-2.961-2.4-2.64c0.859-1.94,2.627-2.974,3.6-4.8
	c-1.673-0.407-3.699-0.461-5.04-1.2c2.48-1.44,4.547-3.293,8.88-2.88c0.854,0.666,1.591,1.448,1.68,2.88
	c2.199-0.249,4.901,1.458,5.76,0.96c1.148-1.409-2.923-2.547-2.641-3.84c0.815,0.065,1.946-0.186,2.4,0.24
	c-0.572-1.909-2.129-4.107-2.16-5.76c2.808,1.192,5.141,2.859,7.2,4.8c0.103-1.738,0.778-2.901,0.96-4.56
	c-1.648-0.352-4.096,0.096-5.279-0.721c1.571-1.148,3.367-2.071,4.799-3.359c-1.653-0.586-3.421-1.059-4.319-2.4
	c3.346-0.768,10.072-2.488,9.601,2.88c1.75,0.329,2.657,1.503,5.039,1.2c-0.255-1.111-1.736-2.256-1.439-3.12
	c0.882,0.077,1.328,0.592,2.16,0.72c-0.491-1.67-0.594-3.727-0.961-5.52c2.618,1.701,4.794,3.846,5.76,7.199
	c-0.072-1.514,0.646-2.233,1.201-3.119c0.033,0.447,0.157,0.802,0.479,0.959c1.808-1.756,3.433-2.213,6.479-2.639
	c-0.662,0.938-1.137,2.062-1.92,2.879c0.307,0.814,0.717,1.523,1.201,2.16c0.39-1.129,1.412-1.627,2.399-2.16
	c-0.133,0.916-0.882,2.467-0.72,2.881c1.451-1.431,5.105-1.934,7.68-1.44c-1.043,1.437-2.517,2.444-3.84,3.601
	c0.759,0.28,1.641,0.438,2.16,0.959c-1.475,0.545-3.079,1.637-4.801,1.2c-1.816-0.46-1.791-2.433-2.16-3.6
	c-0.043,1.087-0.087,2.73-0.959,3.6c0.695,0.185,1.38,0.38,1.68,0.96c-1.62,0.38-2.787,1.213-4.561,1.44
	c0.334,2.173-0.507,3.173-1.92,3.6c0.521,1.16,0.211,3.149,0.721,4.32c1.266-0.815,3.367-2.872,4.8-4.32
	c-0.843-0.437-2.567,0.009-2.64-1.2c-0.197-0.916,0.51-0.929,0.959-1.199c1.449-0.103,1.99,1.758,3.121,1.199
	c-0.86-3.471,3.935-4.479,6.479-2.64c1.183-0.657,2.165-1.515,4.319-1.2c1.594,1.608,3.946,3.732,4.32,5.76
	c-0.859-0.02-1.387-0.373-2.16-0.479c0.064,1.032-1.227,1.96-0.72,2.64c1.914-2.485,6.354-2.445,10.8-2.4
	c-1.439,2.001-3.806,3.074-5.279,5.041c1.156,0.203,2.231,0.488,2.879,1.199c-2.072,0.648-3.75,1.689-6.719,1.44
	c-0.539-0.741-1.574-0.986-2.16-1.681c-0.277-0.283-0.271-0.848-0.24-1.439c-1.874-0.869-3.564-4.135-5.28-3.6
	c0.7,1.141,2.491,1.189,3.12,2.4c-0.936,0.264-2.235,0.164-3.12,0.479c1.328,2.353,3.571,3.788,6,5.04
	c-0.446,0.033-0.802,0.158-0.96,0.48c0.896,0.383,1.066,1.492,2.16,1.68c1.331-3.135,6.618-1.09,8.88-0.24
	c4.218-5.223,10.069,2.501,11.04,5.76c-2.277-0.125-4.648-1.43-6.24-1.439c1.052,1.91,2.031,5.166,1.92,7.439
	c-3.329-2.431-6.801-4.719-8.64-8.64c-2.259,0.601-5.97,1.214-7.44-0.479c0-0.641,0-1.281,0-1.921
	c-0.997,0.442-1.922,0.958-2.64,1.681c1.119,0.561,2.188,1.171,2.64,2.399c-3.557-0.118-6.552-1.493-8.16,1.2
	c0.523,0.757,1.076,1.484,1.201,2.641c1.158-0.223,2.236-1.188,3.6-0.48c1.991-2.258,6.09,0.039,7.199,1.68
	c-1.301,0.059-2.334,0.385-3.84,0.24c1.05,2.791,3.821,3.859,6,5.52c-2.178,0.461-4.285,0.994-6.479,1.44
	c0.673,1.181-0.346,1.86,0.479,3.36c-0.855-0.264-1.219-1.021-2.16-1.201c0,1.121,0,2.24,0,3.361
	c-0.318,0.035-0.893-0.808-0.959-0.24c0.694,0.984,1.254,2.105,1.68,3.359c-3.443-1.275-6.768-2.672-9.12-5.039
	c-1.241,2.198-2.803,4.076-4.319,6c-0.449-0.512-0.393-1.529-0.961-1.921c-0.756,1.004-1.982,1.538-3.119,2.16
	c0.019-0.894,0.359-0.774-0.24-1.2c-1.852,1.188-3.295,2.785-6,3.12c0.033,4.593-1.611,7.51-3.36,10.32
	c-0.54-2.021-1.245-3.874-1.2-6.479c-1.471,1.01-2.936,3.301-4.32,3.6c0.352-4.623,1.092-11.102,6.48-9.12
	c0.832-1.329,1.979-2.343,3.12-3.36c-1.282-0.624-1.946-1.498-3.841-0.96c1.865-2.162-2.129-3.253-4.079-3.84
	c2.4-1.469,5.652-3.268,9.12-2.88c-1.069-0.95-2.109-2.306-3.12-1.439c-0.1-1.741-0.231-3.45-0.479-5.041
	c-2.327-0.153-5.55,0.59-6.24-1.199c-0.193-1.232,0.257-1.823,0.479-2.641c-1.097,0.171-2.435-0.27-2.88,0
	c0.294,1.786,0.473,3.688,0.72,5.52c-1.599,2.482-3.644,4.516-5.04,7.201c1.113,1.847,2.293,3.627,3.12,5.76
	c-4.771,3.062-9.293,6.281-14.88,8.88c-1.879,0.874-3.927,2.552-5.52,2.64c-1.391,0.076-3.911-1.281-6-1.92
	c-19.077-5.838-36.87-12.346-56.88-15.84c-3.213,1.568-6.447,2.885-9.6,4.32c-3.148,1.434-6.901,2.422-9.6,4.32
	c-1.144,0.804-2.284,2.452-3.36,3.6c-3.394,3.619-6.832,7.947-10.56,10.8c-8.034,6.147-16.754,9.684-24.48,16.32
	c0-0.561,0-1.121,0-1.68c1.191-6.569,2.271-13.251,3.6-19.681c5.039-3.842,7.005-10.756,12.72-13.92c1.92,0,3.84,0,5.76,0
	c2.053-5.146,6.038-8.362,5.04-16.561c5-3.678,8.527-9.203,13.92-12.72c6.584-4.294,14.408-7.414,21.6-11.28
	c7.221-3.881,14.255-7.936,21.36-11.52c-0.909-2.256-2.216-4.111-3.36-6.24c-0.911-1.694-2.961-4.628-3.12-6.48
	c-0.148-1.729,1.138-4.174,1.68-6.24c0.523-1.995,1.617-4.5,1.68-6.48c0.132-4.169-2.332-7.208-0.48-11.28
	c-2.757,0.124-3.162,2.598-4.56,4.08c0.312-2.133-1.427-2.278-0.48-3.84c-0.954-0.075-1.206,0.554-2.16,0.48
	c0.117,1.245-1.129,2.381-0.48,3.36c0.668-0.542,1.996-0.592,2.4,0.24c0.596,0.624,0.049,1.46-0.48,1.68
	c6.453,0.53,2.224,8.725-0.48,9.36c-0.154-0.966,0.312-2.552-0.24-3.12c-1.813,1.306-3.894,2.346-6.24,3.12
	c1.362-3.918,3.017-7.543,6.48-9.36c-1.678,0.158-2.826-0.214-4.32-0.24c0.283-0.837,1.631-0.609,1.68-1.68
	c-0.158-0.882-0.466-1.614-0.48-2.64c-1.291-0.005-3.047,0.786-3.84,0.48c0.844-1.476,2.104-2.535,2.88-4.08
	c-1.72,0.04-3.513-1.468-4.56,0c0.299-1.979-2.321-1.04-3.12-1.92c0.091-1.508,0.404-2.796,0.72-4.08
	c-2.248-1.033-4.789-1.771-6.72-3.12c1.129-0.711,2.384-1.296,3.6-1.92c-0.497-0.143-1.577,0.296-1.68-0.24
	c1.583-0.737,2.921-1.719,4.32-2.64c-1.637,0.117-2.709-0.331-4.08-0.48c0.553-1.046,1.732-1.467,2.4-2.4
	c-1.361-1.76-3.085-4.433-3.36-6.48c1.465,0.295,2.679,0.841,3.84,1.44c-0.325-1.435-1.458-2.062-1.68-3.6
	c2.42,0.781,4.905,2.773,6.96,3.12c-0.407-1.353-0.5-3.02-0.48-4.8c2.017,1.183,3.2,3.2,5.04,4.56c3.336-0.455,5.894,1.145,7.2,1.92
	c-0.625-0.896-0.692-2.348-0.96-3.6c1.089,1.07,2.577,1.743,2.64,3.84c0.043,1.273-1.44,0.486-1.44,1.2
	c0.355,0.044,0.22,0.58,0.24,0.96c1.513-0.211,2.245-2.188,3.84-3.36c-1.3-1.821-3.018-4.5-3.36-6.48
	c2.688,0.432,4.344,1.896,6.48,2.88c0.092-0.788,0.702-1.058,0.96-1.68c-1.28,0.081-2.101-0.298-3.12-0.48
	c1.01-1.23,2.136-2.344,4.08-2.64c1.387,0.682,3.706,1.924,5.04,1.2c-2.341-0.939-2.73-3.83-6.24-3.6
	c0.966-1.274,1.588-2.891,3.84-2.88c0.931,0.029,0.263,1.657,1.2,1.68c1.757-0.882,3.793-1.487,5.52-2.4
	c-0.862-0.952-2.332-0.29-3.6-0.48c-2.386-0.359-4.582-1.785-6.24-2.64c0.448-0.672,1.314-0.925,2.16-1.2
	c-1.154-1.407,0.977-2.57,1.44-3.84c-0.421-0.219-1.197-0.083-1.44-0.48c0.415-1.105,1.865-1.175,2.16-2.4
	c-1.329-1.792-2.972-4.547-3.36-6.48c4.518,0.36,10.854,6.012,5.52,9.6c1.155,0.125,2.049,0.512,3.12,0.72
	c1.128-1.032,1.546-2.774,1.68-4.8c1.022,0.018,1.678,0.401,2.88,0.24C100.411,1.972,106.738,1.487,110.88,0z M102.96,17.04
	c-0.735,0.751,0.21,1.858,0,2.88c1.715,0.686,3.64,1.161,5.04,2.16c-2.361,1.079-5.242,1.638-7.68,2.64
	c1.509,1.317,3.181,1.255,5.52,1.44c1.343-1.298,2.897-2.383,3.84-4.08C107.289,20.7,105.249,17.727,102.96,17.04z M169.2,25.92
	c0.56,0,1.12,0,1.68,0c0.146-0.597,1.506-1.354,0.479-1.68C170.861,25.021,169.782,25.222,169.2,25.92z M173.52,27.12
	c0.603,0.574,0.805-0.607,1.681-0.48c0-0.56,0-1.12,0-1.68c-0.772,0.053-1.016-0.424-1.92-0.24
	C173.2,25.68,173.708,26.052,173.52,27.12z M111.12,27.84c0.128,0.929-0.429,1.172-0.24,2.16c2.334,0.484,4.835,0.691,6.48-0.48
	c-0.51-0.69-0.432-1.968-1.44-2.16C114.366,27.566,112.993,27.953,111.12,27.84z M86.88,35.52c1.334-1.066,4.402-0.398,6.24-0.96
	c-0.785-0.58-2.082-1.912-1.92-2.64c1.286-0.006,2.047,0.513,3.12,0.72c0.233-1.047,0.832-1.728,1.2-2.64
	c-1.253-0.347-1.897-1.303-3.12-1.68c0.149,3.589-3.124,3.756-5.28,5.04C87.178,34.074,86.5,35.279,86.88,35.52z M221.76,32.64
	c1.326-0.146,3.442,1.275,4.32,0C225.754,30.952,222.824,30.673,221.76,32.64z M228.721,32.4c-0.469,1.934,1.665,0.979,2.639,0.96
	c2.15-0.041,5.545-0.101,6.961-0.72C236.236,29.125,232.195,35.274,228.721,32.4z M112.08,36.72c-0.422,0.138-1.41-0.291-1.44,0.24
	c0.645,0.642,1.758,2.074,1.68,2.64c-0.839,0.337-1.536-0.673-1.92,0c0.708,0.332,0.972,1.108,1.68,1.44
	c0.473-1.447,2.905-0.935,4.32-1.44c-0.702-0.418-1.531-0.709-1.92-1.44c0.003-0.477,0.655-0.305,0.48-0.96
	c-2.105,0.025-2.255-1.905-2.88-3.36C112.08,34.8,112.08,35.76,112.08,36.72z M165.84,39.12c0.842-0.119,1.562-0.358,2.641-0.24
	c-0.631-2.805,2.393-1.911,3.359-1.92c-1.219-0.701-1.758-2.083-2.88-2.88C168.131,35.97,166.75,37.311,165.84,39.12z M207.84,36.48
	c0.673,1.007,1.738,1.622,2.881,2.16c0.121-1.362,2.977-2.402,2.159-3.12C211.414,36.054,209.48,36.12,207.84,36.48z M233.76,40.8
	c1.772,0.231,4.844,0.433,6.24,0.24c-1.645-0.996-0.826-4.454-2.641-5.28C236.345,37.625,234.758,38.918,233.76,40.8z M72.48,37.2
	c0.004-0.396,0.666-0.134,0.72-0.48c-0.49-0.071-0.471-0.649-0.96-0.72C72.371,36.349,71.959,37.24,72.48,37.2z M100.56,46.8
	c-0.058-2.3,2.192-3.565,3.36-3.84c-0.131,1.313-1.197,2.957-0.96,3.84c0.783-1.217,2.298-1.702,4.08-1.92
	c-1.052-2.788-2.381-5.298-3.6-7.92c-2.588,2.532-4.148,6.092-6.48,8.88c1.227,0.453,2.292,1.068,3.12,1.92
	c-4.063,1.084-9.842,0.931-8.64-3.84c0.426-1.692,2.487-1.883,3.6-3.36c-0.923-1.157-1.143,0.604-2.16,0.72
	c-1.53,0.39-3.089,0.751-5.04,0.72c0.074,0.874-0.038,1.562-0.24,2.16c-0.986,0.553-2.079,0.505-3.36,0.24
	c-0.886,2.474-1.098,5.622-2.4,7.68c2.31,0.586,1.129,3.504,2.16,5.04c-2.157,3.862-1.301,7.742,0,12
	c3.979-1.968,6.629-6.241,11.04-8.64c1.882-1.024,4.435-1.049,6.24-2.16c0.917-0.564,2.115-2.115,3.12-3.12
	c0.953-0.953,2.696-2.445,2.4-3.12c-3.166,1.027-5.527-2.441-4.56-4.8C101.823,47.912,100.573,47.366,100.56,46.8z M64.32,44.4
	c1.576-1.164,5.156-4.305,6.24-0.48c0.703,0.062,0.737-0.542,1.44-0.48c-1.969-2.111-3.812-4.349-6.96-5.28
	C65.178,40.487,63.97,42.649,64.32,44.4z M86.88,40.08c0.617,0.023,0.343,0.937,0.96,0.96c0.305-0.655,0.963-0.957,1.44-1.44
	C88.354,39.634,87.172,39.413,86.88,40.08z M228.721,50.4c-1.617-0.916-3.27-3.069-2.4-5.04c-0.158,0.322-0.514,0.447-0.961,0.48
	c-0.371-0.428-0.659-0.94-0.959-1.44c-0.801,0.752-0.375,1.107-0.48,1.68c-1.578-0.058-2.617,0.422-4.32,0.24
	c-0.37,0.51-0.689,1.07-0.959,1.68c2.045-0.435,4.089-0.871,6.719-0.72c-1.295,1.345-2.357,2.922-3.84,4.08
	c3.3,2.723,8.305,0.82,10.08-1.44C230.893,50.332,229.869,50.429,228.721,50.4z M68.88,52.56c1.07,0.45,1.916,1.125,3.12,1.44
	c1.53-1.43,4.342-1.578,6-2.88c-0.999-2.361-2.601-4.119-6.24-3.84C71.523,49.764,69.86,50.82,68.88,52.56z M108.24,49.44
	c0.596-0.312,0.996,0.704,1.2,0c-0.453-0.026-0.167-0.793-0.72-0.72C108.663,49.062,108.325,49.125,108.24,49.44z M240.721,50.88
	c0.741-0.298,1.487-0.592,1.92-1.2c-1.145,0.023-1.793-0.447-2.641-0.72C239.945,49.896,240.516,50.205,240.721,50.88z
	 M208.32,84.96c1.199,0.401,2.477,0.724,3.84,0.96c-0.107-1.553,1.654-1.952,1.68-2.64c-1.674-1.287-4.758-2.44-6.72-2.64
	C207.796,81.804,207.745,83.695,208.32,84.96z M219.84,83.76c0.457,0.103,0.604,0.517,1.2,0.48c0.131-0.989,0.835-1.405,1.2-2.16
	C220.922,81.418,220.472,83.011,219.84,83.76z M227.04,85.44c1.235,0.045,1.251,1.309,2.64,1.2c-0.174-0.734,0.414-0.706,0.24-1.44
	C228.975,84.754,227.418,83.943,227.04,85.44z M220.561,86.64c-0.074-0.554,0.693-0.267,0.719-0.72
	c-0.68-0.209-1.801-1.224-2.399-0.72C219.588,85.532,219.852,86.309,220.561,86.64z M222.96,90.24c0.613-0.026,0.84-0.439,1.2-0.72
	c-0.843,0.042-0.789-0.811-1.439-0.96C222.256,89.421,222.812,89.439,222.96,90.24z M221.279,92.64
	c1.046-0.154,2.714,0.312,3.361-0.24c-0.934-0.427-1.725-0.996-2.881-1.199C221.568,91.648,221.359,92.08,221.279,92.64z
	 M150.96,103.919c-0.81,1.751-1.37,3.75-2.88,4.801c2.1,0.061,4.386-0.066,4.561,1.92c1.048-0.168,1.352,0.408,2.399,0.24
	c-0.962-1.918-2.448-3.312-3.12-5.521c2.297,0.798,4.017,1.897,6.24,0.479c-1.725-0.96-1.436-2.604-3.12-3.359
	C154.406,104.095,153.099,104.265,150.96,103.919z M70.8,112.32c-6.574,2.753-14.079,3.718-21.36,6.24
	c-2.863,2.92-6.643,6.092-9.6,8.88c-0.995,0.938-2.728,2.174-2.4,2.88c4.212-1.283,8.397-1.954,12.48-2.88
	c4.208-0.954,8.761-1.42,12.72-2.88c3.472-1.28,6.918-3.691,10.32-5.52c3.534-1.9,6.862-4.236,10.32-5.761
	c0.731-3.509,2.352-7.407,2.64-10.56C80.875,105.34,76.489,109.938,70.8,112.32z M141.84,112.32c0.179-0.541,1.346-0.094,1.92-0.24
	c-0.367-1.873-0.722-3.758-1.199-5.52C142.464,108.466,141.414,110.691,141.84,112.32z M147.359,109.919
	c0.395,0.264,1.65,0.889,2.16,0.24c-0.621-0.338-1.107-0.812-1.68-1.199C147.837,109.437,147.186,109.265,147.359,109.919z
	 M122.16,119.28c1.175,0.358,2.166,2.027,1.2,3.12c1.486-0.434,2.62-1.221,4.08-1.68c-0.434-1.166-1.486-1.715-2.16-2.641
	C124.601,118.841,122.827,118.506,122.16,119.28z M146.16,118.8c0,0.32,0,0.64,0,0.959c0.918-0.361,1.566-0.993,2.16-1.68
	C147.488,118.208,147.042,118.722,146.16,118.8z M159.6,118.8c-0.799,0.881-2.037,1.322-3.119,1.92
	c0.095,1.025,1.062,1.178,1.199,2.16c0.878,0.158,0.921-0.52,1.68-0.48c-0.322,0.478-0.457,1.143-0.719,1.68
	c0.963,1.757,3.58,0.291,5.76,0.48c-0.414-0.815-0.168-1.76,0-2.641c-1.102,0.222-1.254-0.506-1.2-1.439
	C161.761,120.16,160.77,119.391,159.6,118.8z M140.88,121.201c0.208,0.992,0.992,1.407,1.2,2.399c1.014-0.427,1.688-1.191,2.4-1.92
	C143.125,121.257,142.338,120.347,140.88,121.201z M123.36,124.32c0.152,0.809-0.309,2.229,0.24,2.641
	c0.717-1.443,1.923-2.397,2.64-3.84C124.783,123.023,124.366,123.966,123.36,124.32z M167.52,126.48
	c1.207-0.167,1.674,0.407,2.881,0.24c0-0.641,0-1.28,0-1.92C168.864,124.785,168.087,125.527,167.52,126.48z M121.2,134.16
	c0.73-1.029,2.136-1.384,3.12-2.16c-0.79-0.01-1.195-0.404-2.16-0.24C121.947,132.517,120.879,133.667,121.2,134.16z
	 M167.04,135.839c0.034-0.766,0.888-0.712,0.96-1.439c-1.164,0.037-2.455-1.056-3.12-0.72
	C165.13,134.871,165.809,135.631,167.04,135.839z M155.04,136.56c0.435,1.166,1.485,1.715,2.16,2.641
	C158.779,138.099,156.6,135.835,155.04,136.56z M161.279,140.88c0.331-0.551,1.197-0.564,1.441-1.2
	c-0.556-0.325-0.796-0.965-1.921-0.72C160.76,139.8,160.863,140.496,161.279,140.88z M158.4,143.041
	c0.842,0.042,0.789-0.811,1.439-0.961c0.186-1.145-0.375-1.545-0.24-2.64c-1.11,0.169-1.77,0.791-2.879,0.96
	c-0.112-0.459,0.739-1.033-0.24-0.96c-0.97,0.071-0.121,1.959-1.44,1.681c0.001-0.134-0.194-0.273-0.24,0
	C155.792,141.968,157.518,142.083,158.4,143.041z M157.2,145.68c-0.21,1.075,1.521,2.111,1.68,3.6
	c0.986-0.534,1.353-1.688,2.16-2.399c-0.517-0.203-0.388-1.053-0.72-1.44C159.061,145.3,158.503,145.863,157.2,145.68z"/>
</svg>
