<?xml version="1.0" encoding="utf-8"?>
<!-- Generator: Adobe Illustrator 14.0.0, SVG Export Plug-In  -->
<!DOCTYPE svg PUBLIC "-//W3C//DTD SVG 1.1//EN" "http://www.w3.org/Graphics/SVG/1.1/DTD/svg11.dtd" [
	<!ENTITY ns_flows "http://ns.adobe.com/Flows/1.0/">
]>
<svg version="1.1"
	 xmlns="http://www.w3.org/2000/svg" xmlns:xlink="http://www.w3.org/1999/xlink" xmlns:a="http://ns.adobe.com/AdobeSVGViewerExtensions/3.0/"
	 x="0px" y="0px" width="519px" height="218px" viewBox="-0.001 0 519 218" enable-background="new -0.001 0 519 218"
	 xml:space="preserve">
<defs>
</defs>
<path d="M372.969,145.725c2.389,3.24-0.795,7.529-6.479,6.24c0.27-1.09,1.268-1.453,1.92-2.16c-1.97-0.99-4.241-1.678-6.24-2.639
	c2.229-1.381,6.466-3.014,9.841-1.682c-0.018-0.867-1.874-1.961-2.16-3.359c1.36,0.16,2.345,0.695,3.36,1.199
	c0.388-3.051,1.043-5.836,1.68-8.639c1.797,1.803,2.818,4.381,3.359,7.438c0.478-1.362,1.421-2.26,3.12-2.399
	c-0.237,1.924-1.295,3.024-2.159,4.319c-0.523,0.043-0.764-0.196-0.721-0.721C378.166,145.859,375.068,147.764,372.969,145.725z"/>
<path d="M369.129,154.846c-0.676,2.684-3.28,3.439-5.521,4.559C363.952,156.613,366.071,152.627,369.129,154.846z"/>
<path d="M310.568,169.965c2.536,0.797,9.797,10.721,4.319,12.24c-3.623,1.004-5.039-2.697-7.439-3.6
	c1.205-0.681,2.235-0.209,3.84-0.24C310.904,175.709,310.689,172.885,310.568,169.965z"/>
<path d="M320.889,175.006c3.85,0.543,11.173,2.396,7.681,6.479C324.51,180.824,322.877,177.736,320.889,175.006z"/>
<path d="M271.688,203.086c0-0.08,0-0.16,0-0.24c1.212-1.697,6.464-4.613,7.199-0.479
	C277.401,203.518,274.199,202.955,271.688,203.086z"/>
<path d="M282.728,202.846c-0.353,3.008-3.551,3.168-5.279,4.799C277.223,205.26,279.725,200.496,282.728,202.846z"/>
<path d="M275.288,205.006c-0.169,1.83-1.62,2.379-2.399,3.6C272.168,206.84,273.11,204.67,275.288,205.006z"/>
<path d="M442.568,215.564c-2.737-2.062-6.129-3.472-8.88-5.521c-7.194-0.326-13.605-1.012-19.921-1.438
	c-0.717-0.049-1.44,0.186-2.159,0c-4.219-1.097-6.688-6.892-12.721-5.521c-5.942-4.137-12.209-7.951-18.479-11.762
	c-8.44,0.04-16.983-1.048-25.199-0.479c-3.044,0.209-7.087,1.258-9.12,0.959c-1.398-0.205-2.68-1.928-4.08-1.92
	c-1.359,0.008-3.322,1.562-5.04,2.16c-5.248,1.824-10.686,3.494-15.601,5.279c-4.12-4.389-13.241-1.686-20.16-1.439
	c0.381,2.746,1.524,3.201,0.961,6c-1.457,1.664-3.512,2.729-5.28,4.08c-0.51-0.838,0.532-2.18,0.721-3.119
	c-1.806-0.123-4.369,1.068-6.96,0.959c1.223-1.977,2.563-3.836,4.56-5.039c-0.241-0.719-1.446-0.475-2.159-0.721
	c-2.132,2.35-4.396,4.564-7.439,6c0.183-1.656,0.576-3.104,1.199-4.32c-1.04,0-2.079,0-3.119,0
	c-0.949-0.625,1.746-1.557,2.159-2.399c-4.613-0.105-9.394-0.048-13.199-0.959c2.585-3.337,9.451-2.39,12.479-5.279
	c-1.886-0.676-3.671-1.451-5.521-2.16c2.198-1.178,7.732-2.436,10.08-0.479c0.008,1.111-0.316,2.557,1.199,2.16
	c0.557-0.965,0.083-2.957,0.24-4.32c-1.555,0.598-4.917-0.299-5.761-1.92c1.067,0.188,1.439-0.32,2.399-0.24
	c-0.374-0.99-2.051-2.746-2.88-4.08c2.749-0.107,6.481,0.877,8.16,2.641c0-0.961,0-1.92,0-2.881c1.085,0.607,2.819,2.705,1.199,3.84
	c1.542,0.103,2.258-0.623,3.601-0.719c-0.472-2.09-1.715-3.406-1.92-5.76c1.143,1.006,5.641,1.598,6.479,4.078
	c0.702,2.074,2.668,5.078,2.641,6.24c-0.042,1.742-2.034,2.693-2.399,4.32c2.53,0.448,5.544-0.695,8.399-0.72
	c1.488-2.433,2.835-5.006,4.08-7.683c1.348,0.253,2.792,0.408,4.08,0.722c-1,2.041-2.217,3.862-3.12,6
	c1.839,1.201,4.027,2.054,6,3.119c1.804-0.437,3.062-1.418,4.8-1.92c-0.14-0.777,0.163-1.115,0.24-1.681
	c-3.101-0.737-5.758-1.922-8.4-3.119c1.153-0.926,3.307-0.854,5.28-0.961c0.241-0.571-2.31-1.678-1.92-2.397
	c2.25,0.39,5.12,0.158,5.279,2.64c0.82,0.391,1.541-1.101,2.16-1.681c-0.656-0.543-1.483-0.916-2.16-1.438
	c2.07-0.611,4.081,0.199,6-0.48c-0.427-1.094-1.335-1.705-1.681-2.881c1.793,0.447,3.526,0.955,5.04,1.682
	c0.537-0.104,0.099-1.184,0.24-1.682c-1.867-0.432-3.755-1.648-5.76-1.199c-1.615-0.945-2.4-2.719-4.32-3.359
	c0.812-1.192,1.386-0.506,3.359-0.961c-0.543-0.977-0.228-2.812-0.72-3.84c1.867,0.357,7.424,0.15,7.681,3.6
	c0.986,0.134,1.552,0.688,2.64,0.722c0.613-0.026,0.478-0.806,0.479-1.438c0.812,0.276,2.174,0.479,2.641-1.201
	c-0.389,0.332-0.591,0.85-1.439,0.721c-1.729-0.832-3.148-1.973-4.561-3.121c0.896-0.484,3.148-0.275,4.08,0
	c-0.236-1.123-1.204-1.516-1.44-2.639c-3.976,3.361-8.219-5.291-10.079-8.16c4.141,0.82,7.805,2.115,10.079,4.799
	c1.27-0.012,2.453-0.105,3.36-0.479c-3.12,0.233-4.021-3.599-5.521-5.761c0.611-0.282,2.106,0.605,2.88,0.959
	c0.508-1.95-0.645-4.312-0.479-6.721c1.347-0.174,2.651,1.937,3.84,3.36c1.232,1.479,2.854,3.093,2.881,5.279
	c0.491-1.268,1.08-2.438,1.68-3.6c1.447,2.389-0.419,6.637,3.359,6.721c0.412-2.629,0.332-5.748,0.961-8.16
	c2.259,1.512,7.737,12.291,1.68,12.719c-1.254,0.091-1.768-0.463-2.641-1.198c-0.802,0.397-1.598,0.803-2.398,1.198
	c2.435,0.979,4.471,6.438,0.239,6.961c0.206,2.033,0.632,3.849,0.72,6c1.305,1.496,3.078,2.523,4.561,3.841
	c4.494-1.488,9.626-0.966,14.4-1.681c1.66-0.25,3.17-1.543,4.8-1.68c2.441-0.207,5.028,1.078,7.439,0.959
	c1.434-4.246,2.387-8.975,3.601-13.439c-0.535-1.625-2.31-2.01-3.12-3.358c-5.522-0.078-9.846-1.354-12-4.801
	c-0.146-6.468,5.784-6.854,6.24-12.722c0.867-0.332,1.344-1.055,2.399-1.198c0.484,1.754,1.969,2.512,1.92,4.799
	c1.27,0.571,2.768,0.914,4.319,1.201c-0.426,0.452-0.175,1.584-0.239,2.399c-4.579-1.633-9.135-0.777-9.359,4.32
	c3.354,0.498,8.315,1.387,11.039-0.24c0.893,0.707,1.165,2.035,1.681,3.119c1.714-1.326,2.962-3.119,4.319-4.801
	c-1.549-3.568-4.614-5.625-6.959-8.398c-0.188-1.787,0.337-2.863,0.239-4.561c0.865,1.215,1.17,2.99,1.92,4.32
	c1.521,0,3.04,0,4.561,0c2.119-7.721-3.642-9.64-6.24-13.439c-1.165-2.709,3.372-4.09,3.36-4.801
	c-0.031-1.854-2.928-0.422-3.84,0.24c0.104,0.824-0.096,1.346-0.24,1.92c-2.609,1.961-8.335,1.502-12.479,1.199
	c1.516-1.604,3.51-2.73,5.279-4.08c-1.256-0.584-2.54-1.14-3.84-1.681c1.586-0.75,4.785-1.846,6.72-0.721
	c0.942-0.576,1.517-1.522,2.641-1.92c-1.104-0.576-2.712-0.646-4.079-0.959c0.471-0.89,1.576-1.146,2.64-1.438
	c-1.056-1.263-1.982-0.226-3.12-0.24c-4.381-0.062-7.728-2.945-11.04-4.562c2.925-1.055,8.185-1.873,11.04-0.239
	c0.948-3.228-3.613-2.701-4.319-5.039c1.04,0,2.08,0,3.12,0c-1.163-2.117-2.621-3.939-3.841-6c3.875,0.125,7.945,2.133,10.08,4.799
	c-0.059-1.301-0.385-2.334-0.239-3.84c1.536,0.545,2.016,2.145,2.64,3.6c-0.028,0.932-0.707,1.213-1.199,1.682
	c1.604,0.564,3.106-0.621,4.8-0.721c-1.057-2.545-2.259-4.941-2.88-7.92c0.08,0,0.16,0,0.24,0c3.327,1.332,12.846,8.139,5.76,11.039
	c0.349,1.254,0.75,2.449,1.2,3.602c1.469-3.092,3.953-5.168,6.96-6.721c-0.598,2.682-1.125,5.436-2.399,7.439
	c1.219,0.559,3.912,2.33,5.04,0.721c-0.319,0.016-1.442,0.422-1.921-0.48c-0.2-2.281,1.136-3.025,1.681-4.561
	c1.085,0.867,0.037,2.627,0.239,4.08c1.68-2.881,4.866-4.254,8.4-5.279c-0.85,2.35-2.174,4.227-3.36,6.24
	c1.136-0.096,2.004,0.076,2.881,0.24c-1.356,1.442-2.751,2.85-5.04,3.358c0.036,0.765,0.544,1.058,0.479,1.92
	c2.145-1.842,6.947-1.213,9.84-0.479c-2.383,2.455-5.778,5.051-10.08,4.801c-0.455,0.838-0.021,1.207,0.721,1.439
	c-1.854,0.547-2.441,2.358-2.641,4.561c1.197,0.078,0.719-1.521,1.681-1.68c2.268-0.188,3.89,0.27,5.279,0.959
	c-0.984,0.694-2.105,1.254-3.359,1.68c1.46,1.262,3.098,2.344,4.319,3.842c-3.062,0.781-11.428,1.541-10.08-2.881
	c-0.618-0.82-1.34-1.541-2.159-2.16c-1.441,2.318-3.474,4.047-5.04,6.24c0.424,2.578,0.984,4.898,1.439,7.439
	c0.426,2.383,1.438,5.637,0.96,7.92c-0.752,3.588-7.047,5.748-7.2,11.041c-0.049,1.7,1.144,2.774,0.96,4.319
	c-0.259,2.188-2.678,3.41-3.359,5.761c0.491,2.469,1.252,4.668,1.92,6.959c6.128,3.473,12.322,6.879,18.721,10.08
	c0.668,1.172,1.691,1.987,2.399,3.12c6.915,0.685,13.951,1.248,19.92,2.88c0.401-0.56,0.627-1.293,0.721-2.16
	c3.734,5.145,7.269,10.492,10.8,15.84C442.728,215.564,442.648,215.564,442.568,215.564z M388.568,117.404c0-0.559,0-1.119,0-1.68
	c-0.562-0.328-2.577-0.449-3.12,0C386.324,116.449,386.559,117.814,388.568,117.404z M384.969,121.725
	c0.157-0.322,0.514-0.447,0.96-0.479c-0.436-1.168-2.482-1.99-3.359-1.92C383.615,119.879,384.036,121.059,384.969,121.725z
	 M395.769,123.404c1.065,0.455,1.091,1.951,2.399,2.16c0.325-0.074,0.459-0.342,0.961-0.24c0.132-0.746,0.195-1.562,0.479-2.158
	C398.106,122.932,396.849,123.369,395.769,123.404z M401.288,131.324c1.519,0.32,1.122-1.277,2.641-0.959
	c0.036-0.764,0.544-1.057,0.479-1.92C402.321,127.029,401.58,129.529,401.288,131.324z M393.368,130.125
	c-1.219,1.582-2.86,2.738-4.08,4.32c1.381,1.66,3.117,2.963,4.32,4.799c2.025-1.254,3.41-3.148,5.04-4.799
	C397.487,132.406,395.459,131.234,393.368,130.125z M346.809,164.686c-0.643-0.559-1.125-1.274-1.439-2.16
	c-0.669,0.211-1.46,0.3-1.92,0.72C344.747,163.393,345.882,164.965,346.809,164.686z M344.648,172.605
	c0.65-0.148,1.903,0.305,2.159-0.24c-0.577-0.463-0.797-1.283-1.439-1.68C345.263,171.441,344.182,172.018,344.648,172.605z
	 M340.089,181.006c0.168,1.047-0.408,1.352-0.24,2.398c1.307-0.812,2.598-0.635,4.08,0c-0.059-0.98,0.233-2.312-0.479-2.639
	C342.583,181.646,341.258,181.402,340.089,181.006z M299.288,186.525c0.332-0.709,1.108-0.974,1.439-1.68
	c-1.225,0.176-3.086-0.265-3.6,0C297.896,185.357,298.559,185.975,299.288,186.525z M294.248,193.006
	c1.068-0.934,2.635-1.365,3.601-2.4c-1.238-0.28-2.262-0.778-3.359-1.201C294.626,190.67,293.766,192.193,294.248,193.006z"/>
<path d="M87.119,10.08c0.251-0.738-0.508-2.526-0.72-3.6c1.206-0.011,3.299,2.199,2.399,4.32c-0.457,0.45-0.603,0.026-1.2,0
	c0.997,2.319-0.635,3.975-1.92,4.8c-2.108-0.051-3.416-0.903-4.8-1.68c0.553-0.567,1.472-0.768,2.16-1.2
	c-1.092-1.868-3.059-2.862-3.84-5.04C82.603,7.717,85.874,7.885,87.119,10.08z"/>
<path d="M234.959,17.04c-1.12,2.24-2.487,4.232-3.84,6.24c1.172,0.028,2.529-0.129,3.36,0.24c-1.831,2.593-8.791,5.62-9.601,0
	c-0.005-0.392-1.356,0.385-1.68-0.24c-1.074-1.834,0.823-3.671,1.68-5.04c0.556,0.885,0.084,2.796,0.24,4.08
	C227.143,19.303,230.851,17.972,234.959,17.04z"/>
<path d="M85.679,17.52c0.757,0.993,1.49,2.501,0.961,4.08c-2.791,1.746-6.818-0.202-9.361-0.96
	C79.053,18.702,81.854,16.619,85.679,17.52z"/>
<path d="M188.879,30.72c-0.73,0.789-1.972,1.068-3.36,1.2c3.449,1.032,5.23,3.729,7.201,6.24c-1.891,0.526-4.198-0.6-6-0.96
	c0.206,0.993,0.643,1.756,0.719,2.88c-3.017-0.824-7.234-6.14-2.399-7.92c-0.098-0.462-0.931-0.19-0.72-0.96
	C184.495,29.101,187.796,30.235,188.879,30.72z"/>
<path d="M162.479,34.08c-2.252,2.609-8.479,1.092-11.76,0.48C152.958,32.156,161.763,26.766,162.479,34.08z"/>
<path d="M55.679,36.24c1.268,0.968,3.055,2.439,2.16,4.8c-0.501,0.102-0.635-0.165-0.96-0.24c0.619,2.291-0.519,3.64-1.68,4.8
	c-2.474,0.233-3.55-0.93-5.28-1.44c0.536-0.665,1.338-1.062,2.4-1.2c-1.227-1.732-2.757-3.163-4.08-4.8
	c3.108-0.787,6.551,0.167,8.16,1.68C56.197,38.603,55.645,37.713,55.679,36.24z"/>
<path d="M54.719,47.52c0.909,0.812,1.611,2.699,0.96,4.32c-3.107,1.35-6.961-0.284-9.36-1.2
	C48.387,48.968,50.96,46.723,54.719,47.52z"/>
<path d="M59.999,50.64c0.145,0.575,0.345,1.095,0.24,1.92c-1.131,0.709-2.81,0.87-4.56,0.96
	C56.697,52.226,57.747,49.928,59.999,50.64z"/>
<path d="M59.999,56.64c4.59,3.979-2.959,7.064-6.96,7.68c0.687-2.033,1.812-3.628,2.88-5.28c-0.819-0.38-2.059-0.341-3.12-0.48
	c1.141-1.259,2.095-2.705,4.56-2.64C58.392,56.486,58.335,57.069,59.999,56.64z"/>
<path d="M232.079,74.64c0.197,1.401-0.739,3.738-2.16,4.32C227.331,77.513,230.769,75.229,232.079,74.64z"/>
<path d="M239.278,79.68c-1.788,1.331-2.956,3.283-5.76,3.6C232.315,79.893,235.937,79.315,239.278,79.68z"/>
<path d="M248.879,100.08c-0.989,0.029-1.503-0.417-2.64-0.24c0.343,1.337,1.184,2.176,1.199,3.84
	c-2.098-1.422-5.1-1.939-5.279-5.279C244.759,97.05,247.949,97.463,248.879,100.08z"/>
<path d="M243.358,104.16c0.4,0,0.801,0,1.201,0c1.064,0.791,0.72,3.104,0.479,4.561C243.945,107.858,242.7,105.987,243.358,104.16z"
	/>
<path d="M116.399,145.92c0.922-2.197,2.668-3.57,4.08-5.279c-1.189-0.41-2.934-0.268-4.32-0.479c1.377-1.644,5.646-3.94,7.92-1.681
	c2.242-0.715,4.488,0.601,4.561,2.16C128.803,144.229,119.677,145.082,116.399,145.92z"/>
<path d="M182.879,143.76c-0.846,0.834-1.821,1.539-3.12,1.92c3.919,0.482,5.99,2.812,8.4,4.801c-1.424,0.92-4.148,0.328-6,0.24
	c-0.35,0.603,0.911,1.641,0.96,2.639c-3.632-0.08-7.972-4.694-4.08-7.198c-0.476-0.324-0.934-0.666-0.72-1.681
	C179.1,143.242,181.208,143.52,182.879,143.76z"/>
<path d="M171.358,150.24c0.99,1.01,1.42,2.58,1.44,4.561C172.312,155.586,167.187,150.406,171.358,150.24z"/>
<path d="M166.56,152.4c0.07,1.789,1.256,2.996,3.6,3.119c1.099,1.383,2.08,2.881,2.16,5.28c-0.963-0.637-1.918-1.282-2.881-1.92
	c-0.529,1.55-0.041,4.117-0.479,5.761c-1.794-1.968-3.372-4.148-4.319-6.961c-1.887,0.993-2.849,2.911-4.801,3.84
	c0.232-1.929,0.561-3.761,0.96-5.521c-0.663-0.254-2.003,0.871-3.12,0.961c0.829-1.99,1.91-4.944,4.561-4.319
	C163.41,151.797,165.265,151.301,166.56,152.4z"/>
<path d="M181.438,157.68c0.516-0.443,1.759-0.162,2.641-0.24c2.8,1.711,2.096,6.789,1.68,10.562
	c-1.636-1.084-2.308-3.133-3.359-4.799c-0.889,2.229-1.883,4.356-3.121,6.237c-0.865-2.666-1.889-7.424-0.719-10.559
	c-1.253-1.762-4.791-2.154-4.561-4.801c0.188-2.172,2.887-2.338,4.561-1.199C180.151,153.963,180.675,156.326,181.438,157.68z"/>
<path d="M110.879,0c0.24,0,0.479,0,0.72,0c-1.366,2.554-3.245,4.595-4.8,6.96c1.228,0.453,2.292,1.068,3.12,1.92
	c-0.849,0.352-2.244,0.155-2.88,0.72c2.022,0.458,2.967,1.993,5.28,2.16c-0.703-0.994-0.23-2.765-0.24-3.36
	c-3.629,0.933-0.049-4.93,1.68-4.32c-0.07,1.374-1.239,2.914-0.96,3.84c1.974-2.426,6.417-2.383,10.8-2.4
	c-1.536,1.983-3.73,3.31-5.52,5.04c1.25,0.19,2.269,0.611,3.12,1.2c-1.185,0.576-2.612,0.908-3.841,1.44c0.48,0,0.961,0,1.44,0
	c-1.517,2.004-3.675,3.364-5.521,5.04c1.233,0.208,2.351,0.53,3.121,1.2c-1.681,0.96-4.108,1.172-6,1.92
	c1.445,2.075,5.843,1.197,7.68,2.88c4.027-5.468,9.717,2.022,11.279,5.76c-2.158-0.324-4.633-1.604-6.479-1.44
	c1.386,2.36,1.696,3.875,2.16,6.48c2.165-1.515,5.864-1.496,9.601-1.44c-1.43,2.01-3.731,3.149-5.281,5.04
	c1.123,0.238,2.331,0.389,2.881,1.2c-2.386,1.113-6.439,2.299-8.641,0.24c0.077,0.563,0.379,0.901,0.24,1.68
	c3.293,0.468,7.549-0.028,10.561,0.72c-1.42,0.1-2.733,0.307-3.601,0.96c1.278,0.082,2.017,0.704,3.12,0.96
	c3.649-5.55,9.905,2.336,11.28,5.76c-2.341-0.22-4.021-1.101-6.24-1.44c0.884,2.236,1.573,4.667,1.92,7.44
	c-3.566-2.274-6.917-4.763-8.88-8.64c-1.795,0.593-6.68,1.197-7.439-0.72c-0.408-0.907,0.783-2.164-0.24-2.16
	c-1.479,1.569-0.474,3.914,0.24,4.56c-0.4,0-0.801,0-1.201,0c0.249,0.631,0.288,1.473,0.24,2.4c2.125,0.197,4.33,1.587,4.801,2.64
	c-1.302,0.058-2.336,0.385-3.84,0.24c0.992,1.889,3.333,3.705,3.6,5.52c-4.63-0.183-16.549-4.712-7.92-7.92
	c-1.961-1.079-3.407-2.673-5.52-3.6c-0.229,2.172-0.732,4.068-0.961,6.24c-1.008-0.672-1.604-1.756-2.88-2.16
	c-1.93,3.43-4.464,6.256-6.479,9.6c-6.478,2.163-9.732,7.547-13.2,12.72c1.022,2.177,1.755,4.645,2.64,6.96
	c10.6,0.371,20.58-1.553,30.721-2.4c1.826-3.374,3.467-6.932,5.52-10.08c5.127,3.354,13.38,0.04,20.16,0
	c1.758-2.248,5.639-4.015,7.68-6.72c2.234-2.959,2.985-7.775,5.28-11.04c2.058-2.927,8.085-5.067,6.239-8.4
	c-2.787,1.613-5.517,3.283-9.119,4.08c0.818-2.141,2.022-3.897,3.119-5.76c-1.203-0.156-3.034,0.314-3.84-0.24
	c1.473-1.268,3.152-3.541,6-2.64c-0.154-0.966,0.312-2.552-0.24-3.12c-0.707,0.412-1.73,0.509-2.879,0.48
	c0.804-2.236,3.923-2.157,3.359-5.76c-2.99-1.729-8.125-1.315-11.279-2.88c0.85-0.51,1.736-0.982,2.64-1.44
	c-1.75-1.292-4.595-2.764-5.28-4.32c3.103-0.396,7.403-0.523,9.6,0.72c-0.047-1.392-1.021-1.858-0.959-3.36
	c2.785,0.654,3.189,3.689,4.56,5.76c0.942-0.018,1.324-0.596,1.92-0.96c-0.927,0.047-1.769,0.009-2.399-0.24
	c1.227-1.033,1.086-1.485,0.479-3.12c0.845,0.194,1.113,0.967,2.16,0.96c0.061-1.849-0.249-5.741,1.2-6.96
	c0.801,1.599,1.756,3.044,2.64,4.56c0.479-0.511,0.901-1.984,1.68-1.44c0.171,1.83-0.726,4.725,1.44,4.56
	c-0.703-2.791,2.417-3.584,2.4-5.04c-0.01-0.779-1.714-0.767-1.201-2.16c1.234-2.367,4.729-3.751,7.681-3.6
	c-0.323,1.238-2.565,2.979-1.92,3.6c2.084-0.084,3.942,0.058,5.76,0.24c-2.153,1.847-4.376,3.624-8.16,3.84
	c0.033,2.033-0.687,3.313-0.96,5.04c1.275,0.262-0.029,1.388,0.48,2.64c0.453,0.605,1.471,1.592,2.16,1.2
	c-2.881-8.337,9.342-3.814,9.84-0.48c-1.578-0.058-2.617,0.423-4.32,0.24c-1.668,1.135-1.721,3.454-4.32,3.12
	c-0.273,2.127-0.427,4.373-0.72,6.48c3.229,1.41,3.897,5.382,4.319,9.6c-1.07-0.787-1.896-1.527-3.119-2.64
	c-0.523-0.476-2.348-2.913-3.12-2.88c-0.071,0.003-2.173,2.173-2.64,2.64c-2.789,2.789-5.961,5.744-7.44,8.16
	c3.627-0.417,7.479-2.584,11.521-1.92c1.45,0.238,2.832,1.372,4.319,1.68c1.771,0.366,3.677,0.534,5.521,0.72
	c7.876,0.797,13.457,3.719,19.439,5.28c1.57-2.91,2.898-6.062,5.52-7.92c0.054-0.772-0.424-1.016-0.239-1.92
	c0.515-1.193,2.435-1.928,0.96-3.12c-1.723,0.837-1.748,3.373-4.08,3.6c-1.822-2.233-4.674-3.068-7.92-1.68
	c-0.859,2.688-1.271,7.1-3.84,7.2c-1.066,0.042-3.148-2.099-4.08-3.12c-2.043-2.241-3.23-6.535-3.6-9.12
	c1.212,0.69,2.2,1.395,3.6,2.4c0.633,0.455,2.819,2.673,3.359,2.64c0.619-0.038,2.14-2.222,2.641-2.64
	c1.141-0.953,2.192-1.391,2.88-2.4c-0.585-0.939-1.104-3.208-2.399-2.64c0.42,0.219,0.834,0.446,0.719,1.2
	c-1.893,1.969-4.623-1.221-4.559-2.64c1.341,0.024,2.896,1.096,3.6,0.96c-2.232-2.168-2.371-6.429-2.4-10.8
	c1.99,1.45,3.275,3.604,5.04,5.28c0.313-1.047,0.598-2.123,1.2-2.88c0.596,1.004,0.833,2.367,1.439,3.36
	c0.316-1.365,1.068-2.292,1.44-3.6c-2.707-2.173-3.729-6.03-4.56-10.08c1.182,0.677,2.598,1.572,4.319,2.88
	c1.867,1.419,3.659,4.219,5.28,2.4c-1.639-5.545,4.608-8.246,7.68-9.84c-0.199,2.363-1.701,4.697-1.68,6.48
	c0.848-0.909,0.807,1.099,0.96,1.68c0.804,0.076,1.513,0.247,1.92,0.72c-0.696,0.264-1.623,0.297-1.681,1.2
	c1.721,2.359,5.658,2.503,7.681,4.56c1.05-2.761,5.11-2.787,8.64-2.4c2.088-6.671,10.09-0.297,12.48,2.16
	c-1.904,0.495-4.885-0.085-6.721,0.48c1.638,1.643,2.816,3.744,3.841,6c1.543,0.457,3.109,0.891,4.079,1.92
	c-2.129,0.671-4.07,1.529-6.479,1.92c-0.054,1.574,0.133,2.907,0.96,3.6c0.27-1.574,3.248-1.708,4.801-1.2
	c-0.691,1.148-2.135,1.546-3.121,2.4c4.936,0.025,7.267,2.654,10.08,4.8c-2.045,0.594-5.059,0.221-7.199,0.72
	c0.503,0.704,1.701,1.97,1.439,2.64c-1.214-0.146-2.109-0.611-3.119-0.96c0.531,1.788,1.85,2.79,1.439,5.52
	c0.649,0.352,2.084-0.217,3.359,0c3.188,1.803,2.893,7.148,2.641,11.76c-1.8-1.4-2.9-3.5-4.32-5.28
	c-0.672,2.768-1.592,5.287-3.119,7.2c-0.908-3.252-2.062-6.257-1.92-10.56c-2.561-0.721-4.94-1.621-7.681-2.16
	c0.288,1.312,1.077,2.123,1.2,3.6c-1.5-0.34-2.347-1.333-3.6-1.92c0.098,2.672,0.061,4.009,0,6.72
	c-2.499-3.182-5.956-5.404-6.24-10.8c0.108-1.091,2.012-0.388,1.68-1.92c-1.944,0.078-3.227,2.489-5.52,2.64
	c-3.254,0.215-7.252-2.65-11.281-2.16c-2.104,2.534-3.889,5.391-5.76,8.16c-5.226-0.534-9.104-2.415-12.959-4.32
	c3.777,5.902,8.941,10.417,9.84,19.2c3.228,0.941,6.224,3.364,9.359,3.6c-0.013-0.413,0.186-0.615,0.48-0.72
	c-3.312-4.51,3.037-6.381,7.68-6c-1.188,1.772-3.191,2.729-4.32,4.56c3.702,1.648,8.551,0.728,12.48,0.72
	c-0.898,1.262-2.17,2.151-2.88,3.6c5.726-0.661,10.522,1.825,12.72,4.56c-1.756,0.644-4.654,0.146-5.76,1.44
	c1.682,0.878,4.145,0.976,6.48,1.2c0.424,0.775,0.719,1.68,0.959,2.639c2.148,0.252,3.916,0.886,5.041,2.16
	c-1.1,0.262-2.42,0.301-3.121,0.961c0.191,0.026,0.729,0.793,0.24,0.72c-0.701-0.979-2.727-0.634-4.08-0.96
	c-0.355-1.245-1.028-2.172-2.16-2.641c-0.211,0.791,1.176,1.199,0.48,1.68c-5.311-0.992-7.816-4.005-14.16-2.879
	c0.277,1.365,1.615,0.178,2.881,0.479c1.592,0.97,3.736,2.661,4.079,4.08c-2.79-0.528-7.303-0.484-6.72-3.601
	c-0.723,0.559-1.709,0.852-2.641,1.201c1.103,2.418,2.955,5.363,2.881,8.16c-3.476-2.285-7.785-3.735-9.12-8.16
	c-1.192,0.248-2.825,0.055-3.841,0.479c0.42,0.221,0.53,0.751,0.48,1.44c-0.908,1.573-3.76,2.478-5.52,2.399
	c1.029-1.53,2.163-2.956,3.6-4.08c-2.706-0.333-5.885-0.195-7.68-1.44c3.385-1.894,9.229-1.33,12.24-3.6
	c-4.311-0.33-7.715-1.566-11.28-2.64c-0.876-6.291-3.685-10.264-6.479-15.12c-1.146-1.99-3.769-7.45-5.281-8.64
	c-1.625-1.279-4.406-1.568-6.479-2.4c-2.103-0.844-4.026-1.906-6.239-2.64c-4.327,1.594-8.578,3.263-13.201,4.56
	c-3.62,4.06-7.161,8.199-10.799,12.24c-7.354,1.446-14.918,2.683-22.32,4.08c-2.138,3.303-3.842,7.039-6.24,10.08
	c-8.607,2.913-16.75,6.291-25.439,9.121c-6.809,8.871-13.164,18.195-19.681,27.359c-3.238,1.562-6.675,2.927-9.6,4.802
	c14.105,7.176,27.913,14.646,41.76,22.08c6.385-1.615,12.587-3.412,18.96-5.041c-0.287-1.873-1.131-3.189-1.68-4.8
	c1.965-4.676,6.117-7.161,5.279-14.641c0.779-1.861,3.5-1.779,3.36-4.562c-1.714,0.047-2.691,0.83-4.32,0.961
	c0.226,1.055,1.185,1.375,0.96,2.879c-0.559,0.724-1.447,1.113-2.88,0.961c0.274,2.273-1.53,2.472-2.159,3.84
	c-0.307-0.493-0.383-1.217-1.201-1.198c-0.545,1.938-3.021,1.851-5.039,1.198c-0.472,0.183,0.65,0.767,0.24,1.681
	c-1.404,1.717-6.16,0.08-6.961,2.399c-2.495-1.024-4.861-2.178-7.68-2.881c-1.738,4.265-5.675,6.326-9.359,8.642
	c0.242-2.8,1.773-5.584,1.92-7.681c-1.921,0.879-4.199,1.4-6.721,1.681c2.255-3.509,6.898-10.39,12.24-6.24
	c3.592-0.457,6.848-1.549,10.32-0.239c0.582-0.945-0.902-1.568-1.201-2.398c-3.092,0.131-5.266-0.654-7.199-1.682
	c0.99-0.369,1.856-0.863,3.12-0.959c-1.483-1.879-4.634-3.365-5.521-5.041c5.038-0.396,9.925,0.635,12,2.399
	c-1.142-0.817-0.688-2.961-2.4-2.642c0.859-1.938,2.627-2.973,3.601-4.799c-1.673-0.408-3.698-0.461-5.04-1.201
	c2.48-1.438,4.547-3.293,8.881-2.879c0.854,0.666,1.591,1.447,1.68,2.879c2.198-0.248,4.9,1.459,5.76,0.961
	c1.148-1.409-2.923-2.547-2.641-3.84c0.815,0.064,1.946-0.186,2.4,0.24c-0.572-1.91-2.129-4.108-2.16-5.761
	c2.808,1.192,5.141,2.86,7.2,4.8c0.103-1.738,0.778-2.901,0.96-4.56c-1.648-0.352-4.096,0.097-5.279-0.72
	c1.571-1.148,3.367-2.072,4.799-3.36c-1.653-0.586-3.421-1.059-4.319-2.399c3.346-0.769,10.072-2.489,9.601,2.879
	c1.75,0.33,2.657,1.503,5.039,1.201c-0.255-1.111-1.736-2.257-1.439-3.121c0.882,0.078,1.328,0.592,2.16,0.721
	c-0.491-1.67-0.594-3.727-0.961-5.521c2.618,1.702,4.794,3.847,5.76,7.2c-0.072-1.514,0.646-2.234,1.201-3.12
	c0.033,0.447,0.157,0.802,0.479,0.96c1.808-1.756,3.433-2.214,6.479-2.64c-0.662,0.938-1.137,2.063-1.92,2.88
	c0.307,0.814,0.717,1.523,1.201,2.16c0.39-1.13,1.412-1.627,2.399-2.16c-0.133,0.915-0.882,2.467-0.72,2.88
	c1.451-1.431,5.105-1.933,7.68-1.44c-1.043,1.438-2.517,2.444-3.84,3.601c0.759,0.28,1.641,0.438,2.16,0.96
	c-1.475,0.544-3.079,1.636-4.801,1.199c-1.816-0.459-1.791-2.432-2.16-3.6c-0.043,1.088-0.087,2.73-0.959,3.6
	c0.695,0.185,1.38,0.381,1.68,0.961c-1.62,0.379-2.787,1.213-4.561,1.439c0.334,2.174-0.507,3.174-1.92,3.6
	c0.521,1.16,0.211,3.15,0.721,4.32c1.266-0.813,3.367-2.871,4.8-4.32c-0.843-0.436-2.567,0.01-2.64-1.198
	c-0.197-0.916,0.51-0.931,0.959-1.2c1.449-0.104,1.99,1.759,3.121,1.2c-0.86-3.471,3.935-4.479,6.479-2.641
	c1.183-0.656,2.165-1.514,4.319-1.199c1.594,1.607,3.946,3.732,4.32,5.76c-0.859-0.021-1.387-0.373-2.16-0.479
	c0.064,1.032-1.227,1.961-0.72,2.641c1.914-2.486,6.354-2.445,10.8-2.4c-1.439,2-3.806,3.074-5.279,5.041
	c1.156,0.203,2.231,0.488,2.879,1.199c-2.072,0.648-3.75,1.689-6.719,1.439c-0.539-0.74-1.574-0.986-2.16-1.681
	c-0.277-0.282-0.271-0.848-0.24-1.438c-1.874-0.869-3.564-4.135-5.28-3.601c0.7,1.14,2.491,1.188,3.12,2.4
	c-0.936,0.264-2.235,0.164-3.12,0.479c1.328,2.354,3.571,3.788,6,5.041c-0.446,0.032-0.802,0.157-0.96,0.479
	c0.896,0.383,1.066,1.491,2.16,1.68c1.331-3.135,6.618-1.09,8.88-0.239c4.218-5.224,10.069,2.5,11.04,5.76
	c-2.277-0.125-4.648-1.43-6.24-1.439c1.052,1.91,2.031,5.166,1.92,7.439c-3.329-2.433-6.801-4.719-8.64-8.642
	c-2.259,0.603-5.97,1.216-7.44-0.479c0-0.642,0-1.281,0-1.923c-0.997,0.443-1.922,0.959-2.64,1.683
	c1.119,0.562,2.188,1.17,2.64,2.397c-3.557-0.116-6.552-1.491-8.16,1.201c0.523,0.756,1.076,1.484,1.201,2.642
	c1.158-0.224,2.236-1.188,3.6-0.48c1.991-2.258,6.09,0.039,7.199,1.681c-1.301,0.059-2.334,0.385-3.84,0.24
	c1.05,2.791,3.821,3.858,6,5.52c-2.178,0.461-4.285,0.994-6.479,1.439c0.673,1.182-0.346,1.86,0.479,3.36
	c-0.855-0.265-1.219-1.021-2.16-1.201c0,1.121,0,2.24,0,3.361c-0.318,0.034-0.893-0.81-0.959-0.24
	c0.694,0.983,1.254,2.104,1.68,3.358c-3.443-1.274-6.768-2.672-9.12-5.038c-1.241,2.196-2.803,4.075-4.319,6
	c-0.449-0.513-0.393-1.529-0.961-1.923c-0.756,1.004-1.982,1.539-3.119,2.16c0.019-0.893,0.359-0.772-0.24-1.199
	c-1.852,1.188-3.295,2.785-6,3.119c0.033,4.595-1.611,7.511-3.36,10.32c-0.54-2.02-1.245-3.873-1.2-6.479
	c-1.471,1.01-2.936,3.301-4.32,3.6c0.352-4.623,1.092-11.102,6.48-9.121c0.832-1.328,1.979-2.342,3.12-3.359
	c-1.282-0.625-1.946-1.498-3.841-0.961c1.865-2.162-2.129-3.252-4.079-3.84c2.4-1.469,5.652-3.268,9.12-2.879
	c-1.069-0.951-2.109-2.307-3.12-1.438c-0.1-1.742-0.231-3.451-0.479-5.041c-2.327-0.154-5.55,0.59-6.24-1.199
	c-0.193-1.231,0.257-1.824,0.479-2.642c-1.097,0.17-2.435-0.27-2.88,0c0.294,1.785,0.473,3.688,0.72,5.521
	c-1.599,2.481-3.644,4.517-5.04,7.201c1.113,1.846,2.293,3.627,3.12,5.76c-4.771,3.062-9.293,6.281-14.88,8.879
	c-1.879,0.875-3.927,2.554-5.52,2.642c-1.392,0.076-3.912-1.281-6-1.92c-19.078-5.838-36.87-12.347-56.88-15.84
	c-3.213,1.567-6.447,2.885-9.6,4.319c-3.148,1.435-6.901,2.422-9.6,4.32c-1.144,0.803-2.284,2.45-3.36,3.6
	c-3.394,3.619-6.832,7.947-10.56,10.8c-8.034,6.147-16.754,9.684-24.48,16.319c0-0.562,0-1.121,0-1.681
	c1.191-6.567,2.271-13.25,3.6-19.68c5.039-3.842,7.005-10.756,12.72-13.92c1.92,0,3.84,0,5.76,0
	c2.053-5.146,6.038-8.363,5.04-16.561c5-3.678,8.527-9.203,13.92-12.721c6.584-4.293,14.408-7.414,21.6-11.279
	c7.221-3.881,14.255-7.936,21.36-11.52c-0.909-2.257-2.216-4.112-3.36-6.241c-0.911-1.694-2.961-4.628-3.12-6.48
	c-0.148-1.729,1.138-4.174,1.68-6.24c0.523-1.995,1.617-4.5,1.68-6.48c0.132-4.169-2.332-7.208-0.48-11.28
	c-2.757,0.124-3.162,2.598-4.56,4.08c0.312-2.133-1.427-2.278-0.48-3.84c-0.954-0.075-1.206,0.554-2.16,0.48
	c0.117,1.245-1.129,2.381-0.48,3.36c0.668-0.542,1.996-0.592,2.4,0.24c0.596,0.624,0.049,1.46-0.48,1.68
	c6.453,0.53,2.224,8.725-0.48,9.36c-0.154-0.966,0.312-2.552-0.24-3.12c-1.813,1.306-3.894,2.346-6.24,3.12
	c1.362-3.918,3.017-7.543,6.48-9.36c-1.678,0.158-2.826-0.214-4.32-0.24c0.283-0.837,1.631-0.609,1.68-1.68
	c-0.158-0.882-0.466-1.614-0.48-2.64c-1.291-0.005-3.047,0.786-3.84,0.48c0.844-1.476,2.104-2.535,2.88-4.08
	c-1.72,0.04-3.513-1.468-4.56,0c0.299-1.979-2.321-1.04-3.12-1.92c0.091-1.508,0.404-2.796,0.72-4.08
	c-2.248-1.033-4.789-1.771-6.72-3.12c1.129-0.711,2.384-1.296,3.6-1.92c-0.497-0.143-1.577,0.296-1.68-0.24
	c1.583-0.737,2.921-1.719,4.32-2.64c-1.637,0.117-2.709-0.331-4.08-0.48c0.553-1.046,1.732-1.467,2.4-2.4
	c-1.361-1.76-3.085-4.433-3.36-6.48c1.465,0.295,2.679,0.841,3.84,1.44c-0.325-1.435-1.458-2.062-1.68-3.6
	c2.42,0.781,4.905,2.773,6.96,3.12c-0.407-1.353-0.5-3.02-0.48-4.8c2.017,1.183,3.2,3.2,5.04,4.56c3.336-0.455,5.894,1.145,7.2,1.92
	c-0.625-0.896-0.692-2.348-0.96-3.6c1.089,1.07,2.577,1.743,2.64,3.84c0.043,1.273-1.44,0.486-1.44,1.2
	c0.355,0.044,0.22,0.58,0.24,0.96c1.513-0.211,2.245-2.188,3.84-3.36c-1.3-1.821-3.018-4.5-3.36-6.48
	c2.689,0.432,4.343,1.896,6.48,2.88c0.092-0.788,0.702-1.058,0.96-1.68c-1.28,0.081-2.101-0.298-3.12-0.48
	c1.01-1.23,2.136-2.344,4.08-2.64c1.387,0.682,3.705,1.924,5.04,1.2c-2.341-0.939-2.729-3.83-6.239-3.6
	c0.965-1.274,1.588-2.891,3.84-2.88c0.931,0.029,0.263,1.657,1.199,1.68c1.758-0.882,3.794-1.487,5.521-2.4
	c-0.862-0.952-2.332-0.29-3.601-0.48c-2.386-0.359-4.582-1.785-6.24-2.64c0.448-0.672,1.314-0.925,2.16-1.2
	c-1.154-1.407,0.977-2.57,1.44-3.84c-0.421-0.219-1.197-0.083-1.44-0.48c0.416-1.105,1.865-1.175,2.16-2.4
	c-1.328-1.792-2.971-4.547-3.359-6.48c4.518,0.36,10.854,6.012,5.52,9.6c1.154,0.125,2.049,0.512,3.12,0.72
	c1.128-1.032,1.546-2.774,1.681-4.8c1.021,0.018,1.678,0.401,2.879,0.24C100.41,1.972,106.737,1.487,110.879,0z M102.959,17.04
	c-0.735,0.751,0.21,1.858,0,2.88c1.715,0.686,3.64,1.161,5.04,2.16c-2.361,1.079-5.242,1.638-7.68,2.64
	c1.509,1.317,3.18,1.255,5.52,1.44c1.343-1.298,2.897-2.383,3.84-4.08C107.288,20.7,105.247,17.727,102.959,17.04z M169.199,25.92
	c0.56,0,1.12,0,1.68,0c0.146-0.597,1.506-1.354,0.479-1.68C170.86,25.021,169.781,25.222,169.199,25.92z M173.519,27.12
	c0.603,0.574,0.805-0.607,1.681-0.48c0-0.56,0-1.12,0-1.68c-0.772,0.053-1.016-0.424-1.92-0.24
	C173.199,25.68,173.707,26.052,173.519,27.12z M111.119,27.84c0.128,0.929-0.429,1.172-0.24,2.16
	c2.335,0.484,4.835,0.691,6.479-0.48c-0.51-0.69-0.432-1.968-1.439-2.16C114.364,27.566,112.992,27.953,111.119,27.84z
	 M86.879,35.52c1.335-1.066,4.401-0.398,6.24-0.96c-0.785-0.58-2.081-1.912-1.92-2.64c1.286-0.006,2.048,0.513,3.12,0.72
	c0.232-1.047,0.832-1.728,1.199-2.64c-1.253-0.347-1.896-1.303-3.119-1.68c0.148,3.589-3.124,3.756-5.28,5.04
	C87.177,34.074,86.499,35.279,86.879,35.52z M221.759,32.64c1.326-0.146,3.442,1.275,4.32,0
	C225.753,30.952,222.823,30.673,221.759,32.64z M228.72,32.4c-0.469,1.934,1.665,0.979,2.639,0.96
	c2.15-0.041,5.545-0.101,6.961-0.72C236.235,29.125,232.194,35.274,228.72,32.4z M112.079,36.72c-0.422,0.138-1.41-0.291-1.439,0.24
	c0.645,0.642,1.758,2.074,1.68,2.64c-0.84,0.337-1.537-0.673-1.92,0c0.708,0.332,0.971,1.108,1.68,1.44
	c0.473-1.447,2.904-0.935,4.32-1.44c-0.703-0.418-1.531-0.709-1.92-1.44c0.002-0.477,0.654-0.305,0.479-0.96
	c-2.104,0.025-2.255-1.905-2.88-3.36C112.079,34.8,112.079,35.76,112.079,36.72z M165.839,39.12c0.842-0.119,1.562-0.358,2.641-0.24
	c-0.631-2.805,2.393-1.911,3.359-1.92c-1.219-0.701-1.758-2.083-2.88-2.88C168.13,35.97,166.749,37.311,165.839,39.12z
	 M207.839,36.48c0.673,1.007,1.738,1.622,2.881,2.16c0.121-1.362,2.977-2.402,2.159-3.12
	C211.413,36.054,209.479,36.12,207.839,36.48z M233.759,40.8c1.772,0.231,4.844,0.433,6.24,0.24
	c-1.645-0.996-0.826-4.454-2.641-5.28C236.344,37.625,234.757,38.918,233.759,40.8z M72.479,37.2c0.004-0.396,0.666-0.134,0.72-0.48
	c-0.49-0.071-0.471-0.649-0.96-0.72C72.37,36.349,71.958,37.24,72.479,37.2z M100.56,46.8c-0.059-2.3,2.191-3.565,3.359-3.84
	c-0.131,1.313-1.197,2.957-0.96,3.84c0.782-1.217,2.298-1.702,4.08-1.92c-1.052-2.788-2.382-5.298-3.601-7.92
	c-2.588,2.532-4.148,6.092-6.479,8.88c1.228,0.453,2.292,1.068,3.12,1.92c-4.062,1.084-9.842,0.931-8.641-3.84
	c0.427-1.692,2.487-1.883,3.601-3.36c-0.923-1.157-1.144,0.604-2.16,0.72c-1.53,0.39-3.089,0.751-5.04,0.72
	c0.074,0.874-0.038,1.562-0.24,2.16c-0.985,0.553-2.078,0.505-3.359,0.24c-0.887,2.474-1.098,5.622-2.4,7.68
	c2.31,0.586,1.129,3.504,2.16,5.04c-2.157,3.862-1.301,7.742,0,12c3.979-1.968,6.629-6.241,11.04-8.64
	c1.882-1.024,4.435-1.049,6.239-2.16c0.917-0.564,2.115-2.115,3.121-3.12c0.952-0.953,2.695-2.445,2.399-3.12
	c-3.166,1.027-5.527-2.441-4.56-4.8C101.821,47.912,100.572,47.366,100.56,46.8z M64.319,44.4c1.576-1.164,5.156-4.305,6.24-0.48
	c0.703,0.062,0.737-0.542,1.44-0.48c-1.969-2.111-3.812-4.349-6.96-5.28C65.177,40.487,63.969,42.649,64.319,44.4z M86.879,40.08
	c0.617,0.023,0.343,0.937,0.96,0.96c0.305-0.655,0.963-0.957,1.439-1.44C88.353,39.634,87.171,39.413,86.879,40.08z M228.72,50.4
	c-1.617-0.916-3.27-3.069-2.4-5.04c-0.158,0.322-0.514,0.447-0.961,0.48c-0.371-0.428-0.659-0.94-0.959-1.44
	c-0.801,0.752-0.375,1.107-0.48,1.68c-1.578-0.058-2.617,0.422-4.32,0.24c-0.37,0.51-0.689,1.07-0.959,1.68
	c2.045-0.435,4.089-0.871,6.719-0.72c-1.295,1.345-2.357,2.922-3.84,4.08c3.3,2.723,8.305,0.82,10.08-1.44
	C230.892,50.332,229.868,50.429,228.72,50.4z M68.879,52.56c1.07,0.45,1.916,1.125,3.12,1.44c1.53-1.43,4.342-1.578,6-2.88
	c-0.999-2.361-2.601-4.119-6.24-3.84C71.522,49.764,69.859,50.82,68.879,52.56z M108.239,49.44c0.596-0.312,0.996,0.704,1.199,0
	c-0.453-0.026-0.166-0.793-0.719-0.72C108.661,49.062,108.323,49.125,108.239,49.44z M240.72,50.88
	c0.741-0.298,1.487-0.592,1.92-1.2c-1.145,0.023-1.793-0.447-2.641-0.72C239.944,49.896,240.515,50.205,240.72,50.88z
	 M208.319,84.96c1.199,0.401,2.477,0.724,3.84,0.96c-0.107-1.553,1.654-1.952,1.68-2.64c-1.674-1.287-4.758-2.44-6.72-2.64
	C207.795,81.804,207.744,83.695,208.319,84.96z M219.839,83.76c0.457,0.103,0.604,0.517,1.2,0.48c0.131-0.989,0.835-1.405,1.2-2.16
	C220.921,81.418,220.471,83.011,219.839,83.76z M227.039,85.44c1.235,0.045,1.251,1.309,2.64,1.2
	c-0.174-0.734,0.414-0.706,0.24-1.44C228.974,84.754,227.417,83.943,227.039,85.44z M220.56,86.64
	c-0.074-0.554,0.693-0.267,0.719-0.72c-0.68-0.209-1.801-1.224-2.399-0.72C219.587,85.532,219.851,86.309,220.56,86.64z
	 M222.959,90.24c0.613-0.027,0.84-0.44,1.2-0.72c-0.843,0.042-0.789-0.811-1.439-0.96C222.255,89.421,222.811,89.439,222.959,90.24z
	 M221.278,92.641c1.046-0.155,2.714,0.312,3.361-0.24c-0.934-0.427-1.725-0.996-2.881-1.2
	C221.567,91.648,221.358,92.079,221.278,92.641z M150.959,103.92c-0.81,1.75-1.37,3.75-2.88,4.801c2.1,0.06,4.386-0.066,4.561,1.919
	c1.048-0.168,1.352,0.408,2.399,0.239c-0.962-1.917-2.448-3.312-3.12-5.521c2.297,0.799,4.017,1.898,6.24,0.48
	c-1.725-0.961-1.436-2.604-3.12-3.359C154.405,104.096,153.098,104.265,150.959,103.92z M70.799,112.32
	c-6.574,2.752-14.079,3.717-21.36,6.24c-2.863,2.92-6.643,6.092-9.6,8.879c-0.995,0.938-2.728,2.174-2.4,2.881
	c4.212-1.283,8.397-1.955,12.48-2.881c4.208-0.953,8.761-1.42,12.72-2.879c3.472-1.281,6.918-3.691,10.32-5.521
	c3.534-1.899,6.862-4.235,10.319-5.763c0.732-3.508,2.352-7.405,2.641-10.559C80.874,105.34,76.488,109.938,70.799,112.32z
	 M141.839,112.32c0.179-0.541,1.346-0.094,1.92-0.24c-0.367-1.873-0.722-3.758-1.199-5.52
	C142.463,108.467,141.413,110.689,141.839,112.32z M147.358,109.92c0.395,0.264,1.65,0.889,2.16,0.24
	c-0.621-0.338-1.107-0.812-1.68-1.2C147.836,109.438,147.185,109.266,147.358,109.92z M122.159,119.279
	c1.175,0.359,2.166,2.027,1.199,3.121c1.486-0.435,2.62-1.221,4.08-1.68c-0.434-1.166-1.485-1.716-2.16-2.642
	C124.6,118.842,122.825,118.506,122.159,119.279z M146.159,118.801c0,0.32,0,0.639,0,0.959c0.918-0.361,1.566-0.994,2.16-1.68
	C147.487,118.209,147.041,118.723,146.159,118.801z M159.599,118.801c-0.799,0.881-2.037,1.322-3.119,1.92
	c0.095,1.025,1.062,1.178,1.199,2.16c0.878,0.158,0.921-0.52,1.68-0.48c-0.322,0.478-0.457,1.144-0.719,1.681
	c0.963,1.756,3.58,0.291,5.76,0.479c-0.414-0.815-0.168-1.76,0-2.641c-1.102,0.221-1.254-0.506-1.2-1.439
	C161.76,120.16,160.769,119.391,159.599,118.801z M140.879,121.201c0.208,0.992,0.992,1.406,1.2,2.398
	c1.014-0.427,1.688-1.191,2.4-1.92C143.124,121.258,142.337,120.348,140.879,121.201z M123.358,124.32
	c0.152,0.809-0.309,2.229,0.24,2.641c0.717-1.443,1.924-2.398,2.641-3.84C124.782,123.023,124.364,123.967,123.358,124.32z
	 M167.519,126.48c1.207-0.168,1.674,0.405,2.881,0.24c0-0.642,0-1.281,0-1.921C168.863,124.785,168.086,125.527,167.519,126.48z
	 M121.199,134.16c0.73-1.029,2.136-1.385,3.12-2.16c-0.79-0.01-1.195-0.404-2.16-0.24
	C121.946,132.518,120.878,133.668,121.199,134.16z M167.039,135.84c0.034-0.766,0.888-0.713,0.96-1.439
	c-1.164,0.037-2.455-1.057-3.12-0.721C165.129,134.871,165.808,135.631,167.039,135.84z M155.039,136.561
	c0.435,1.166,1.485,1.715,2.16,2.642C158.778,138.1,156.599,135.836,155.039,136.561z M161.278,140.881
	c0.331-0.551,1.197-0.564,1.441-1.201c-0.556-0.324-0.796-0.965-1.921-0.719C160.759,139.801,160.862,140.496,161.278,140.881z
	 M158.399,143.041c0.842,0.041,0.789-0.811,1.439-0.961c0.186-1.145-0.375-1.545-0.24-2.641c-1.11,0.17-1.77,0.791-2.879,0.961
	c-0.112-0.459,0.739-1.033-0.24-0.961c-0.97,0.071-0.121,1.959-1.44,1.682c0.001-0.135-0.194-0.273-0.24,0
	C155.791,141.969,157.517,142.082,158.399,143.041z M157.199,145.68c-0.21,1.076,1.521,2.111,1.68,3.6
	c0.986-0.532,1.353-1.688,2.16-2.397c-0.517-0.202-0.388-1.053-0.72-1.44C159.06,145.301,158.502,145.863,157.199,145.68z"/>
</svg>
