<?xml version="1.0" encoding="utf-8"?>
<!-- Generator: Adobe Illustrator 14.0.0, SVG Export Plug-In . SVG Version: 6.00 Build 43363)  -->
<!DOCTYPE svg PUBLIC "-//W3C//DTD SVG 1.1//EN" "http://www.w3.org/Graphics/SVG/1.1/DTD/svg11.dtd">
<svg version="1.1" id="Layer_1" xmlns="http://www.w3.org/2000/svg" xmlns:xlink="http://www.w3.org/1999/xlink" x="0px" y="0px"
	 width="766px" height="690.486px" viewBox="0 0 766 690.486" enable-background="new 0 0 766 690.486" xml:space="preserve">
<radialGradient id="SVGID_1_" cx="545.3535" cy="1548.8335" r="53.1371" gradientTransform="matrix(1 0 0 1 -274 -1486.4824)" gradientUnits="userSpaceOnUse">
	<stop  offset="0" style="stop-color:#FFEB00"/>
	<stop  offset="1" style="stop-color:#FFF3BD;stop-opacity:0"/>
</radialGradient>
<ellipse fill="url(#SVGID_1_)" cx="267.562" cy="60.454" rx="56.676" ry="60.454"/>
<path d="M0,695.626l765.94,0.691l-0.277-535.655c-38.996-3.625-227.663,6.562-252.92-5.127c-12.336-4.155-24.465-6.651-36.108-7.347
	c-1.456-0.348-5.061,0.898-10.883,3.741c-6.723,3.259-17.395,9.079-32.157,17.396c-10.812,2.979-27.793,4.99-50.938,6.03
	c-19.896,0.898-32.921,0.898-39.021,0.066c-8.594-1.871-16.146-3.812-22.663-5.752c-5.961-1.871-10.258-3.261-12.96-4.091
	c-2.288-0.624-15.107-3.882-38.535-9.771c-32.852-2.356-51.773-3.535-56.764-3.535c-3.188,0-8.872-0.831-16.979-2.494l-11.299-2.426
	c-3.881-0.694-8.523-1.595-13.931-2.703c-10.742-2.354-19.821-4.783-27.376-7.415c-6.444-2.912-11.852-5.893-16.01-8.942
	c0,0,0,0-4.366-3.81C83.334,140.559,64.667,131.892,0,160.663C0.601,170.564,0,695.626,0,695.626z"/>
<path d="M275.408,35.975c0,0,2.021,0.552,2.021,1.428c0,0.875-1.22,0.921-1.22,0.921s1.854,0.405,1.847,1.366
	c-0.008,0.961-0.382,0.775-0.382,0.775s-0.387,0.221,2.619,0.877c1.071,8.165,10.805,10.801,10.805,10.801s1.437-0.551,1.668,0.524
	c0.129,0.601-0.866,1.072-2.325,0.729c0.747,0.87-1.509,0.831-1.509,0.831s-0.027,0.818-1.278,1.004
	c-1.251,0.185-2.228-0.045-1.955-0.665c-6.492,9.426-6.417,15.585-7.179,18.578c-1.218,3.828-3.619,4.004-3.619,4.004
	s0.216,4.547-1.775,4.675c3.415,2.189,3.796,2.566,3.531,3.34c-0.265,0.774-4.161-1.441-4.161-1.441s3.157,2.986,2.297,3.835
	c-0.859,0.848-4.394-3.723-4.394-3.723s1.191,3.338,0.022,4.921c-1.541-1.932-1.541-1.932-1.541-1.932l-10.38,63.896l0.522,4.138
	l8.943-7.152l-6.334,8.75l7.806-3.718l-6.981,9.069l-13.584-4.425l-6.754-8.371l9.776,6.021l-2.754-9.21l4.365,9.699
	c0,0,11.308-65.46,11.497-66.555c-1.156-1.333,0-5.505,0-5.505s-5.853,3.244-6.212,2.544c-0.358-0.7,5.042-3.901,5.042-3.901
	s-7.476,1.938-7.577,1.021c-0.103-0.915,7.95-2.814,7.95-2.814s-1.629-1.367-0.02-5.263c-1.185-1.229-3.374-3.11-3.673-4.766
	c-0.298-1.652,2.317-10.927,0.358-19.364c-0.69,0.371-1.527-0.579-1.527-0.579l-0.194-1.299c0,0-1.012,1.012-1.747,0.905
	c-0.736-0.105-1.173-1.483-1.173-1.483s-1.649,1.738-2.548,0.98c-0.899-0.758,0.131-1.146,0.131-1.146l-1.29-1.341l0.521-1.032
	l2.932,0.689c0,0,7.854-2.144,13.524-7.715c1.733,0.11,2.725-0.171,2.725-0.171s-0.47-0.374-0.098-0.928
	c0.371-0.555-0.137-0.213-0.137-0.213s-1.289-0.599-0.896-1.294c0.394-0.693,2.714-0.61,2.714-0.61l-0.567-0.799l3.438-8.977
	l-0.265,8.979L275.408,35.975z M279.029,54.84c-1.347,0.463-1.728-1.738-1.728-1.738s-1.216,1.511-2.611,1.163
	c-1.153-0.287-1.647-2.888-1.642-2.826c0,0-1.793,2.229-3.316,1.883c-1.388-0.317-1.719-1.876-1.767-2.153
	c-0.015,0.001-0.028,0.002-0.041,0.004c-0.168,0.315-1.047,1.843-2.174,1.343c-0.351-0.156-0.77-0.484-0.967-0.646
	c-0.355,1.39-2.94,11.901-1.229,17.229c0.814,2.536,9.812,4.467,10.916,3.013C280.109,64.692,279.018,54.569,279.029,54.84z"/>
</svg>
