<?xml version="1.0" encoding="utf-8"?>
<!-- Generator: Adobe Illustrator 14.0.0, SVG Export Plug-In  -->
<!DOCTYPE svg PUBLIC "-//W3C//DTD SVG 1.1//EN" "http://www.w3.org/Graphics/SVG/1.1/DTD/svg11.dtd" [
	<!ENTITY ns_flows "http://ns.adobe.com/Flows/1.0/">
]>
<svg version="1.1"
	 xmlns="http://www.w3.org/2000/svg" xmlns:xlink="http://www.w3.org/1999/xlink" xmlns:a="http://ns.adobe.com/AdobeSVGViewerExtensions/3.0/"
	 x="0px" y="0px" width="50px" height="147px" viewBox="0 0 50 147" enable-background="new 0 0 50 147" xml:space="preserve">
<defs>
</defs>
<path d="M32.782,10.858c0,0,1.99,0.595,1.99,1.54s-1.201,0.994-1.201,0.994s1.826,0.437,1.818,1.473s-0.376,0.837-0.376,0.837
	s-0.381,0.238,2.579,0.946c1.055,8.806,10.64,11.648,10.64,11.648s1.415-0.593,1.643,0.567c0.127,0.646-0.853,1.157-2.29,0.786
	c0.736,0.939-1.485,0.896-1.485,0.897c0,0-0.027,0.883-1.259,1.083s-2.193-0.049-1.925-0.717
	c-6.394,10.166-6.319,16.809-7.069,20.038c-1.199,4.129-3.564,4.318-3.564,4.318s0.213,4.904-1.748,5.043
	c3.363,2.361,3.738,2.768,3.478,3.602c-0.261,0.836-4.098-1.557-4.098-1.557s3.108,3.223,2.262,4.137s-4.327-4.014-4.327-4.014
	s1.174,3.6,0.022,5.307c-1.518-2.082-1.518-2.082-1.518-2.082l-10.222,68.918l0.515,4.461l8.807-7.715l-6.237,9.438l7.687-4.01
	l-6.875,9.783l-13.376-4.771L0,132.781l9.627,6.492l-2.712-9.934l4.299,10.461c0,0,11.136-70.604,11.322-71.784
	c-1.139-1.438,0-5.938,0-5.938s-5.764,3.5-6.117,2.744s4.965-4.209,4.965-4.209s-7.361,2.09-7.462,1.102
	c-0.101-0.986,7.829-3.037,7.829-3.037s-1.604-1.475-0.02-5.676c-1.166-1.324-3.322-3.355-3.616-5.139s2.282-11.786,0.353-20.886
	c-0.68,0.4-1.504-0.625-1.504-0.625l-0.191-1.4c0,0-0.996,1.09-1.721,0.976s-1.154-1.601-1.154-1.601s-1.625,1.875-2.51,1.058
	s0.129-1.237,0.129-1.237l-1.27-1.445c0,0,0.512-1.114,0.512-1.114l2.888,0.744c0,0,7.733-2.312,13.317-8.321
	c1.707,0.12,2.684-0.184,2.684-0.184s-0.463-0.403-0.097-1s-0.134-0.23-0.134-0.23s-1.27-0.645-0.883-1.395s2.672-0.66,2.672-0.66
	l-0.559-0.86L34.032,0l-0.26,9.684L32.782,10.858z M36.349,31.204c-1.326,0.5-1.701-1.875-1.701-1.875s-1.197,1.629-2.572,1.254
	c-1.136-0.31-1.622-3.113-1.616-3.048c0,0-1.766,2.406-3.266,2.031c-1.367-0.342-1.692-2.023-1.74-2.322
	c-0.014,0.001-0.027,0.002-0.04,0.003c-0.165,0.341-1.031,1.987-2.141,1.448c-0.346-0.168-0.758-0.522-0.952-0.697
	c-0.35,1.498-2.896,12.836-1.21,18.581c0.803,2.736,9.662,4.818,10.75,3.25C37.412,41.831,36.337,30.913,36.349,31.204z"/>
</svg>
