<?xml version="1.0" encoding="utf-8"?>
<!-- Generator: Adobe Illustrator 14.0.0, SVG Export Plug-In . SVG Version: 6.00 Build 43363)  -->
<!DOCTYPE svg PUBLIC "-//W3C//DTD SVG 1.1//EN" "http://www.w3.org/Graphics/SVG/1.1/DTD/svg11.dtd">
<svg version="1.1" id="Layer_1" xmlns="http://www.w3.org/2000/svg" xmlns:xlink="http://www.w3.org/1999/xlink" x="0px" y="0px"
	 width="766px" height="180px" viewBox="0 0 766 180" enable-background="new 0 0 766 180" xml:space="preserve">
<linearGradient id="SVGID_1_" gradientUnits="userSpaceOnUse" x1="382.9819" y1="172.4297" x2="382.635" y2="-72.7174">
	<stop  offset="0" style="stop-color:#000000;stop-opacity:0"/>
	<stop  offset="0.1362" style="stop-color:#000000;stop-opacity:0.1362"/>
	<stop  offset="1" style="stop-color:#000000"/>
</linearGradient>
<polygon opacity="0.5" fill="url(#SVGID_1_)" enable-background="new    " points="765.831,72.75 663.581,61.25 645.081,52 
	631.081,50 606.581,51.75 601.081,50 587.831,39.5 581.831,37 571.081,31.75 562.581,29.5 550.331,27.5 534.581,7.25 516.831,0 
	500.331,18.5 490.081,27 487.331,28.25 484.331,28.25 474.081,29.25 458.581,32.5 452.081,36.375 446.581,53.75 443.581,54.25 
	441.081,61 437.581,55.75 437.581,47 431.581,42.75 421.081,48 419.663,55.75 409.997,64.917 407.83,72.75 395.33,79.25 
	384.33,70.417 372.33,76.084 369.83,80.584 366.163,82.25 366.163,83.584 362.331,85.917 356.997,79.584 353.663,78.75 
	345.163,72.25 332.83,77.75 322.997,77.75 321.497,79.084 319.663,78.917 316.997,83.584 314.663,83.584 312.83,87.417 
	296.331,74.084 292.164,76.084 288.664,76.25 287.498,78.917 286.164,78.917 284.831,76.584 276.331,71.084 269.999,62.584 
	259.665,59.75 252.165,55.417 252.165,53.084 245.499,50.25 244.499,47.584 242.165,46.584 237.333,41.083 235.166,40.916 
	235.166,39.25 230.833,37.25 230.833,35.083 229.5,34.083 224,25.25 211.666,21.583 206,23.416 197.5,25.416 191.5,25.416 
	187.333,28.916 184.166,36.583 181.5,38.583 175.5,43.709 174.833,47.25 171,48.416 162,53.75 160.333,50.583 160.333,47.416 
	152.167,45.416 152.167,43.709 149.5,43.709 149.5,36.083 148,34.583 147.333,33.083 120.5,28.083 118,29.75 114.5,37.75 
	110.333,40.25 105.833,39.75 99.5,42.916 98,47.75 82.5,58.416 80,58.416 78.333,61.583 75.333,60.916 71.833,62.75 71.833,61.25 
	62.667,60.083 59.167,62.916 46.833,66.75 41.333,66.916 0,84.583 0,178.25 765.831,178.25 "/>
</svg>
