<?xml version="1.0" encoding="utf-8"?>
<!-- Generator: Adobe Illustrator 14.0.0, SVG Export Plug-In  -->
<!DOCTYPE svg PUBLIC "-//W3C//DTD SVG 1.1//EN" "http://www.w3.org/Graphics/SVG/1.1/DTD/svg11.dtd" [
	<!ENTITY ns_flows "http://ns.adobe.com/Flows/1.0/">
]>
<svg version="1.1"
	 xmlns="http://www.w3.org/2000/svg" xmlns:xlink="http://www.w3.org/1999/xlink" xmlns:a="http://ns.adobe.com/AdobeSVGViewerExtensions/3.0/"
	 x="0px" y="0px" width="174px" height="114px" viewBox="-3.157 0 174 114" enable-background="new -3.157 0 174 114"
	 xml:space="preserve">
<defs>
</defs>
<path fill-rule="evenodd" clip-rule="evenodd" d="M101.28,41.279c2.388,3.24-0.795,7.529-6.48,6.24c0.27-1.09,1.268-1.453,1.92-2.16
	c-1.97-0.99-4.241-1.678-6.24-2.64c2.229-1.381,6.466-3.013,9.841-1.681c-0.018-0.867-1.874-1.962-2.16-3.359
	c1.36,0.16,2.344,0.695,3.36,1.199c0.388-3.051,1.043-5.836,1.68-8.639c1.797,1.803,2.818,4.381,3.359,7.439
	c0.478-1.363,1.421-2.26,3.12-2.4c-0.237,1.923-1.295,3.025-2.159,4.32c-0.524,0.043-0.764-0.197-0.721-0.721
	C106.478,41.414,103.38,43.318,101.28,41.279z"/>
<path fill-rule="evenodd" clip-rule="evenodd" d="M97.44,50.399c-0.676,2.685-3.28,3.44-5.521,4.56
	C92.264,52.168,94.383,48.182,97.44,50.399z"/>
<path fill-rule="evenodd" clip-rule="evenodd" d="M38.88,65.52c2.536,0.796,9.797,10.721,4.32,12.24
	c-3.623,1.004-5.039-2.697-7.44-3.6c1.205-0.681,2.236-0.209,3.84-0.24C39.216,71.264,39.001,68.438,38.88,65.52z"/>
<path fill-rule="evenodd" clip-rule="evenodd" d="M49.2,70.56c3.849,0.544,11.172,2.397,7.68,6.479
	C52.821,76.379,51.188,73.291,49.2,70.56z"/>
<path fill-rule="evenodd" clip-rule="evenodd" d="M0,98.64c0-0.08,0-0.16,0-0.24c1.212-1.697,6.464-4.613,7.2-0.48
	C5.713,99.072,2.511,98.509,0,98.64z"/>
<path fill-rule="evenodd" clip-rule="evenodd" d="M11.04,98.4c-0.353,3.008-3.551,3.168-5.28,4.799
	C5.534,100.814,8.036,96.05,11.04,98.4z"/>
<path fill-rule="evenodd" clip-rule="evenodd" d="M3.6,100.56c-0.169,1.83-1.62,2.379-2.399,3.6
	C0.479,102.394,1.422,100.224,3.6,100.56z"/>
<path fill-rule="evenodd" clip-rule="evenodd" d="M170.88,111.119c-2.737-2.062-6.129-3.471-8.88-5.52
	c-7.194-0.326-13.605-1.012-19.92-1.439c-0.717-0.049-1.441,0.186-2.16,0c-4.218-1.096-6.688-6.891-12.72-5.52
	c-5.943-4.137-12.209-7.952-18.48-11.761c-8.44,0.041-16.983-1.047-25.199-0.479c-3.044,0.21-7.087,1.258-9.12,0.96
	c-1.399-0.205-2.68-1.928-4.08-1.92c-1.36,0.008-3.322,1.562-5.04,2.16c-5.248,1.824-10.686,3.494-15.601,5.279
	c-4.12-4.388-13.241-1.685-20.16-1.439c0.381,2.746,1.524,3.201,0.961,6c-1.457,1.664-3.512,2.729-5.28,4.08
	c-0.51-0.838,0.532-2.18,0.72-3.119c-1.805-0.123-4.369,1.068-6.96,0.959c1.223-1.977,2.564-3.836,4.56-5.039
	c-0.241-0.719-1.446-0.475-2.159-0.721c-2.132,2.35-4.396,4.564-7.44,6c0.183-1.656,0.577-3.104,1.2-4.32c-1.04,0-2.08,0-3.12,0
	c-0.949-0.625,1.747-1.557,2.16-2.4c-4.614-0.105-9.394-0.047-13.2-0.958c2.585-3.336,9.452-2.389,12.48-5.28
	c-1.886-0.675-3.671-1.45-5.521-2.16C10.119,83.303,15.653,82.044,18,84c0.008,1.111-0.316,2.557,1.2,2.16
	c0.556-0.965,0.083-2.957,0.24-4.32c-1.555,0.598-4.917-0.299-5.761-1.92c1.068,0.188,1.44-0.32,2.4-0.24
	c-0.374-0.99-2.051-2.746-2.88-4.08c2.749-0.107,6.481,0.877,8.16,2.641c0-0.961,0-1.921,0-2.881
	c1.085,0.607,2.819,2.704,1.199,3.84c1.542,0.102,2.258-0.623,3.601-0.72c-0.472-2.089-1.715-3.405-1.92-5.76
	c1.142,1.007,5.64,1.599,6.479,4.079c0.702,2.073,2.668,5.078,2.641,6.24c-0.042,1.742-2.034,2.692-2.4,4.32
	c2.531,0.449,5.544-0.695,8.4-0.72c1.488-2.432,2.835-5.005,4.08-7.681c1.348,0.252,2.792,0.408,4.08,0.721
	c-1,2.041-2.217,3.863-3.12,6c1.839,1.201,4.027,2.053,6,3.119c1.804-0.436,3.062-1.418,4.8-1.92c-0.14-0.778,0.163-1.115,0.24-1.68
	c-3.101-0.739-5.758-1.923-8.4-3.119c1.153-0.927,3.306-0.855,5.28-0.961c0.241-0.572-2.31-1.679-1.92-2.399
	c2.25,0.39,5.12,0.159,5.279,2.64c0.821,0.391,1.541-1.1,2.16-1.68c-0.656-0.543-1.483-0.917-2.16-1.439
	c2.071-0.612,4.081,0.199,6-0.48c-0.427-1.094-1.335-1.705-1.68-2.881c1.793,0.447,3.526,0.955,5.04,1.681
	c0.537-0.104,0.098-1.183,0.24-1.681c-1.867-0.432-3.755-1.648-5.76-1.199c-1.615-0.945-2.4-2.72-4.32-3.36
	c0.812-1.192,1.386-0.505,3.359-0.96c-0.543-0.977-0.227-2.812-0.72-3.84c1.868,0.356,7.424,0.15,7.681,3.6
	c0.986,0.133,1.552,0.688,2.64,0.721c0.613-0.027,0.477-0.805,0.479-1.44c0.812,0.277,2.174,0.479,2.641-1.2
	c-0.389,0.332-0.591,0.85-1.44,0.721c-1.729-0.832-3.148-1.973-4.56-3.121c0.895-0.485,3.148-0.275,4.08,0
	c-0.236-1.123-1.204-1.516-1.44-2.639c-3.976,3.36-8.219-5.291-10.08-8.16c4.141,0.819,7.805,2.115,10.08,4.799
	c1.269-0.012,2.453-0.106,3.36-0.479c-3.12,0.235-4.021-3.597-5.521-5.76c0.612-0.282,2.107,0.605,2.88,0.96
	c0.508-1.951-0.644-4.313-0.479-6.721c1.346-0.174,2.651,1.935,3.84,3.361c1.232,1.479,2.853,3.092,2.88,5.279
	c0.492-1.268,1.081-2.438,1.68-3.6c1.447,2.389-0.419,6.636,3.36,6.72c0.412-2.628,0.332-5.748,0.96-8.16
	c2.259,1.513,7.738,12.292,1.68,12.72c-1.254,0.09-1.767-0.463-2.64-1.199c-0.802,0.397-1.598,0.802-2.399,1.199
	c2.435,0.979,4.471,6.437,0.239,6.961c0.206,2.033,0.632,3.848,0.72,6c1.305,1.496,3.078,2.522,4.561,3.84
	c4.494-1.488,9.626-0.965,14.4-1.68c1.66-0.25,3.17-1.543,4.8-1.681c2.441-0.206,5.028,1.079,7.439,0.96
	c1.434-4.246,2.387-8.975,3.601-13.439c-0.535-1.625-2.31-2.011-3.12-3.36c-5.523-0.077-9.846-1.354-12-4.8
	c-0.146-6.467,5.784-6.855,6.24-12.721c0.867-0.332,1.344-1.055,2.399-1.199c0.485,1.754,1.969,2.511,1.92,4.799
	c1.27,0.572,2.768,0.914,4.32,1.201c-0.426,0.453-0.175,1.584-0.24,2.399c-4.579-1.632-9.134-0.776-9.359,4.32
	c3.354,0.499,8.315,1.388,11.039-0.24c0.893,0.708,1.165,2.035,1.681,3.12c1.714-1.326,2.962-3.119,4.319-4.801
	c-1.549-3.569-4.614-5.625-6.959-8.399c-0.188-1.787,0.337-2.862,0.239-4.56c0.866,1.214,1.17,2.99,1.92,4.32
	c1.521,0,3.04,0,4.561,0c2.119-7.721-3.642-9.639-6.24-13.44c-1.165-2.708,3.372-4.089,3.36-4.8c-0.031-1.854-2.928-0.423-3.84,0.24
	c0.104,0.824-0.096,1.345-0.24,1.92c-2.61,1.961-8.335,1.502-12.48,1.199c1.516-1.604,3.51-2.73,5.28-4.08
	c-1.256-0.584-2.54-1.14-3.84-1.68c1.586-0.75,4.785-1.846,6.72-0.721c0.942-0.577,1.516-1.523,2.64-1.92
	c-1.103-0.576-2.712-0.647-4.079-0.959c0.471-0.889,1.576-1.145,2.64-1.44c-1.056-1.262-1.983-0.224-3.12-0.239
	c-4.381-0.062-7.728-2.945-11.04-4.561c2.924-1.055,8.184-1.873,11.04-0.24c0.948-3.227-3.614-2.701-4.32-5.04c1.04,0,2.08,0,3.12,0
	c-1.163-2.116-2.621-3.938-3.84-6c3.875,0.126,7.945,2.134,10.08,4.8c-0.059-1.301-0.385-2.335-0.24-3.84
	c1.536,0.545,2.016,2.145,2.64,3.6c-0.028,0.932-0.707,1.213-1.199,1.681c1.603,0.565,3.106-0.62,4.8-0.72
	c-1.057-2.545-2.259-4.941-2.88-7.92c0.08,0,0.16,0,0.24,0c3.327,1.332,12.846,8.139,5.76,11.039c0.348,1.253,0.75,2.449,1.2,3.601
	c1.469-3.091,3.953-5.167,6.96-6.72c-0.598,2.682-1.125,5.436-2.4,7.439c1.219,0.559,3.913,2.33,5.04,0.721
	c-0.319,0.016-1.442,0.422-1.92-0.48c-0.201-2.281,1.135-3.025,1.68-4.561c1.085,0.867,0.037,2.627,0.24,4.08
	c1.679-2.881,4.866-4.254,8.4-5.279c-0.85,2.35-2.174,4.227-3.36,6.24c1.135-0.096,2.003,0.076,2.88,0.239
	c-1.356,1.443-2.751,2.85-5.04,3.36c0.037,0.764,0.544,1.056,0.48,1.92c2.144-1.842,6.947-1.213,9.84-0.48
	c-2.383,2.455-5.779,5.05-10.08,4.801c-0.455,0.838-0.022,1.207,0.72,1.439c-1.854,0.546-2.441,2.359-2.64,4.561
	c1.197,0.077,0.718-1.522,1.68-1.68c2.268-0.188,3.89,0.27,5.28,0.959c-0.985,0.695-2.106,1.254-3.36,1.68
	c1.46,1.261,3.098,2.344,4.32,3.841c-3.062,0.782-11.428,1.542-10.08-2.88c-0.619-0.82-1.34-1.541-2.16-2.16
	c-1.441,2.318-3.473,4.047-5.04,6.24c0.424,2.578,0.985,4.898,1.44,7.439c0.426,2.383,1.438,5.637,0.96,7.92
	c-0.752,3.588-7.047,5.748-7.2,11.04c-0.049,1.702,1.143,2.776,0.96,4.32c-0.259,2.19-2.678,3.411-3.36,5.76
	c0.491,2.47,1.252,4.669,1.92,6.96c6.128,3.473,12.322,6.879,18.721,10.08c0.668,1.171,1.691,1.988,2.399,3.121
	c6.915,0.684,13.951,1.248,19.92,2.879c0.401-0.559,0.627-1.293,0.721-2.16c3.734,5.145,7.268,10.492,10.8,15.84
	C171.04,111.119,170.96,111.119,170.88,111.119z M116.88,12.959c0-0.56,0-1.119,0-1.68c-0.562-0.328-2.577-0.449-3.12,0
	C114.636,12.004,114.87,13.369,116.88,12.959z M113.28,17.279c0.157-0.322,0.513-0.447,0.96-0.48c-0.436-1.168-2.483-1.99-3.36-1.92
	C111.927,15.434,112.348,16.612,113.28,17.279z M124.08,18.959c1.065,0.455,1.09,1.951,2.399,2.16
	c0.325-0.075,0.459-0.342,0.961-0.24c0.132-0.747,0.195-1.563,0.479-2.159C126.418,18.486,125.16,18.924,124.08,18.959z
	 M129.6,26.879c1.519,0.319,1.122-1.277,2.641-0.959c0.036-0.764,0.544-1.057,0.479-1.92
	C130.633,22.584,129.892,25.083,129.6,26.879z M121.68,25.68c-1.219,1.581-2.86,2.738-4.08,4.32c1.381,1.66,3.117,2.963,4.32,4.799
	c2.026-1.254,3.411-3.148,5.04-4.799C125.799,27.961,123.771,26.789,121.68,25.68z M75.12,60.24c-0.643-0.559-1.125-1.275-1.44-2.16
	c-0.669,0.211-1.46,0.299-1.92,0.719C73.059,58.946,74.193,60.52,75.12,60.24z M72.96,68.16c0.651-0.149,1.904,0.305,2.16-0.24
	c-0.578-0.463-0.797-1.283-1.44-1.68C73.574,66.996,72.493,67.572,72.96,68.16z M68.4,76.56c0.168,1.048-0.408,1.352-0.24,2.399
	c1.306-0.812,2.597-0.635,4.08,0c-0.059-0.98,0.233-2.312-0.48-2.64C70.895,77.2,69.569,76.957,68.4,76.56z M27.6,82.08
	c0.332-0.709,1.108-0.973,1.44-1.681c-1.225,0.177-3.086-0.263-3.6,0C26.207,80.912,26.87,81.529,27.6,82.08z M22.56,88.56
	c1.068-0.933,2.635-1.365,3.601-2.399c-1.239-0.281-2.262-0.779-3.36-1.201C22.938,86.225,22.077,87.747,22.56,88.56z"/>
</svg>
