<?xml version="1.0" encoding="utf-8"?>
<!-- Generator: Adobe Illustrator 14.0.0, SVG Export Plug-In . SVG Version: 6.00 Build 43363)  -->
<!DOCTYPE svg PUBLIC "-//W3C//DTD SVG 1.1//EN" "http://www.w3.org/Graphics/SVG/1.1/DTD/svg11.dtd">
<svg version="1.1" xmlns="http://www.w3.org/2000/svg" xmlns:xlink="http://www.w3.org/1999/xlink" x="0px" y="0px" width="100px"
	 height="192.5px" viewBox="0 0 100 192.5" enable-background="new 0 0 100 192.5" xml:space="preserve">
<g id="Layer_2" display="none">
	<ellipse display="inline" fill="#0030DD" cx="38" cy="187.5" rx="138.5" ry="249"/>
</g>
<g id="Layer_1">
	<g id="XMLID_6_" opacity="0.7">
		<g>
			<path fill="#FFFFFF" d="M92.975,13.554c0.506-0.115,0.315-0.115,0.821,0c0,0.164,0,0.328,0,0.493
				C93.479,14.367,92.791,14.219,92.975,13.554z"/>
			<path fill="#FFFFFF" d="M91.333,27.678c0.226,0.21,0.226,0.775,0,0.986c-0.799,0.077-0.935-0.687-0.493-0.986
				C91.004,27.678,91.168,27.678,91.333,27.678z"/>
			<path opacity="0.5" fill="#FFFFFF" d="M91.004,68.904c0.076,0.516-0.143,0.732-0.656,0.658c0.021-0.295-0.201-0.348-0.164-0.658
				C90.398,68.695,90.789,68.695,91.004,68.904z"/>
			<path opacity="0.5" fill="#FFFFFF" d="M87.391,96.825c0.381-0.053,0.631,0.028,0.821,0.164c-0.021,0.417-0.239,0.637-0.657,0.659
				C87.417,97.456,87.338,97.206,87.391,96.825z"/>
			<path opacity="0.5" fill="#FFFFFF" d="M82.792,68.904c0.417,0.02,0.638,0.24,0.657,0.658c-0.146,0.126-0.371,0.178-0.657,0.163
				C82.582,69.511,82.582,69.121,82.792,68.904z"/>
			<path opacity="0.5" fill="#FFFFFF" d="M78.193,59.706c0.017-0.416,0.611-0.386,0.82-0.165
				C78.811,60.044,78.535,60.065,78.193,59.706z"/>
			<path fill="#FFFFFF" d="M76.059,42.789c-0.564,0.128-0.785-0.09-0.656-0.657c0.218,0,0.438,0,0.656,0
				C76.059,42.351,76.059,42.572,76.059,42.789z"/>
			<path fill="#FFFFFF" d="M73.923,7.805c0.601-0.529,0.864-0.424,1.644-0.163c-0.312,0.181-0.578,0.407-0.985,0.491
				C74.539,7.844,74.297,7.759,73.923,7.805z"/>
			<path opacity="0.5" fill="#FFFFFF" d="M71.623,70.382c0.245-0.261,0.938-0.24,0.82,0.329C72.2,70.971,71.509,70.95,71.623,70.382
				z"/>
			<path opacity="0.5" fill="#FFFFFF" d="M69.816,57.407c0.076,0.514-0.144,0.732-0.657,0.657
				C68.648,57.61,69.363,56.896,69.816,57.407z"/>
			<path fill="#FFFFFF" d="M66.203,55.273c0-0.164,0-0.33,0-0.494c0.344-0.069,0.436,0.113,0.656,0.164
				C66.82,55.232,66.578,55.317,66.203,55.273z"/>
			<path opacity="0.5" fill="#FFFFFF" d="M66.039,64.469c0.432-0.046,0.706,0.062,0.656,0.493
				C66.389,65.284,65.904,65.057,66.039,64.469z"/>
			<path fill="#FFFFFF" d="M65.875,27.35c-0.068-0.343,0.113-0.436,0.164-0.655c0.289,0.038,0.374,0.281,0.328,0.655
				C66.203,27.35,66.039,27.35,65.875,27.35z"/>
			<path fill="#FFFFFF" d="M64.396,4.685C62.643,4.847,64.594,2.896,64.396,4.685L64.396,4.685z"/>
			<path fill="#FFFFFF" d="M62.262,49.852c0.239,0.145,0.521,0.246,0.492,0.657C62.236,50.936,61.677,50.173,62.262,49.852z"/>
			<path opacity="0.5" fill="#FFFFFF" d="M61.111,85.985c-0.43,0.048-0.707-0.061-0.656-0.491c0.215-0.212,0.605-0.212,0.82,0
				C61.188,85.624,61.105,85.758,61.111,85.985z"/>
			<path fill="#FFFFFF" d="M58.154,49.194c0.246-0.259,0.938-0.24,0.822,0.329C58.73,49.784,58.04,49.763,58.154,49.194z"/>
			<path opacity="0.5" fill="#FFFFFF" d="M56.514,86.313c0.569-0.498,0.943-0.504,1.643-0.164
				C57.797,86.746,57.059,86.685,56.514,86.313z"/>
			<path fill="#FFFFFF" d="M57.498,27.186c-0.326,0.002-0.208,0.449-0.656,0.329c-0.072-0.146-0.145-0.294-0.328-0.329
				C56.48,26.381,57.529,26.381,57.498,27.186z"/>
			<path opacity="0.5" fill="#FFFFFF" d="M54.706,95.349c0.431-0.046,0.706,0.059,0.657,0.493
				C54.9,96.007,54.663,96.027,54.706,95.349z"/>
			<path fill="#FFFFFF" d="M53.557,0.25c0.008,0.21,0.211,0.227,0.164,0.493c-0.365,0.423-1.388,0.015-0.82-0.493
				C53.118,0.25,53.338,0.25,53.557,0.25z"/>
			<path fill="#FFFFFF" d="M53.393,15.36C51.639,15.523,53.59,13.572,53.393,15.36L53.393,15.36z"/>
			<path opacity="0.5" fill="#FFFFFF" d="M49.45,80.401c0.431-0.046,0.706,0.061,0.657,0.493c-0.215,0.212-0.606,0.212-0.821,0
				C49.373,80.762,49.457,80.627,49.45,80.401z"/>
			<path opacity="0.5" fill="#FFFFFF" d="M45.509,74.49c0,0.217,0,0.437,0,0.655c-0.431,0.046-0.707-0.059-0.657-0.491
				C44.998,74.524,45.223,74.477,45.509,74.49z"/>
			<path fill="#FFFFFF" d="M37.625,29.978c0.317-0.319,1.005-0.173,0.821,0.493C37.971,30.674,37.697,30.554,37.625,29.978z"/>
			<path fill="#FFFFFF" d="M34.997,32.77c-0.03,0.14,0.064,0.156,0.164,0.164c0,0.11,0,0.219,0,0.329
				c-0.14-0.029-0.154,0.066-0.164,0.164c-0.11,0-0.219,0-0.329,0c0.03-0.139-0.064-0.152-0.164-0.164c0-0.11,0-0.218,0-0.329
				c0.14,0.03,0.154-0.062,0.164-0.164C34.778,32.77,34.887,32.77,34.997,32.77z"/>
			<path opacity="0.5" fill="#FFFFFF" d="M30.398,63.978c0.204,0.475,0.084,0.747-0.493,0.819c-0.241-0.386-0.346-0.304-0.164-0.819
				C29.959,63.978,30.18,63.978,30.398,63.978z"/>
			<path fill="#FFFFFF" d="M28.263,11.418c-0.431,0.046-0.707-0.059-0.657-0.493c0.215-0.21,0.606-0.21,0.821,0
				C28.34,11.057,28.256,11.192,28.263,11.418z"/>
			<path opacity="0.5" fill="#FFFFFF" d="M27.277,79.251c0.14,0.03,0.155-0.064,0.165-0.164c0.11,0,0.218,0,0.328,0
				c-0.029,0.141,0.064,0.154,0.165,0.164c0,0.112,0,0.218,0,0.329c-0.14-0.03-0.154,0.064-0.165,0.164c-0.11,0-0.218,0-0.328,0
				c0.029-0.14-0.064-0.154-0.165-0.164C27.277,79.469,27.277,79.363,27.277,79.251z"/>
			<path fill="#FFFFFF" d="M25.471,51.824c-0.21-0.215-0.21-0.607,0-0.823c0.165,0,0.329,0,0.493,0
				C25.997,51.473,25.983,51.898,25.471,51.824z"/>
			<path opacity="0.5" fill="#FFFFFF" d="M21.365,81.88c-0.327,0.002-0.208,0.449-0.657,0.327c-0.072-0.146-0.145-0.294-0.329-0.327
				C20.348,81.076,21.396,81.076,21.365,81.88z"/>
			<path fill="#FFFFFF" d="M19.065,45.747c-0.343,0.067-0.436-0.113-0.657-0.166c-0.021-0.294,0.201-0.345,0.165-0.657
				C18.913,45.024,19.195,45.179,19.065,45.747z"/>
			<path fill="#FFFFFF" d="M18.08,22.26c0.568-0.117,0.589,0.575,0.328,0.819C18.075,22.96,17.738,22.585,18.08,22.26z"/>
			<path fill="#FFFFFF" d="M17.587,30.306c-0.029,0.14,0.064,0.155,0.165,0.165c0,0.11,0,0.22,0,0.329
				c-0.14-0.03-0.154,0.064-0.165,0.164c-0.11,0-0.218,0-0.328,0c0.029-0.14-0.064-0.154-0.165-0.164c0-0.108,0-0.219,0-0.329
				c0.14,0.029,0.155-0.064,0.165-0.165C17.369,30.306,17.477,30.306,17.587,30.306z"/>
			<path fill="#FFFFFF" d="M13.646,28.171c0,0.164,0,0.328,0,0.493c-0.343,0.069-0.436-0.113-0.657-0.165
				C13.028,28.21,13.271,28.125,13.646,28.171z"/>
			<path fill="#FFFFFF" d="M13.152,23.244c-0.069-0.343,0.114-0.435,0.165-0.657c0.494-0.164,0.291,0.366,0.329,0.657
				C13.481,23.244,13.317,23.244,13.152,23.244z"/>
			<path fill="#FFFFFF" d="M10.032,32.113c0.069,0.343-0.113,0.435-0.164,0.657c-0.432,0.049-0.539-0.227-0.493-0.657
				C9.593,32.113,9.813,32.113,10.032,32.113z"/>
			<path opacity="0.5" fill="#FFFFFF" d="M6.418,78.758c0.431-0.046,0.707,0.061,0.657,0.493
				C6.769,79.573,6.284,79.346,6.418,78.758z"/>
			<path fill="#FFFFFF" d="M5.762,8.462c0.029-0.138-0.064-0.154-0.165-0.164c0-0.11,0-0.219,0-0.329
				c0.14,0.03,0.155-0.063,0.165-0.164c0.11,0,0.218,0,0.329,0c-0.03,0.14,0.064,0.154,0.164,0.164c0,0.11,0,0.218,0,0.329
				C6.115,8.27,6.1,8.362,6.09,8.462C5.98,8.462,5.872,8.462,5.762,8.462z"/>
			<path opacity="0.5" fill="#FFFFFF" d="M87.555,97.648c0.418-0.021,0.639-0.242,0.657-0.659c-0.19-0.136-0.44-0.217-0.821-0.164
				C87.338,97.206,87.417,97.456,87.555,97.648z M78.193,59.706c0.342,0.359,0.617,0.338,0.82-0.165
				C78.807,59.32,78.21,59.291,78.193,59.706z M82.792,69.725c0.286,0.015,0.511-0.036,0.657-0.163
				c-0.021-0.418-0.24-0.639-0.657-0.658C82.582,69.121,82.582,69.511,82.792,69.725z M72.443,70.71
				c0.115-0.568-0.575-0.59-0.82-0.329C71.509,70.95,72.2,70.971,72.443,70.71z M73.923,7.805c0.374-0.046,0.616,0.039,0.657,0.328
				c0.408-0.083,0.675-0.31,0.984-0.491C74.787,7.381,74.523,7.276,73.923,7.805z M58.977,49.523
				c0.115-0.568-0.576-0.588-0.82-0.329C58.04,49.763,58.73,49.784,58.977,49.523z M25.471,51.824
				c0.513,0.074,0.526-0.351,0.493-0.823c-0.164,0-0.328,0-0.493,0C25.261,51.216,25.261,51.609,25.471,51.824z M12.988,28.5
				c0.222,0.051,0.314,0.233,0.657,0.165c0-0.165,0-0.329,0-0.493C13.271,28.125,13.028,28.21,12.988,28.5z M13.317,22.587
				c-0.051,0.222-0.233,0.313-0.165,0.657c0.165,0,0.329,0,0.493,0C13.607,22.953,13.811,22.423,13.317,22.587z M56.514,86.313
				c0.545,0.371,1.283,0.432,1.643-0.164C57.457,85.809,57.083,85.816,56.514,86.313z M27.277,79.251c0,0.112,0,0.218,0,0.329
				c0.101,0.01,0.194,0.024,0.165,0.164c0.11,0,0.218,0,0.328,0c0.01-0.1,0.025-0.194,0.165-0.164c0-0.11,0-0.217,0-0.329
				c-0.1-0.01-0.194-0.023-0.165-0.164c-0.11,0-0.218,0-0.328,0C27.432,79.187,27.417,79.281,27.277,79.251z M17.751,30.799
				c0-0.108,0-0.219,0-0.329c-0.1-0.01-0.194-0.025-0.165-0.165c-0.11,0-0.218,0-0.328,0c-0.01,0.101-0.025,0.194-0.165,0.165
				c0,0.11,0,0.22,0,0.329c0.101,0.01,0.194,0.024,0.165,0.164c0.11,0,0.218,0,0.328,0C17.597,30.863,17.612,30.77,17.751,30.799z
				 M18.408,23.08c0.261-0.245,0.24-0.936-0.328-0.819C17.738,22.585,18.075,22.96,18.408,23.08z M66.203,55.273
				c0.375,0.044,0.617-0.041,0.656-0.33c-0.221-0.051-0.312-0.233-0.656-0.164C66.203,54.943,66.203,55.109,66.203,55.273z
				 M65.875,27.35c0.164,0,0.328,0,0.492,0c0.046-0.375-0.039-0.618-0.328-0.655C65.988,26.915,65.807,27.007,65.875,27.35z
				 M6.09,8.462c0.01-0.1,0.024-0.192,0.164-0.164c0-0.11,0-0.219,0-0.329c-0.1-0.01-0.194-0.024-0.164-0.164
				c-0.11,0-0.219,0-0.329,0c-0.01,0.1-0.025,0.194-0.165,0.164c0,0.11,0,0.218,0,0.329c0.101,0.01,0.194,0.026,0.165,0.164
				C5.872,8.462,5.98,8.462,6.09,8.462z M4.283,48.209c0,0.112,0,0.22,0,0.329c0.101,0.01,0.194,0.024,0.165,0.164
				c0.11,0,0.218,0,0.329,0c0.01-0.1,0.024-0.194,0.164-0.164c0-0.108,0-0.217,0-0.329c-0.1-0.01-0.194-0.025-0.164-0.165
				c-0.11,0-0.219,0-0.329,0C4.438,48.145,4.423,48.238,4.283,48.209z M29.741,63.978c-0.182,0.516-0.077,0.434,0.164,0.819
				c0.577-0.072,0.697-0.345,0.493-0.819C30.18,63.978,29.959,63.978,29.741,63.978z M53.721,0.743 M37.625,29.978
				c0.072,0.576,0.346,0.696,0.821,0.493C38.63,29.805,37.942,29.659,37.625,29.978z M34.504,33.263
				c0.1,0.012,0.194,0.025,0.164,0.164c0.11,0,0.218,0,0.329,0c0.01-0.098,0.024-0.193,0.164-0.164c0-0.11,0-0.218,0-0.329
				c-0.1-0.008-0.194-0.024-0.164-0.164c-0.11,0-0.219,0-0.329,0c-0.01,0.102-0.024,0.194-0.164,0.164
				C34.504,33.044,34.504,33.153,34.504,33.263z M49.286,80.894c0.215,0.212,0.606,0.212,0.821,0
				c0.049-0.432-0.228-0.539-0.657-0.493C49.457,80.627,49.373,80.762,49.286,80.894z M20.708,82.208
				c0.448,0.122,0.33-0.325,0.657-0.327c0.031-0.805-1.017-0.805-0.985,0C20.563,81.914,20.636,82.061,20.708,82.208z
				 M69.159,58.063c0.515,0.076,0.733-0.143,0.657-0.657C69.363,56.896,68.648,57.61,69.159,58.063z M18.408,45.581
				c0.222,0.053,0.314,0.233,0.657,0.166c0.13-0.568-0.153-0.723-0.493-0.823C18.609,45.236,18.387,45.287,18.408,45.581z
				 M56.842,27.514c0.448,0.12,0.33-0.327,0.656-0.329c0.031-0.805-1.018-0.805-0.984,0C56.697,27.22,56.77,27.368,56.842,27.514z
				 M91.333,28.664c0.226-0.21,0.226-0.775,0-0.986c-0.165,0-0.329,0-0.493,0C90.398,27.978,90.534,28.741,91.333,28.664z
				 M64.396,4.685C64.594,2.896,62.643,4.847,64.396,4.685L64.396,4.685z M53.393,15.36C53.59,13.572,51.639,15.523,53.393,15.36
				L53.393,15.36z M28.263,11.418c-0.007-0.227,0.077-0.361,0.164-0.493c-0.215-0.21-0.606-0.21-0.821,0
				C27.557,11.359,27.833,11.464,28.263,11.418z M9.868,32.77c0.051-0.222,0.233-0.313,0.164-0.657c-0.218,0-0.438,0-0.657,0
				C9.329,32.543,9.436,32.819,9.868,32.77z M90.348,69.562c0.514,0.074,0.732-0.143,0.656-0.658c-0.215-0.209-0.605-0.209-0.82,0
				C90.146,69.214,90.368,69.267,90.348,69.562z M76.059,42.789c0-0.217,0-0.438,0-0.657c-0.219,0-0.438,0-0.656,0
				C75.271,42.699,75.493,42.917,76.059,42.789z M66.695,64.962c0.05-0.432-0.227-0.539-0.656-0.493
				C65.904,65.057,66.389,65.284,66.695,64.962z M62.754,50.508c0.028-0.411-0.253-0.512-0.492-0.657
				C61.677,50.173,62.236,50.936,62.754,50.508z M61.111,85.985c-0.006-0.227,0.076-0.361,0.164-0.491
				c-0.215-0.212-0.605-0.212-0.82,0C60.404,85.924,60.682,86.033,61.111,85.985z M55.363,95.841
				c0.049-0.434-0.227-0.539-0.657-0.493C54.663,96.027,54.9,96.007,55.363,95.841z M45.509,75.145c0-0.219,0-0.438,0-0.655
				c-0.286-0.013-0.511,0.034-0.657,0.164C44.802,75.086,45.078,75.191,45.509,75.145z M7.076,79.251
				c0.049-0.432-0.227-0.539-0.657-0.493C6.284,79.346,6.769,79.573,7.076,79.251z"/>
			<path fill="#FFFFFF" d="M4.283,48.209c0.14,0.029,0.155-0.064,0.165-0.165c0.11,0,0.218,0,0.329,0
				c-0.03,0.14,0.064,0.155,0.164,0.165c0,0.112,0,0.22,0,0.329c-0.14-0.03-0.154,0.064-0.164,0.164c-0.11,0-0.219,0-0.329,0
				c0.029-0.14-0.064-0.154-0.165-0.164C4.283,48.429,4.283,48.321,4.283,48.209z"/>
		</g>
	</g>
	<g id="XMLID_1_" opacity="0.3">
		<g>
			<path opacity="0.5" fill="#FFFFFF" d="M5.283,102.047c0-0.165,0-0.329,0-0.493c0.506-0.115,0.315-0.115,0.821,0
				C6.288,102.219,5.601,102.367,5.283,102.047z"/>
			<path fill="#FFFFFF" d="M8.239,115.678c0.441,0.299,0.306,1.063-0.493,0.986c-0.226-0.211-0.226-0.776,0-0.986
				C7.911,115.678,8.075,115.678,8.239,115.678z"/>
			<path fill="#FFFFFF" d="M8.896,156.904c0.037,0.31-0.185,0.363-0.164,0.658c-0.514,0.073-0.732-0.143-0.656-0.658
				C8.29,156.695,8.681,156.695,8.896,156.904z"/>
			<path fill="#FFFFFF" d="M11.524,185.648c-0.418-0.022-0.637-0.242-0.657-0.659c0.19-0.136,0.44-0.218,0.821-0.164
				C11.741,185.206,11.662,185.456,11.524,185.648z"/>
			<path fill="#FFFFFF" d="M16.287,157.725c-0.286,0.016-0.511-0.037-0.657-0.162c0.02-0.418,0.24-0.639,0.657-0.658
				C16.497,157.121,16.497,157.511,16.287,157.725z"/>
			<path fill="#FFFFFF" d="M20.065,147.541c0.209-0.221,0.804-0.251,0.82,0.165C20.544,148.064,20.269,148.044,20.065,147.541z"/>
			<path fill="#FFFFFF" d="M23.021,130.132c0.219,0,0.438,0,0.656,0c0.129,0.567-0.092,0.785-0.656,0.657
				C23.021,130.572,23.021,130.351,23.021,130.132z"/>
			<path opacity="0.5" fill="#FFFFFF" d="M24.498,96.133c-0.407-0.084-0.674-0.31-0.985-0.491c0.779-0.261,1.043-0.366,1.644,0.163
				C24.782,95.759,24.54,95.844,24.498,96.133z"/>
			<path fill="#FFFFFF" d="M26.636,158.711c-0.117-0.568,0.575-0.59,0.82-0.329C27.57,158.95,26.879,158.971,26.636,158.711z"/>
			<path fill="#FFFFFF" d="M29.92,146.064c-0.514,0.074-0.733-0.144-0.657-0.657C29.716,144.896,30.431,145.609,29.92,146.064z"/>
			<path fill="#FFFFFF" d="M32.22,142.943c0.221-0.051,0.312-0.233,0.656-0.164c0,0.164,0,0.33,0,0.494
				C32.501,143.317,32.259,143.232,32.22,142.943z"/>
			<path fill="#FFFFFF" d="M32.384,152.962c-0.05-0.432,0.225-0.539,0.656-0.493C33.175,153.057,32.69,153.284,32.384,152.962z"/>
			<path fill="#FFFFFF" d="M32.712,115.35c-0.046-0.374,0.039-0.617,0.328-0.655c0.051,0.219,0.232,0.312,0.164,0.655
				C33.04,115.35,32.876,115.35,32.712,115.35z"/>
			<path opacity="0.5" fill="#FFFFFF" d="M34.683,92.685C34.485,90.896,36.437,92.847,34.683,92.685L34.683,92.685z"/>
			<path fill="#FFFFFF" d="M36.325,138.509c-0.029-0.411,0.253-0.512,0.492-0.657C37.402,138.173,36.843,138.936,36.325,138.509z"/>
			<path fill="#FFFFFF" d="M37.804,173.494c0.215-0.212,0.605-0.212,0.82,0c0.051,0.43-0.227,0.539-0.656,0.49
				C37.974,173.758,37.892,173.624,37.804,173.494z"/>
			<path fill="#FFFFFF" d="M40.103,137.523c-0.115-0.569,0.576-0.588,0.822-0.329C41.039,137.763,40.349,137.784,40.103,137.523z"/>
			<path fill="#FFFFFF" d="M40.923,174.148c0.699-0.34,1.073-0.334,1.643,0.164C42.021,174.686,41.282,174.746,40.923,174.148z"/>
			<path fill="#FFFFFF" d="M42.565,115.186c-0.184,0.035-0.256,0.183-0.328,0.329c-0.448,0.12-0.33-0.327-0.656-0.329
				C41.55,114.381,42.599,114.381,42.565,115.186z"/>
			<path fill="#FFFFFF" d="M43.716,183.842c-0.049-0.434,0.227-0.539,0.657-0.492C44.416,184.027,44.179,184.007,43.716,183.842z"/>
			<path opacity="0.5" fill="#FFFFFF" d="M46.179,88.25c0.567,0.508-0.455,0.916-0.82,0.493c-0.047-0.266,0.156-0.283,0.164-0.493
				C45.741,88.25,45.961,88.25,46.179,88.25z"/>
			<path opacity="0.5" fill="#FFFFFF" d="M45.687,103.36C45.489,101.572,47.44,103.523,45.687,103.36L45.687,103.36z"/>
			<path fill="#FFFFFF" d="M49.793,168.895c-0.215,0.211-0.606,0.211-0.821,0c-0.049-0.433,0.227-0.539,0.657-0.494
				C49.622,168.627,49.706,168.762,49.793,168.895z"/>
			<path fill="#FFFFFF" d="M54.228,162.654c0.05,0.432-0.227,0.537-0.657,0.49c0-0.218,0-0.438,0-0.654
				C53.856,162.477,54.081,162.523,54.228,162.654z"/>
			<path fill="#FFFFFF" d="M60.633,118.471c-0.184-0.666,0.504-0.812,0.821-0.493C61.383,118.554,61.107,118.674,60.633,118.471z"/>
			<path fill="#FFFFFF" d="M64.411,120.77c0.01,0.102,0.024,0.194,0.164,0.164c0,0.111,0,0.219,0,0.329
				c-0.101,0.012-0.194,0.025-0.164,0.164c-0.11,0-0.22,0-0.329,0c-0.01-0.098-0.023-0.193-0.164-0.164c0-0.11,0-0.219,0-0.329
				c0.1-0.008,0.194-0.024,0.164-0.164C64.191,120.77,64.301,120.77,64.411,120.77z"/>
			<path fill="#FFFFFF" d="M69.338,151.979c0.182,0.515,0.077,0.433-0.164,0.818c-0.576-0.072-0.697-0.344-0.492-0.818
				C68.898,151.979,69.12,151.979,69.338,151.979z"/>
			<path opacity="0.5" fill="#FFFFFF" d="M70.652,98.925c0.215-0.21,0.605-0.21,0.82,0c0.051,0.434-0.226,0.539-0.656,0.493
				C70.823,99.192,70.739,99.057,70.652,98.925z"/>
			<path fill="#FFFFFF" d="M71.803,167.58c-0.102,0.01-0.195,0.023-0.166,0.164c-0.109,0-0.218,0-0.328,0
				c-0.01-0.1-0.024-0.194-0.164-0.164c0-0.111,0-0.217,0-0.329c0.101-0.01,0.193-0.022,0.164-0.164c0.11,0,0.219,0,0.328,0
				c0.01,0.101,0.025,0.194,0.166,0.164C71.803,167.363,71.803,167.469,71.803,167.58z"/>
			<path fill="#FFFFFF" d="M73.115,139.001c0.164,0,0.328,0,0.492,0c0.211,0.216,0.211,0.608,0,0.823
				C73.096,139.898,73.082,139.473,73.115,139.001z"/>
			<path fill="#FFFFFF" d="M78.7,169.88c-0.185,0.033-0.257,0.181-0.329,0.327c-0.449,0.122-0.33-0.325-0.657-0.327
				C77.684,169.076,78.73,169.076,78.7,169.88z"/>
			<path fill="#FFFFFF" d="M80.506,132.924c-0.035,0.312,0.186,0.363,0.165,0.657c-0.221,0.053-0.313,0.233-0.657,0.166
				C79.885,133.179,80.166,133.024,80.506,132.924z"/>
			<path fill="#FFFFFF" d="M80.671,111.079c-0.261-0.244-0.239-0.936,0.328-0.819C81.342,110.585,81.004,110.96,80.671,111.079z"/>
			<path fill="#FFFFFF" d="M81.82,118.306c0.01,0.101,0.025,0.194,0.164,0.165c0,0.11,0,0.221,0,0.329
				c-0.1,0.01-0.193,0.024-0.164,0.164c-0.11,0-0.219,0-0.328,0c-0.012-0.1-0.025-0.194-0.165-0.164c0-0.109,0-0.219,0-0.329
				c0.101-0.01,0.194-0.025,0.165-0.165C81.602,118.306,81.71,118.306,81.82,118.306z"/>
			<path fill="#FFFFFF" d="M86.09,116.499c-0.221,0.052-0.314,0.234-0.656,0.165c0-0.165,0-0.329,0-0.493
				C85.809,116.125,86.051,116.21,86.09,116.499z"/>
			<path fill="#FFFFFF" d="M85.434,111.244c0.037-0.291-0.166-0.821,0.328-0.657c0.051,0.222,0.234,0.314,0.166,0.657
				C85.762,111.244,85.598,111.244,85.434,111.244z"/>
			<path fill="#FFFFFF" d="M89.704,120.113c0.046,0.43-0.062,0.706-0.493,0.657c-0.051-0.222-0.232-0.314-0.164-0.657
				C89.266,120.113,89.486,120.113,89.704,120.113z"/>
			<path fill="#FFFFFF" d="M92.004,167.251c-0.05-0.433,0.227-0.539,0.657-0.493C92.795,167.346,92.311,167.573,92.004,167.251z"/>
			<path opacity="0.5" fill="#FFFFFF" d="M92.989,96.462c-0.011-0.1-0.025-0.192-0.165-0.164c0-0.111,0-0.219,0-0.329
				c0.1-0.01,0.193-0.024,0.164-0.164c0.111,0,0.219,0,0.328,0c0.011,0.1,0.025,0.194,0.166,0.164c0,0.11,0,0.219,0,0.329
				c-0.102,0.01-0.194,0.026-0.166,0.164C93.207,96.462,93.1,96.462,92.989,96.462z"/>
			<path opacity="0.5" fill="#FFFFFF" d="M11.688,184.825c-0.381-0.054-0.631,0.028-0.821,0.164
				c0.019,0.417,0.239,0.638,0.657,0.659C11.662,185.456,11.741,185.206,11.688,184.825z M20.065,147.541
				c0.203,0.503,0.479,0.523,0.82,0.165C20.869,147.291,20.272,147.32,20.065,147.541z M16.287,156.904
				c-0.417,0.019-0.636,0.24-0.657,0.658c0.146,0.127,0.371,0.178,0.657,0.162C16.497,157.511,16.497,157.121,16.287,156.904z
				 M27.456,158.381c-0.245-0.261-0.936-0.238-0.82,0.329C26.879,158.971,27.57,158.95,27.456,158.381z M23.515,95.642
				c0.31,0.181,0.576,0.408,0.984,0.491c0.041-0.289,0.283-0.374,0.657-0.328C24.556,95.276,24.292,95.381,23.515,95.642z
				 M40.923,137.194c-0.244-0.259-0.936-0.239-0.82,0.329C40.349,137.784,41.039,137.763,40.923,137.194z M73.607,139.001
				c-0.164,0-0.328,0-0.492,0c-0.033,0.472-0.02,0.897,0.492,0.823C73.818,139.609,73.818,139.216,73.607,139.001z M85.434,116.172
				c0,0.164,0,0.328,0,0.493c0.344,0.068,0.436-0.114,0.658-0.165C86.051,116.21,85.809,116.125,85.434,116.172z M85.434,111.244
				c0.164,0,0.328,0,0.494,0c0.067-0.344-0.115-0.435-0.166-0.657C85.268,110.423,85.473,110.953,85.434,111.244z M40.923,174.148
				c0.359,0.597,1.098,0.535,1.643,0.164C41.996,173.816,41.622,173.809,40.923,174.148z M71.637,167.087c-0.109,0-0.218,0-0.328,0
				c0.029,0.142-0.064,0.154-0.164,0.164c0,0.112,0,0.219,0,0.329c0.14-0.03,0.154,0.064,0.164,0.164c0.11,0,0.219,0,0.328,0
				c-0.029-0.141,0.064-0.154,0.166-0.164c0-0.111,0-0.217,0-0.329C71.662,167.281,71.646,167.188,71.637,167.087z M81.493,118.963
				c0.11,0,0.218,0,0.328,0c-0.029-0.14,0.063-0.154,0.165-0.164c0-0.109,0-0.219,0-0.329c-0.141,0.029-0.155-0.063-0.165-0.165
				c-0.11,0-0.218,0-0.328,0c0.028,0.14-0.065,0.155-0.165,0.165c0,0.11,0,0.221,0,0.329
				C81.467,118.77,81.482,118.863,81.493,118.963z M80.999,110.261c-0.567-0.117-0.589,0.574-0.328,0.819
				C81.004,110.96,81.342,110.585,80.999,110.261z M32.876,142.779c-0.344-0.069-0.436,0.113-0.656,0.164
				c0.039,0.289,0.281,0.374,0.656,0.33C32.876,143.109,32.876,142.943,32.876,142.779z M33.04,114.695
				c-0.289,0.037-0.374,0.28-0.328,0.655c0.164,0,0.328,0,0.492,0C33.272,115.007,33.091,114.915,33.04,114.695z M93.318,96.462
				c-0.029-0.138,0.064-0.154,0.164-0.164c0-0.111,0-0.219,0-0.329c-0.139,0.03-0.154-0.063-0.164-0.164c-0.11,0-0.219,0-0.329,0
				c0.03,0.14-0.063,0.154-0.164,0.164c0,0.11,0,0.219,0,0.329c0.14-0.028,0.153,0.064,0.164,0.164
				C93.1,96.462,93.207,96.462,93.318,96.462z M94.631,136.044c-0.109,0-0.219,0-0.328,0c0.029,0.14-0.064,0.155-0.164,0.165
				c0,0.112,0,0.221,0,0.329c0.14-0.03,0.153,0.064,0.164,0.164c0.11,0,0.219,0,0.328,0c-0.029-0.14,0.064-0.154,0.165-0.164
				c0-0.109,0-0.217,0-0.329C94.656,136.238,94.641,136.145,94.631,136.044z M68.682,151.979c-0.205,0.474-0.084,0.746,0.492,0.818
				c0.241-0.385,0.346-0.303,0.164-0.818C69.12,151.979,68.898,151.979,68.682,151.979z M45.358,88.743 M60.633,118.471
				c0.475,0.203,0.75,0.083,0.821-0.493C61.137,117.659,60.449,117.805,60.633,118.471z M64.575,120.934
				c-0.14,0.03-0.154-0.062-0.164-0.164c-0.11,0-0.22,0-0.329,0c0.03,0.14-0.064,0.156-0.164,0.164c0,0.111,0,0.219,0,0.329
				c0.141-0.029,0.154,0.066,0.164,0.164c0.111,0,0.219,0,0.329,0c-0.03-0.139,0.063-0.152,0.164-0.164
				C64.575,121.153,64.575,121.044,64.575,120.934z M49.629,168.4c-0.43-0.045-0.706,0.062-0.657,0.494
				c0.215,0.211,0.606,0.211,0.821,0C49.706,168.762,49.622,168.627,49.629,168.4z M78.699,169.881c0.031-0.805-1.016-0.805-0.985,0
				c0.327,0.002,0.21,0.449,0.657,0.327C78.443,170.061,78.516,169.914,78.699,169.881z M29.263,145.406
				c-0.076,0.514,0.143,0.732,0.657,0.656C30.431,145.609,29.716,144.896,29.263,145.406z M80.508,132.924
				c-0.341,0.1-0.623,0.255-0.494,0.823c0.344,0.067,0.436-0.113,0.657-0.166C80.691,133.287,80.471,133.236,80.508,132.924z
				 M42.565,115.185c0.033-0.805-1.016-0.805-0.984,0c0.326,0.002,0.208,0.449,0.656,0.329
				C42.31,115.368,42.382,115.22,42.565,115.185z M8.239,115.678c-0.164,0-0.328,0-0.493,0c-0.226,0.211-0.226,0.776,0,0.986
				C8.545,116.741,8.681,115.978,8.239,115.678z M34.683,92.685C36.437,92.847,34.485,90.896,34.683,92.685L34.683,92.685z
				 M45.687,103.36C47.44,103.523,45.489,101.572,45.687,103.36L45.687,103.36z M71.473,98.925c-0.215-0.21-0.605-0.21-0.82,0
				c0.087,0.132,0.171,0.266,0.164,0.493C71.246,99.464,71.521,99.359,71.473,98.925z M89.704,120.113c-0.22,0-0.438,0-0.657,0
				c-0.068,0.344,0.113,0.435,0.164,0.657C89.643,120.819,89.75,120.543,89.704,120.113z M8.896,156.904
				c-0.215-0.209-0.605-0.209-0.82,0c-0.076,0.515,0.143,0.731,0.656,0.658C8.711,157.268,8.933,157.214,8.896,156.904z
				 M23.677,130.132c-0.218,0-0.438,0-0.656,0c0,0.219,0,0.44,0,0.657C23.586,130.917,23.808,130.699,23.677,130.132z
				 M33.04,152.469c-0.43-0.046-0.706,0.062-0.656,0.493C32.69,153.284,33.175,153.057,33.04,152.469z M36.817,137.851
				c-0.239,0.145-0.521,0.246-0.492,0.657C36.843,138.936,37.402,138.173,36.817,137.851z M38.624,173.494
				c-0.215-0.212-0.605-0.212-0.82,0c0.088,0.13,0.17,0.264,0.164,0.49C38.397,174.033,38.675,173.924,38.624,173.494z
				 M44.373,183.348c-0.431-0.046-0.706,0.06-0.657,0.493C44.179,184.007,44.416,184.027,44.373,183.348z M54.228,162.654
				c-0.146-0.131-0.371-0.178-0.657-0.164c0,0.217,0,0.436,0,0.654C54.001,163.191,54.277,163.086,54.228,162.654z M92.66,166.758
				c-0.43-0.046-0.706,0.061-0.657,0.493C92.311,167.573,92.795,167.346,92.66,166.758z"/>
			<path fill="#FFFFFF" d="M94.796,136.538c-0.101,0.01-0.194,0.024-0.165,0.164c-0.109,0-0.219,0-0.328,0
				c-0.011-0.1-0.024-0.194-0.164-0.164c0-0.109,0-0.217,0-0.329c0.1-0.01,0.193-0.025,0.164-0.165c0.11,0,0.219,0,0.328,0
				c0.01,0.101,0.025,0.194,0.165,0.165C94.796,136.321,94.796,136.429,94.796,136.538z"/>
		</g>
	</g>
</g>
</svg>
