<?xml version="1.0" encoding="utf-8"?>
<!-- Generator: Adobe Illustrator 14.0.0, SVG Export Plug-In  -->
<!DOCTYPE svg PUBLIC "-//W3C//DTD SVG 1.1//EN" "http://www.w3.org/Graphics/SVG/1.1/DTD/svg11.dtd" [
	<!ENTITY ns_flows "http://ns.adobe.com/Flows/1.0/">
]>
<svg version="1.1"
	 xmlns="http://www.w3.org/2000/svg" xmlns:xlink="http://www.w3.org/1999/xlink" xmlns:a="http://ns.adobe.com/AdobeSVGViewerExtensions/3.0/"
	 x="0px" y="0px" width="100px" height="100px" viewBox="0 0 100 100" enable-background="new 0 0 100 100" xml:space="preserve">
<defs>
</defs>
<rect width="100" height="100"/>
<polygon fill="#FFFFFF" points="51.191,14.565 48.665,11.69 44.849,11.986 46.818,8.877 45.218,5.457 48.964,6.409 51.792,4 
	52.137,7.698 55.482,9.63 51.951,10.963 "/>
<polygon fill="#FFFFFF" points="91.734,14.982 88.545,14.388 86.152,16.581 85.841,13.476 82.982,12.03 85.98,10.706 86.607,7.621 
	88.771,9.908 92.016,9.444 90.355,12.183 "/>
<text transform="matrix(1 0 0 1 7.3584 22.3135)" fill="#FFFFFF" font-family="'GillSans-ExtraBold'" font-size="7.6713">Bloomsburg</text>
<path fill="#FFFFFF" d="M10.003,27.043l-0.622,6.581c-0.648-0.121-1.321-0.064-2.02,0.17c-0.999,0.336-1.401,0.932-1.205,1.788
	c0.093,0.41,0.307,0.684,0.638,0.82c0.332,0.138,0.756,0.118,1.271-0.055c0.697-0.234,1.252-0.634,1.664-1.197l3.424,5.682
	c-0.438,0.714-1.016,1.362-1.734,1.941C10.7,43.354,9.98,43.766,9.26,44.008c-1.809,0.607-3.437,0.271-4.884-1.013
	c-1.447-1.284-2.445-3.125-2.993-5.525c-0.58-2.539-0.501-4.821,0.238-6.847c0.738-2.026,1.968-3.327,3.688-3.905
	c0.744-0.25,1.549-0.35,2.415-0.298C8.59,26.473,9.349,26.68,10.003,27.043z"/>
<path fill="#FFFFFF" d="M19.85,26.918l-0.979,7.82c0.848-1.195,1.801-1.695,2.86-1.501c0.978,0.18,1.69,0.797,2.137,1.851
	c0.446,1.053,0.563,2.427,0.352,4.119l-0.861,6.884L19.18,45.32l0.766-6.124c0.151-1.202-0.053-1.854-0.61-1.957
	c-0.254-0.047-0.529,0.093-0.829,0.418l-0.922,7.369l-4.43-0.815l2.267-18.109L19.85,26.918z"/>
<path fill="#FFFFFF" d="M29.902,30.513l1.44,14.346l-4.439,0.656l-1.441-14.348c0.64,0.462,1.427,0.624,2.36,0.486
	C28.689,31.526,29.383,31.146,29.902,30.513z M28.629,30.749c-0.346,0.051-0.663-0.111-0.954-0.487
	c-0.29-0.377-0.464-0.852-0.521-1.423c-0.058-0.572,0.018-1.079,0.227-1.521c0.208-0.441,0.484-0.688,0.83-0.739
	c0.345-0.051,0.66,0.108,0.944,0.478c0.285,0.369,0.457,0.839,0.514,1.411c0.058,0.572-0.015,1.083-0.218,1.532
	C29.248,30.449,28.974,30.698,28.629,30.749z"/>
<path fill="#FFFFFF" d="M36.621,45.5l-4.445-0.604l1.68-18.204l4.445,0.603L36.621,45.5z"/>
<path fill="#FFFFFF" d="M47.691,26.17l2.026,18.151l-5.271,0.867c-1.611,0.265-2.939-0.221-3.982-1.454
	c-1.043-1.234-1.682-2.897-1.916-4.991c-0.227-2.038-0.013-3.808,0.646-5.309c0.659-1.501,1.592-2.352,2.802-2.55
	c0.669-0.109,1.245-0.03,1.728,0.237l-0.471-4.223L47.691,26.17z M44.696,39.841l-0.359-3.224c-0.247-0.201-0.509-0.28-0.786-0.234
	c-0.263,0.044-0.462,0.252-0.595,0.625c-0.134,0.373-0.172,0.821-0.113,1.345c0.068,0.61,0.223,1.039,0.462,1.286
	c0.239,0.248,0.586,0.334,1.04,0.26L44.696,39.841z"/>
<path fill="#FFFFFF" d="M55.236,33.988c0.752-2.109,1.666-3.098,2.74-2.962c0.601,0.075,1.065,0.464,1.398,1.165
	c0.333,0.702,0.457,1.554,0.371,2.557c-0.09,1.051-0.354,1.877-0.79,2.478c-0.438,0.601-0.963,0.862-1.577,0.786
	c-0.699-0.088-1.264-0.602-1.688-1.54c-0.494,0.565-0.813,1.691-0.957,3.379l-0.459,5.361l-4.448-0.56l1.229-14.376l4.447,0.56
	L55.236,33.988z"/>
<path fill="#FFFFFF" d="M69.835,37.605l0.763,2.357c-0.271,2.416-1.262,4.03-2.973,4.845c-1.411,0.672-2.756,0.562-4.034-0.331
	s-2.261-2.399-2.946-4.522c-0.652-2.019-0.793-3.853-0.416-5.501c0.375-1.649,1.192-2.772,2.451-3.371
	c0.644-0.306,1.295-0.41,1.957-0.313c0.664,0.097,1.309,0.396,1.932,0.899c0.625,0.502,1.181,1.167,1.664,1.993
	c0.484,0.826,0.94,1.899,1.367,3.218l-4.25,2.023c0.373,0.612,0.803,1.027,1.289,1.243c0.482,0.216,0.957,0.214,1.42-0.006
	C68.992,39.695,69.585,38.852,69.835,37.605z M64.336,36.663l1.961-0.933c-0.234-0.662-0.504-1.138-0.809-1.428
	c-0.303-0.289-0.602-0.365-0.893-0.227c-0.258,0.123-0.422,0.409-0.492,0.859C64.032,35.388,64.109,35.963,64.336,36.663z"/>
<path fill="#FFFFFF" d="M76.391,30.754l-0.183,1.799c0.877-1.167,1.834-1.673,2.874-1.519c1.011,0.15,1.736,0.732,2.182,1.746
	c0.445,1.014,0.573,2.438,0.389,4.271l-0.902,8.912l-4.193-0.626l0.848-8.363c0.119-1.191-0.092-1.828-0.639-1.909
	c-0.265-0.039-0.545,0.076-0.846,0.346L74.938,45.1L70.5,44.437l1.453-14.345L76.391,30.754z"/>
<path fill="#FFFFFF" d="M82.738,37.909l-0.137-0.156c0.68-0.688,1.062-1.712,1.144-3.073c-1.283-0.632-1.927-1.908-1.927-3.829
	c0-1.176,0.236-2.171,0.709-2.982c0.475-0.812,1.054-1.219,1.738-1.219c0.693,0,1.266,0.407,1.711,1.219s0.67,1.854,0.67,3.127
	c0,1.601-0.371,3.072-1.114,4.417C84.789,36.758,83.857,37.589,82.738,37.909z"/>
<path fill="#FFFFFF" d="M87.857,44.693l0.389-4.208c0.404,0.611,0.85,1.061,1.333,1.349c0.483,0.289,0.935,0.388,1.346,0.297
	c0.257-0.056,0.448-0.195,0.574-0.418c0.126-0.223,0.167-0.483,0.123-0.783c-0.044-0.291-0.147-0.53-0.31-0.719
	c-0.164-0.188-0.545-0.354-1.146-0.5c-0.604-0.144-1.109-0.336-1.521-0.575c-0.406-0.24-0.777-0.646-1.109-1.215
	c-0.333-0.569-0.555-1.221-0.662-1.953c-0.211-1.418-0.008-2.599,0.607-3.543c0.617-0.943,1.588-1.561,2.914-1.851
	c1.49-0.326,2.824-0.199,4.004,0.38l-0.514,3.857c-0.848-0.88-1.594-1.25-2.238-1.108c-0.215,0.047-0.375,0.163-0.483,0.35
	c-0.108,0.188-0.146,0.402-0.108,0.646c0.043,0.292,0.146,0.528,0.313,0.712c0.167,0.183,0.562,0.333,1.182,0.448
	c0.632,0.114,1.161,0.287,1.597,0.517c0.435,0.231,0.812,0.636,1.137,1.216c0.324,0.579,0.547,1.275,0.668,2.086
	c0.218,1.465,0.031,2.698-0.557,3.701s-1.451,1.629-2.586,1.877C91.271,45.594,89.62,45.406,87.857,44.693z"/>
<text transform="matrix(1 0 0 1 57.8398 53.7158)" fill="#FFFFFF" font-family="'GillSans-ExtraBold'" font-size="7.6713">Museum</text>
<polygon fill="#FFFFFF" points="73.975,27.678 69.305,22.938 62.709,23.828 65.82,18.236 62.706,12.459 69.302,13.741 73.971,9.283 
	74.934,15.667 80.936,18.687 74.936,21.351 "/>
</svg>
