<?xml version="1.0" encoding="utf-8"?>
<!-- Generator: Adobe Illustrator 14.0.0, SVG Export Plug-In . SVG Version: 6.00 Build 43363)  -->
<!DOCTYPE svg PUBLIC "-//W3C//DTD SVG 1.1//EN" "http://www.w3.org/Graphics/SVG/1.1/DTD/svg11.dtd">
<svg version="1.1" id="Layer_1" xmlns="http://www.w3.org/2000/svg" xmlns:xlink="http://www.w3.org/1999/xlink" x="0px" y="0px"
	 width="100px" height="100px" viewBox="0 0 100 100" enable-background="new 0 0 100 100" xml:space="preserve">
<path fill="none" stroke="#FFFFFF" d="M61.23,63.395c0,11.358-9.426,15.397-21.056,15.397c-11.627,0-21.055-4.039-21.055-15.397
	c0-11.36,9.428-23.043,21.055-23.043C51.805,40.351,61.23,52.034,61.23,63.395z"/>
<ellipse fill="#FFFFFF" cx="32.937" cy="55.976" rx="1.989" ry="2.023"/>
<ellipse fill="#FFFFFF" cx="45.868" cy="53.952" rx="1.99" ry="2.024"/>
<path fill="none" stroke="#FFFFFF" d="M27.631,61.371c0,0,1.896,7.359,12.507,7.811c10.611,0.45,13.689-9.609,13.689-9.609"/>
<path fill="none" stroke="#FFFFFF" d="M17.139,30.476C5.42,45.28,0.758,29.838,13.401,26.738c-17.888,2.531-10.749-7.927,0-5.287
	c-11.769-4.662-4.193-15.871,3.738-3.74c-3.853-13.515,9.473-10.814,5.287,0c9.582-12.932,20.435-1.496,3.739,3.739
	c17.716-1.957,13.273,11.468,0,5.287c13.783,6.181,0.651,16.648-3.739,3.738C25.889,49.141,10.738,40.836,17.139,30.476z"/>
<ellipse fill="none" stroke="#FFFFFF" cx="19.817" cy="24.133" rx="6.738" ry="6.447"/>
<path fill="none" stroke="#FFFFFF" d="M90.438,39.514c-2.787,6.767-21.433,2.788-31.053-3.831
	c-9.62-6.618-8.789-13.438-4.642-19.467c5.917-8.602,15.625-3.305,19.229,3.743C79.9,31.54,94.137,30.527,90.438,39.514z"/>
<path fill="none" stroke="#FFFFFF" d="M60.434,25.657c-1.156,0.953-2.453,0.971-3.406-0.185c-0.952-1.154-0.944-2.734,0.211-3.688
	c1.154-0.954,1.47,0.361,2.423,1.516C60.613,24.456,61.587,24.705,60.434,25.657z"/>
<path fill="none" stroke="#FFFFFF" d="M78.762,34.759c0.016,0.831-0.436,1.917-1.268,1.935c-0.832,0.016-1.93-1.037-1.946-1.869
	c-0.019-0.831-0.159-1.502,0.673-1.52C77.052,33.287,78.743,33.927,78.762,34.759z"/>
<path fill="none" stroke="#FFFFFF" d="M69.93,25.88c-1.076-0.318-2.285-1.352-1.963-2.448c0.323-1.097,2.135-2.105,3.211-1.787
	c1.077,0.317,1.999,0.404,1.678,1.5C72.532,24.242,71.007,26.197,69.93,25.88z"/>
<ellipse transform="matrix(-0.9998 0.0205 -0.0205 -0.9998 118.67 59.1693)" fill="none" stroke="#FFFFFF" cx="59.031" cy="30.194" rx="0.547" ry="0.531"/>
<ellipse transform="matrix(-0.9998 0.0214 -0.0214 -0.9998 131.6556 37.014)" fill="none" stroke="#FFFFFF" cx="65.63" cy="19.211" rx="0.548" ry="0.531"/>
<ellipse transform="matrix(-0.9998 0.02 -0.02 -0.9998 156.3236 56.4381)" fill="none" stroke="#FFFFFF" cx="77.879" cy="29.003" rx="0.548" ry="0.53"/>
<ellipse transform="matrix(-0.9998 0.0206 -0.0206 -0.9998 160.4775 60.285)" fill="none" stroke="#FFFFFF" cx="79.929" cy="30.968" rx="0.546" ry="0.53"/>
<ellipse transform="matrix(-0.9998 0.0196 -0.0196 -0.9998 168.9708 76.1775)" fill="none" stroke="#FFFFFF" cx="84.111" cy="38.918" rx="0.547" ry="0.531"/>
<ellipse transform="matrix(-0.9998 0.0214 -0.0214 -0.9998 140.3119 56.8279)" fill="none" stroke="#FFFFFF" cx="69.852" cy="29.166" rx="0.547" ry="0.53"/>
<path fill="none" stroke="#FFFFFF" d="M78.488,22.842c-0.445-0.66,0.587-1.391,1.882-2.267c1.293-0.875,2.358-1.562,2.803-0.902
	c0.446,0.66-0.847,1.008-2.14,1.883C79.738,22.431,78.934,23.501,78.488,22.842z"/>
<path fill="none" stroke="#FFFFFF" d="M81.27,25.43c-0.36-0.709,0.754-1.309,2.146-2.018s2.531-1.261,2.895-0.552
	c0.36,0.709-0.965,0.896-2.355,1.606S81.632,26.139,81.27,25.43z"/>
<path fill="none" stroke="#FFFFFF" d="M85.331,28.063c-0.363-0.709,0.753-1.309,2.146-2.02c1.392-0.708,2.531-1.259,2.894-0.55
	s-0.964,0.896-2.356,1.606C86.623,27.81,85.691,28.773,85.331,28.063z"/>
<path fill="none" stroke="#FFFFFF" d="M75.796,19.043c-0.41-0.683,0.662-1.357,2.002-2.161c1.341-0.803,2.438-1.43,2.849-0.748
	c0.41,0.683-0.899,0.96-2.239,1.764C77.068,18.702,76.205,19.727,75.796,19.043z"/>
<path fill="none" stroke="#FFFFFF" d="M73.13,15.908c-0.487-0.628,0.494-1.427,1.728-2.387c1.231-0.959,2.248-1.715,2.738-1.088
	c0.486,0.629-0.779,1.062-2.012,2.022C74.352,15.414,73.621,16.536,73.13,15.908z"/>
<path fill="none" stroke="#FFFFFF" d="M88.846,30.721c-0.285-0.743,0.887-1.223,2.346-1.782c1.459-0.561,2.648-0.989,2.935-0.247
	c0.286,0.743-1.052,0.791-2.511,1.351C90.158,30.603,89.131,31.464,88.846,30.721z"/>
<path fill="none" stroke="#FFFFFF" d="M92.18,33.659c-0.17-0.776,1.062-1.074,2.588-1.407c1.526-0.333,2.77-0.575,2.938,0.202
	c0.17,0.778-1.16,0.621-2.687,0.955C93.494,33.742,92.35,34.438,92.18,33.659z"/>
<path fill="none" stroke="#FFFFFF" d="M93.003,37.794c0.062-0.793,1.326-0.723,2.884-0.604c1.557,0.121,2.817,0.245,2.756,1.039
	c-0.061,0.794-1.289,0.262-2.847,0.143C94.238,38.251,92.943,38.588,93.003,37.794z"/>
<path fill="none" stroke="#FFFFFF" d="M69.928,12.834c-0.576-0.55,0.279-1.484,1.357-2.614c1.08-1.13,1.974-2.027,2.549-1.477
	c0.577,0.549-0.613,1.164-1.691,2.294C71.062,12.168,70.503,13.384,69.928,12.834z"/>
<path fill="none" stroke="#FFFFFF" d="M59.941,38.697c-0.723-0.335-1.278,0.801-1.938,2.219c-0.656,1.417-1.164,2.577-0.441,2.912
	s0.857-0.998,1.517-2.415C59.734,39.998,60.665,39.031,59.941,38.697z"/>
<path fill="none" stroke="#FFFFFF" d="M64.049,40.729c-0.758-0.244-1.172,0.953-1.65,2.44c-0.479,1.487-0.838,2.701-0.08,2.945
	c0.756,0.243,0.729-1.096,1.209-2.583C64.004,42.045,64.807,40.973,64.049,40.729z"/>
<path fill="none" stroke="#FFFFFF" d="M68.926,42.696c-0.759-0.244-1.173,0.954-1.65,2.44c-0.479,1.487-0.84,2.701-0.082,2.944
	c0.759,0.245,0.73-1.094,1.211-2.581C68.88,44.012,69.684,42.94,68.926,42.696z"/>
<path fill="none" stroke="#FFFFFF" d="M55.586,35.729c-0.636-0.479-1.42,0.517-2.357,1.765c-0.939,1.248-1.68,2.276-1.043,2.756
	c0.635,0.477,1.049-0.796,1.988-2.044C55.113,36.957,56.223,36.208,55.586,35.729z"/>
<path fill="none" stroke="#FFFFFF" d="M52.307,32.021c-0.478-0.638-1.508,0.096-2.761,1.031c-1.252,0.934-2.25,1.713-1.775,2.351
	c0.477,0.638,1.231-0.468,2.483-1.401C51.506,33.067,52.782,32.659,52.307,32.021z"/>
<path fill="none" stroke="#FFFFFF" d="M73.311,44.396c-0.778-0.163-1.064,1.071-1.388,2.599c-0.319,1.53-0.551,2.774,0.228,2.938
	c0.779,0.164,0.613-1.166,0.934-2.694C73.404,45.71,74.089,44.56,73.311,44.396z"/>
<path fill="none" stroke="#FFFFFF" d="M77.505,45.195c-0.795-0.043-0.892,1.22-0.976,2.779c-0.084,1.561-0.127,2.826,0.669,2.87
	c0.794,0.043,0.428-1.245,0.514-2.805C77.796,46.479,78.3,45.238,77.505,45.195z"/>
<path fill="none" stroke="#FFFFFF" d="M81.93,45.746c-0.775,0.187-0.505,1.424-0.139,2.942c0.369,1.519,0.691,2.742,1.467,2.556
	c0.773-0.188,0.053-1.316-0.314-2.834C82.577,46.892,82.702,45.559,81.93,45.746z"/>
<path fill="none" stroke="#FFFFFF" d="M49.501,28.204c-0.418-0.678-1.51-0.038-2.84,0.781c-1.33,0.819-2.393,1.506-1.976,2.185
	c0.417,0.677,1.267-0.357,2.598-1.176C48.611,29.174,49.918,28.881,49.501,28.204z"/>
<path fill="none" stroke="#FFFFFF" d="M53.2,12.824c-0.688,0.399-1.347-0.683-2.13-2.034c-0.781-1.354-1.392-2.462-0.703-2.861
	c0.688-0.399,0.945,0.915,1.729,2.266C52.876,11.549,53.889,12.426,53.2,12.824z"/>
<path fill="none" stroke="#FFFFFF" d="M45.92,12.511c0.484-0.631,1.505,0.119,2.745,1.069c1.239,0.953,2.228,1.745,1.742,2.376
	c-0.484,0.631-1.224-0.486-2.463-1.437C46.706,13.568,45.436,13.143,45.92,12.511z"/>
<path fill="none" stroke="#FFFFFF" d="M43.649,17.51c0.211-0.768,1.439-0.458,2.946-0.043c1.505,0.416,2.719,0.777,2.507,1.545
	c-0.211,0.767-1.315,0.011-2.821-0.404C44.775,18.193,43.438,18.278,43.649,17.51z"/>
<path fill="none" stroke="#FFFFFF" d="M42.511,23.668c-0.045-0.794,1.218-0.893,2.777-0.98c1.56-0.086,2.825-0.13,2.871,0.665
	c0.044,0.794-1.244,0.431-2.803,0.519C43.795,23.958,42.555,24.464,42.511,23.668z"/>
<path fill="none" stroke="#FFFFFF" d="M60.999,9.657c-0.795-0.001-0.822-1.267-0.822-2.829C60.178,5.265,60.208,3.999,61.004,4
	c0.795,0,0.357,1.266,0.357,2.828C61.359,8.391,61.793,9.657,60.999,9.657z"/>
<path fill="none" stroke="#FFFFFF" d="M65.932,9.468c-0.76-0.23-0.422-1.45,0.029-2.945c0.452-1.496,0.844-2.7,1.604-2.471
	c0.763,0.23-0.021,1.316-0.472,2.812C66.643,8.359,66.695,9.698,65.932,9.468z"/>
<path fill="none" stroke="#FFFFFF" d="M56.936,10.525c-0.772,0.193-1.104-1.029-1.481-2.545c-0.377-1.516-0.656-2.75,0.116-2.943
	c0.772-0.192,0.654,1.142,1.033,2.657C56.98,9.209,57.708,10.333,56.936,10.525z"/>
<path fill="none" stroke="#FFFFFF" d="M93.979,47.365c-0.619,0.413-1.539-0.557-2.646-1.77c-1.109-1.214-1.986-2.212-1.366-2.626
	c0.621-0.412,1.181,0.798,2.289,2.011C93.361,46.194,94.6,46.952,93.979,47.365z"/>
<path fill="none" stroke="#FFFFFF" d="M89.617,50.17c-0.641,0.315-1.303-0.891-2.094-2.392c-0.789-1.501-1.408-2.729-0.768-3.044
	c0.643-0.316,0.932,1.074,1.723,2.574C89.266,48.811,90.258,49.854,89.617,50.17z"/>
<path fill="none" stroke="#FFFFFF" d="M92.324,40.458c0.517-0.664,1.564-0.107,2.837,0.607c1.272,0.713,2.286,1.315,1.771,1.979
	c-0.516,0.662-1.265-0.278-2.537-0.993C93.123,41.338,91.809,41.122,92.324,40.458z"/>
</svg>
