<?xml version="1.0" encoding="utf-8"?>
<!-- Generator: Adobe Illustrator 14.0.0, SVG Export Plug-In . SVG Version: 6.00 Build 43363)  -->
<!DOCTYPE svg PUBLIC "-//W3C//DTD SVG 1.1//EN" "http://www.w3.org/Graphics/SVG/1.1/DTD/svg11.dtd">
<svg version="1.1" id="Layer_1" xmlns="http://www.w3.org/2000/svg" xmlns:xlink="http://www.w3.org/1999/xlink" x="0px" y="0px"
	 width="100px" height="100px" viewBox="0 0 100 100" enable-background="new 0 0 100 100" xml:space="preserve">
<path fill="none" stroke="#FFFFFF" stroke-width="0.8" d="M25.005,16.262c0.672-0.14,1.186,0.228,1.278,0.641
	c0.391,1.76-2.004,1.707-2.133,0.5C24.08,16.768,24.185,16.432,25.005,16.262z"/>
<path fill="none" stroke="#FFFFFF" stroke-width="0.8" d="M31.84,17.86c1.972-0.604,1.884,2.356,0.279,2.212
	C31.019,19.973,30.64,18.228,31.84,17.86z"/>
<path fill="none" stroke="#FFFFFF" stroke-width="0.8" d="M44.819,40.943c0.596-0.229,0.89,0.127,0.956,0.508
	C46.123,43.464,43.003,41.643,44.819,40.943z"/>
<path fill="none" stroke="#FFFFFF" stroke-width="0.8" d="M34.957,1c0.037,0.002,0.073,0.005,0.11,0.008
	c-0.003,0.037-0.006,0.072-0.009,0.108c3.68,5.083,7.582,10.521,10.529,15.893c-1.696,0.14-3.479-0.384-5.26-0.497
	c1.295,6.623-2.727,11.473-8.386,11.98c0.055,1.008,0.251,1.895,0.223,2.975c1.024,0.041,1.812,0.286,2.609,0.521
	c1.483-5.098,7.011-7.121,10.86-9.608c-0.099-1.199-0.951-3.189-0.018-4.273c1.205-0.035,1.303,1.388,1.99,1.461
	c-0.023-1.275,2.476-3.199,2.368-0.702c0.502-0.013,1.191-1.338,2.26-0.711c0.152,0.81-0.457,1.362-0.349,1.727
	c0.269-0.363,1.256-0.392,1.427,0.104c0.139,1.043-1.309,1.467-1.022,1.896c2.581,0.57-1.081,2.644-1.988,3.032
	c-3.529,1.508-8.074,2.953-10.445,5.476c-1.128,1.2-1.587,2.6-3.11,3.278c0.813,3.675,1.269,7.353,1.809,11.416
	c2.231,0.164,4.462,0.328,6.695,0.494c-0.25-1.046-1.528-0.54-2.258-0.825c-2.943-1.147,0.618-6.889,3.819-5.416
	c2.209,1.018,2.372,3.812,2.827,6.563c1.171,0.086,2.342,0.172,3.513,0.259c0.601-8.172,1.253-17.044,1.875-25.498
	c0.3-4.065,0.25-8.178,1.578-10.948c0.391,0.107,0.267,0.655,0.721,0.71c0.304-1.305,0.665-2.544,1.15-3.639
	c0.124,0.607,0.3,1.171,0.538,1.682c-0.03-0.446,0.477-0.313,0.559-0.068c0.467-0.09,0.42-0.775,0.738-1.042
	c1.279,0.095,1.667-0.839,2.315-1.473c1.164,5.046,5.298,8.375,9.085,11.514c3.147,2.61,6.505,4.987,9.626,7.171
	c-0.584,3.296-1.213,7.09-1.773,10.605c-0.169,1.055-0.117,2.4-0.992,2.995c-0.38-1.853-1.012-3.491-2.55-4.35
	c-0.845,1.115-1.562,2.38-2.562,3.317c-0.854-2.772-2.727-4.674-4.592-6.582c-0.958,0.788-2.057,2.043-2.843,2.639
	c-0.26-1.819-0.808-3.391-1.521-4.823c-0.604,1.077-1.613,1.688-2.497,2.445c-0.394,5.339-0.784,10.678-1.178,16.017
	c4.935,0.466,10.32,0.84,15.225,1.558c8.007,1.173,17.505,1.554,22.529,4.286c-0.008,0.108-0.016,0.218-0.024,0.326
	C91.644,75.97,75.137,90.497,46.405,88.385C18.131,86.306,3.583,69.904,0,45.644c0.005-0.072,0.012-0.146,0.017-0.218
	c4.066-2.016,12.773-1.11,18.413-1.274c1.124-3.788,2.209-7.623,3.578-11.13c-1.056-1.294-1.684-2.704-2.809-3.822
	c-2.575-2.561-6.296-3.718-9.527-5.521C8.638,23.1,7.395,22.183,7.231,20.87c0.129-0.442,0.908-0.137,1.239-0.348
	c-0.498-0.561-1.266-0.888-1.062-2.05c0.34-0.508,1.17,0.177,1.435-0.003c-0.28-0.317-0.604-1.291-0.1-1.651
	c0.958-0.292,1.42,0.674,2.021,1.025c-0.064-2.728,2.301-0.332,2.477,0.84c0.533-0.569,0.891-1.341,1.87-1.396
	c0.907,0.96-0.084,3.101-0.313,4.25c3.78,2.787,8.169,5.051,10.007,9.5c0.498-0.097,1.133-0.036,1.764,0.02
	c0.286-1.128,0.721-2.085,1.008-3.212c-3.15-1.25-4.785-3.796-5.901-6.788c0.245-0.573-0.087-1.8-0.027-2.631
	c0.175-2.38,1.411-4.498,2.527-5.839c-1.715-0.608-3.441-1.204-4.812-2.107C25.363,8.243,30.169,4.632,34.957,1z M34.791,1.755
	c-4.38,3.392-9.048,6.453-14.229,8.921c6.957,2.889,14.953,4.888,24.18,5.832C41.9,11.59,38.431,6.327,34.791,1.755z M78.242,23.136
	c0.365-0.196-0.222-0.247-0.201-0.234c-4.811-3.684-10.268-7.548-13.78-12.188c-0.2-0.261-0.312-0.749-0.723-0.71
	c-0.154,2.106-0.309,4.213-0.464,6.321C68.164,18.564,73.246,20.814,78.242,23.136z M24.814,12.851
	c-1.863,1.358-3.164,4.87-2.467,8.035c1.044-0.211,1.965-0.491,3.036-0.762c0.938-0.238,2.312-0.904,3.146-0.756
	c0.875,0.157,2.023,1.539,2.718,2.062c1.006,0.76,2.017,1.318,2.608,2.054c-0.931-0.19-1.899-0.348-2.83-0.538
	c-0.613,1.467-2.549,3.6-4.229,1.99c0.598-0.918,0.016-2.293-0.121-2.858c-1.517-0.165-2.851-0.483-4.249-0.75
	c1.119,3.571,3.831,6.503,8.223,6.739c6.191,0.332,10.803-5.111,9.029-11.715C34.32,15.531,29.456,14.288,24.814,12.851z
	 M47.527,20.657c-0.533-0.769-0.892-1.687-1.832-2.106c-0.13,1.609,0.255,2.775,0.471,4.088c-1.689,0.804-3.785,2.131-5.776,3.52
	c-2.364,1.647-5.578,3.592-4.919,6.868c0.716,0.34,1.672-0.145,2.133-0.5c1.278-0.983,1.809-2.436,3.008-3.393
	c2.256-1.8,5.584-3.268,8.374-4.314c1.42-0.532,3.063-0.94,3.713-2.466c-0.861-0.218-1.718,0.841-2.103,0.064
	c0.748-0.684,2.042-1.344,2.16-2.361c-0.937,0.001-1.414,1.111-2.166,0.937c0.015-0.827,1.178-1.313,1.181-2.542
	c-1.141,0.037-1.538,1.527-2.425,1.464c-0.284-0.478,0.502-1.269,0.136-1.853C48.254,18.265,48.163,19.776,47.527,20.657z
	 M62.063,30.053c1.18-0.535,1.839-1.667,2.623-2.656c0.686,1.524,1.213,3.181,1.741,4.84c0.769-0.85,1.633-1.591,2.49-2.337
	c1.935,1.814,3.55,3.901,4.835,6.272c0.714-1.033,1.456-2.027,2.209-3.015c1.438,0.809,2.34,2.08,2.816,3.713
	c0.528-3.175,1.28-6.722,1.499-9.859c-0.163,0.445-0.186,1.049-0.639,1.159c-5.667-2.598-11.175-5.332-16.852-7.922
	C62.543,23.514,62.304,26.784,62.063,30.053z M11.122,18.965c-0.7-0.532-1.253-1.705-2.193-1.695
	c0.007,1.092,1.079,1.786,1.022,2.595c-0.81,0.071-1.121-1.048-2.124-1.141c0.072,1.383,1.959,1.704,1.886,2.876
	c-0.726-0.125-1.105-0.551-1.944-0.581c0.303,1.235,1.67,1.971,2.796,2.505c3.875,1.842,7.916,3.623,10.198,6.886
	c0.805,1.15,1.808,2.977,3.345,2.545c0.407-0.39,0.478-1.085,0.348-1.727c-0.431-2.119-2.632-3.838-4.46-5.369
	c-1.988-1.661-4.294-3.009-5.756-4.257c0.422-1.09,0.718-2.327,0.829-3.774c-0.845,0.024-1.455,1.311-2.127,1.924
	c-0.402-1.051-0.456-2.399-1.674-2.752C10.928,17.891,11.803,18.723,11.122,18.965z M27.597,23.026
	c0.173-0.394,0.719-0.355,1.037-0.583c-0.549-0.006-1.005-0.091-1.418-0.214C27.276,22.552,27.341,22.871,27.597,23.026z
	 M27.454,24.986c1.739,0.269,2.246-0.883,2.896-1.869C28.695,22.537,27.114,23.313,27.454,24.986z M27.042,32.077
	c0.674,1.758,4.276,1.246,4.666-0.424c0.249-1.066-0.342-1.883-0.215-3.084c-1.323-0.057-2.538-0.207-3.488-0.584
	C27.989,29.724,26.453,30.54,27.042,32.077z M25.098,31.497c0.059,1.612-1.213,2.52-2.66,1.667
	c-0.229,0.685-0.745,1.661-0.717,2.247c2.925,2.246,10.98,3.227,15.208,1.776c-0.11-1.232-0.454-2.266-0.63-3.442
	c-1.026-0.074-1.347-0.752-1.777-1.336c-0.689-0.226-1.45-0.391-2.282-0.497c-0.532,2.26-5.75,2.26-5.818-0.428
	C25.908,31.403,25.506,31.452,25.098,31.497z M20.334,39.252c3.018,2.853,12.881,4.487,17.286,2.039
	c-0.304-1.103-0.32-2.449-0.621-3.552c-4.576,1.221-12.21,0.628-15.523-2.018C21.14,36.95,20.776,38.145,20.334,39.252z
	 M49.203,45.868c-0.331-2.504-0.883-5.358-2.641-6.11c-3.397-1.45-6.32,5.62-1.661,4.589c2.029,1.101,1.038,5.316,1.108,7.42
	c0.825,0.315,2.155,0.196,3.175,0.344C49.809,49.75,49.563,48.581,49.203,45.868z M18.836,44.619
	c3.979,3.099,14.128,4.322,19.567,2.534c-0.382-1.645-0.376-3.624-0.831-5.209c-4.812,2.077-13.743,0.789-17.389-2.155
	C19.808,41.485,19.165,42.872,18.836,44.619z M43.353,45.875c-1.689-0.124-3.515-0.356-4.633-0.013
	c-0.152,0.792,0.813,0.579,1.278,0.642c1.818,0.247,3.974,0.205,5.598,0.412C45.875,45.749,44.341,45.948,43.353,45.875z
	 M49.875,47.231c1.062,0.078,2.123,0.155,3.185,0.234c0.021-0.29,0.043-0.582,0.065-0.871c-1.106-0.009-2.479-0.329-3.413-0.142
	C49.862,46.629,49.854,46.942,49.875,47.231z M60.772,47.596c-0.01,0.146-0.021,0.29-0.031,0.436
	c9.812,1.326,20.637,1.695,29.878,3.403c1.015,0.188,2.399,0.253,3.001,1.205c-3.682,1.634-9.482,0.834-14.218,1.255
	c1.608,1.374,3.6,0.864,6.132,0.671c4.358-0.333,9-0.859,12.172-1.952c-10.611-3.196-24.15-3.885-36.799-5.336
	C60.779,47.285,60.777,47.439,60.772,47.596z M0.674,45.474c1.521,1.619,3.953,2.243,6.301,2.874
	c2.415,0.649,5.113,1.153,7.821,1.67c14.288,2.732,31.206,4.194,47.314,4.906c1.543,0.067,3.254,0.339,4.297,0.097
	c0.345-0.081,0.656-0.454,1.043-0.69c0.37-0.225,1.092-0.267,0.817-0.597c-10.838-0.312-22.78-0.843-34.294-1.866
	c-11.446-1.016-22.708-2.195-31.363-5.701c1.797-1.218,4.669-0.964,7.465-0.984c2.081-0.015,4.259-0.026,6.29,0.024
	c0.559,0.015,1.573,0.375,1.795-0.415C12.28,44.484,5.624,44.312,0.674,45.474z M49.733,52.15
	c4.851,0.637,10.402,1.136,14.852,0.654C63.158,47.664,50.914,45.198,49.733,52.15z M17.527,48.904
	c6.628,1.232,13.714,2.07,21.341,2.447c-0.104-1.206-0.334-2.302-0.403-3.536c-5.946,1.431-15.463,0.377-19.889-2.668
	C18.296,46.48,17.839,47.607,17.527,48.904z M97.775,53.164c-4.704,1.484-10.468,1.749-15.953,2.331
	c2.788,2.071,4.456,5.1,4.604,9.433c2.3-0.309,4.727-0.471,7.11-0.683C95.254,60.981,97.068,57.198,97.775,53.164z M14.977,50.58
	c-5.2-0.983-10.24-1.856-14.264-4.117c0.334,2.845,0.998,5.407,1.617,8.005c2.778,2.764,7.463,3.638,12.241,4.627
	c4.112,0.849,8.674,1.511,12.981,2.051c0.468,0.058,1.502-0.24,1.615,0.556c-5.684-0.271-11.367-1.426-16.596-2.426
	c0.079,3.234,0.471,6.198,0.519,9.458c5.54,1.756,13.073,3.166,20.279,3.355c1.025,0.026,2.275-0.283,2.736,0.312
	c-2.373,0.452-4.958,0.087-7.496-0.112c-7.784-0.616-15.092-2.368-20.388-4.896c1.064,1.967,2.492,3.575,3.92,5.217
	c1.315,1.513,2.765,3.355,4.628,4.614c1.89,1.279,4.656,2.119,7.405,2.845c7.532,1.99,17.183,2.346,25.627,2.652
	c0.658,0.023,1.838-0.306,2.069,0.37c-10.703,0.251-24.236-0.729-32.486-3.922c8.493,6.169,22.221,9.673,36.212,8.798
	c12.312-0.769,22.492-5.232,29.369-12.189c0.137-0.141,0.549-0.329,0.376-0.631c-1.934,0.641-4.132,0.449-6.132,0.864
	c-1.489,0.31-2.414,0.985-3.728,1.15c-7.646,0.956-12.636-4.319-13.783-10.653c-2.807-0.189-6.164,0.229-8.68-0.53
	c0.795-0.575,2.132-0.127,3.208-0.093c1.866,0.059,3.871,0.121,5.413-0.04c-0.575-4.65,2.044-8.167,3.958-10.334
	C49.088,55.19,30.023,53.424,14.977,50.58z M67.159,55.295c1.352,1.291,2.709,2.58,3.192,4.617c1.523-1.33,5.559-1.269,6.924,0.399
	c1.003-1.998,2.849-3.027,4.608-4.152C78.877,52.688,70.427,52.103,67.159,55.295z M82.291,56.628
	c-1.857,1.015-3.677,2.073-4.609,4.152c0.863,1.029,1.432,2.313,1.35,4.152c2-0.354,4.895-0.483,6.812,0.391
	C85.95,61.319,84.589,58.571,82.291,56.628z M66.477,55.574c-1.264,1.106-2.379,2.383-3.166,4.039
	c2.014,0.759,4.015,1.529,5.657,2.607c0.33-0.685,0.685-1.343,1.029-2.007C69.261,58.293,68.179,56.669,66.477,55.574z
	 M75.011,59.598c-3.945-0.96-6.387,2.058-6.087,6.234c3.295-0.029,6.422-0.251,9.629-0.387
	C78.576,62.515,77.447,60.191,75.011,59.598z M4.915,61.343c0.799,1.748,1.522,3.964,2.61,5.013
	c1.242,1.196,3.135,1.425,5.022,2.229c-0.071-3.238-0.453-6.213-0.519-9.458c-3.495-0.748-7.109-1.939-9.348-3.425
	C3.309,57.329,4,59.345,4.915,61.343z M63.052,60.142c-2.425,6.051,0.279,11.934,4.236,14.443c0.681-2.052,1.854-3.536,3.017-5.035
	c-1.806-1.197-2.403-3.899-1.696-6.919C66.977,61.609,65.139,60.77,63.052,60.142z M86.393,65.363
	c-0.342,4.417-2.428,7.187-4.748,9.072c-0.342,0.278-1.088,0.71-0.843,0.925c1.891-0.231,3.691-0.56,5.476-0.912
	c2.647-2.862,5.006-6.059,7.001-9.673c-0.073-0.006-0.146-0.01-0.22-0.018C90.909,65.043,88.689,65.248,86.393,65.363z
	 M79.102,65.486c-0.44,2.566-1.662,4.232-3.78,4.87c0.562,1.729,0.604,3.904,0.657,6.073c5.255-1.206,8.899-4.263,9.717-10.569
	C83.932,64.975,80.936,65.083,79.102,65.486z M68.992,66.384c0.421,5.174,9.579,4.539,9.191-0.418
	C75.175,66.168,72.117,66.313,68.992,66.384z M70.828,69.914c-1.325,1.352-2.39,3.001-3.128,5.029
	c1.806,1.246,4.676,1.886,7.706,1.771c0.05-2.221-0.038-4.325-0.546-6.066C73.338,70.79,71.924,70.426,70.828,69.914z"/>
</svg>
