<?xml version="1.0" encoding="utf-8"?>
<!-- Generator: Adobe Illustrator 14.0.0, SVG Export Plug-In  -->
<!DOCTYPE svg PUBLIC "-//W3C//DTD SVG 1.1//EN" "http://www.w3.org/Graphics/SVG/1.1/DTD/svg11.dtd" [
	<!ENTITY ns_flows "http://ns.adobe.com/Flows/1.0/">
]>
<svg version="1.1"
	 xmlns="http://www.w3.org/2000/svg" xmlns:xlink="http://www.w3.org/1999/xlink" xmlns:a="http://ns.adobe.com/AdobeSVGViewerExtensions/3.0/"
	 x="0px" y="0px" width="236px" height="215px" viewBox="0 -1.78 236 215" enable-background="new 0 -1.78 236 215"
	 xml:space="preserve">
<defs>
</defs>
<path fill-rule="evenodd" clip-rule="evenodd" fill="#FFFFFF" d="M59.843,36.781c1.605-0.337,2.834,0.55,3.053,1.544
	c0.934,4.238-4.797,4.113-5.104,1.208C57.63,38.003,57.878,37.193,59.843,36.781z"/>
<path fill-rule="evenodd" clip-rule="evenodd" fill="#FFFFFF" d="M76.187,40.624c4.715-1.458,4.502,5.672,0.664,5.329
	C74.218,45.712,73.316,41.51,76.187,40.624z"/>
<path fill-rule="evenodd" clip-rule="evenodd" fill="#FFFFFF" d="M107.199,96.218c1.426-0.553,2.129,0.305,2.287,1.223
	C110.314,102.286,102.853,97.903,107.199,96.218z"/>
<path fill-rule="evenodd" clip-rule="evenodd" fill="#FFFFFF" d="M83.662,0c0.088,0.007,0.176,0.013,0.262,0.02
	c-0.006,0.088-0.012,0.175-0.02,0.263c8.797,12.241,18.119,25.338,25.16,38.272c-4.055,0.339-8.318-0.921-12.578-1.188
	c3.09,15.951-6.535,27.641-20.072,28.875c0.131,2.426,0.6,4.562,0.529,7.164c2.449,0.098,4.332,0.686,6.242,1.252
	c3.555-12.283,16.775-17.164,25.986-23.162c-0.234-2.891-2.271-7.682-0.037-10.297c2.883-0.082,3.113,3.344,4.758,3.518
	c-0.053-3.072,5.924-7.709,5.666-1.693c1.199-0.031,2.848-3.225,5.404-1.715c0.365,1.951-1.094,3.281-0.834,4.163
	c0.643-0.875,3.006-0.946,3.412,0.25c0.332,2.514-3.131,3.535-2.447,4.57c6.172,1.369-2.59,6.369-4.76,7.305
	c-8.441,3.639-19.312,7.125-24.988,13.205c-2.699,2.893-3.801,6.264-7.443,7.898c1.943,8.852,3.025,17.715,4.311,27.502
	c5.338,0.393,10.676,0.785,16.014,1.178c-0.594-2.518-3.654-1.297-5.396-1.982c-7.037-2.758,1.484-16.598,9.141-13.051
	c5.283,2.447,5.67,9.182,6.756,15.805c2.799,0.207,5.602,0.412,8.402,0.619c1.447-19.689,3.02-41.064,4.518-61.428
	c0.721-9.795,0.609-19.703,3.787-26.378c0.936,0.259,0.637,1.58,1.721,1.711c0.73-3.143,1.594-6.13,2.758-8.771
	c0.299,1.463,0.719,2.82,1.283,4.054c-0.074-1.075,1.143-0.755,1.334-0.166c1.121-0.218,1.01-1.867,1.768-2.51
	c3.064,0.228,3.99-2.022,5.539-3.552c2.779,12.154,12.664,20.167,21.715,27.726c7.523,6.286,15.557,12.008,23.012,17.264
	c-1.4,7.941-2.906,17.082-4.256,25.553c-0.404,2.539-0.283,5.781-2.377,7.215c-0.906-4.463-2.412-8.408-6.092-10.477
	c-2.023,2.688-3.738,5.734-6.131,7.994c-2.045-6.678-6.518-11.258-10.975-15.852c-2.295,1.9-4.926,4.928-6.803,6.361
	c-0.621-4.383-1.93-8.168-3.633-11.615c-1.447,2.594-3.861,4.07-5.977,5.895c-0.945,12.861-1.891,25.727-2.838,38.588
	c11.805,1.117,24.684,2.012,36.412,3.734c19.148,2.814,41.863,3.723,53.875,10.297c-0.02,0.262-0.039,0.525-0.057,0.789
	c-16.568,55.338-56.066,90.359-124.779,85.307C43.31,205.534,8.539,166.04,0,107.599c0.013-0.174,0.026-0.35,0.039-0.525
	c9.729-4.859,30.55-2.693,44.038-3.094c2.694-9.129,5.295-18.367,8.572-26.818c-2.526-3.117-4.024-6.51-6.712-9.203
	c-6.153-6.162-15.051-8.947-22.776-13.289c-2.475-1.391-5.446-3.6-5.837-6.764c0.309-1.064,2.172-0.33,2.964-0.838
	c-1.188-1.348-3.027-2.139-2.539-4.938c0.813-1.225,2.801,0.428,3.432-0.01c-0.667-0.766-1.442-3.111-0.235-3.977
	c2.292-0.702,3.396,1.625,4.833,2.467c-0.147-6.571,5.504-0.803,5.921,2.02c1.276-1.371,2.13-3.232,4.471-3.367
	c2.168,2.312-0.203,7.469-0.753,10.238c9.036,6.707,19.529,12.156,23.919,22.875c1.191-0.234,2.711-0.09,4.221,0.045
	c0.686-2.717,1.729-5.023,2.416-7.74c-7.533-3.006-11.441-9.137-14.106-16.344c0.588-1.381-0.209-4.338-0.062-6.34
	c0.424-5.735,3.38-10.837,6.052-14.071c-4.101-1.463-8.229-2.897-11.506-5.069C60.708,17.463,72.207,8.757,83.662,0z M83.263,1.818
	C72.785,9.995,61.615,17.376,49.219,23.331c16.636,6.95,35.755,11.756,57.824,14.02C100.257,25.505,91.964,12.829,83.263,1.818z
	 M187.16,53.272c0.873-0.473-0.531-0.598-0.484-0.562c-11.498-8.872-24.549-18.172-32.943-29.346
	c-0.475-0.629-0.742-1.802-1.723-1.709c-0.373,5.074-0.748,10.15-1.121,15.227C163.064,42.272,175.21,47.687,187.16,53.272z
	 M59.39,28.565c-4.457,3.273-7.571,11.736-5.911,19.361c2.495-0.51,4.702-1.186,7.263-1.842c2.24-0.574,5.527-2.18,7.523-1.823
	c2.092,0.377,4.834,3.702,6.496,4.965c2.404,1.828,4.82,3.172,6.236,4.945c-2.227-0.457-4.545-0.832-6.77-1.291
	c-1.469,3.533-6.102,8.674-10.117,4.799c1.432-2.213,0.041-5.523-0.285-6.883c-3.625-0.395-6.82-1.16-10.161-1.803
	c2.673,8.604,9.153,15.664,19.657,16.227c14.807,0.791,25.844-12.33,21.607-28.234C82.121,35.01,70.488,32.02,59.39,28.565z
	 M113.699,47.341c-1.271-1.854-2.133-4.061-4.379-5.073c-0.312,3.877,0.609,6.686,1.123,9.848c-4.043,1.939-9.057,5.141-13.82,8.486
	c-5.654,3.969-13.344,8.662-11.773,16.551c1.711,0.818,3.998-0.352,5.104-1.209c3.059-2.369,4.33-5.871,7.199-8.178
	c5.396-4.34,13.357-7.881,20.031-10.402c3.4-1.287,7.328-2.271,8.883-5.945c-2.057-0.527-4.105,2.027-5.027,0.158
	c1.791-1.65,4.887-3.24,5.17-5.691c-2.238,0.004-3.383,2.678-5.18,2.258c0.033-1.992,2.818-3.165,2.826-6.125
	c-2.727,0.092-3.678,3.682-5.803,3.532c-0.678-1.151,1.203-3.057,0.328-4.463C115.443,41.577,115.224,45.217,113.699,47.341z
	 M148.455,69.958c2.822-1.291,4.4-4.02,6.277-6.402c1.637,3.67,2.898,7.662,4.158,11.656c1.84-2.049,3.906-3.834,5.957-5.633
	c4.627,4.367,8.484,9.395,11.557,15.102c1.705-2.488,3.488-4.887,5.285-7.266c3.439,1.949,5.594,5.008,6.732,8.941
	c1.27-7.648,3.072-16.193,3.596-23.752c-0.389,1.068-0.443,2.525-1.525,2.791c-13.553-6.252-26.725-12.83-40.297-19.064
	C149.615,54.206,149.035,62.081,148.455,69.958z M26.635,43.313c-1.673-1.283-2.994-4.107-5.242-4.082
	c0.017,2.63,2.579,4.3,2.443,6.25c-1.938,0.172-2.679-2.526-5.077-2.749c0.17,3.334,4.682,4.104,4.506,6.93
	c-1.736-0.305-2.644-1.326-4.648-1.398c0.721,2.977,3.992,4.748,6.684,6.035c9.265,4.432,18.928,8.717,24.381,16.572
	c1.923,2.77,4.318,7.168,7.995,6.131c0.973-0.941,1.145-2.615,0.834-4.162c-1.027-5.104-6.292-9.244-10.663-12.926
	c-4.751-3.998-10.267-7.244-13.762-10.248c1.013-2.625,1.719-5.606,1.987-9.092c-2.022,0.059-3.481,3.16-5.091,4.641
	c-0.959-2.531-1.087-5.781-3.999-6.628C26.169,40.725,28.264,42.727,26.635,43.313z M66.033,53.073
	c0.414-0.947,1.721-0.855,2.479-1.402c-1.311-0.016-2.404-0.219-3.391-0.514C65.263,51.935,65.423,52.698,66.033,53.073z
	 M65.685,57.798c4.16,0.643,5.373-2.131,6.93-4.504C68.66,51.894,64.878,53.767,65.685,57.798z M64.693,74.88
	c1.611,4.236,10.229,2.998,11.16-1.027c0.598-2.57-0.814-4.535-0.51-7.428c-3.164-0.135-6.07-0.494-8.34-1.404
	C66.96,69.206,63.285,71.175,64.693,74.88z M60.044,73.483c0.139,3.885-2.904,6.072-6.364,4.018
	c-0.547,1.65-1.787,4.004-1.719,5.416c6.995,5.406,26.257,7.762,36.372,4.258c-0.262-2.969-1.08-5.457-1.502-8.291
	c-2.453-0.178-3.221-1.809-4.25-3.215c-1.646-0.545-3.465-0.943-5.453-1.193c-1.277,5.441-13.756,5.451-13.914-1.023
	C61.982,73.257,61.019,73.374,60.044,73.483z M48.642,92.175c7.213,6.871,30.799,10.791,41.34,4.887
	c-0.725-2.652-0.762-5.898-1.482-8.553c-10.943,2.947-29.201,1.527-37.12-4.842C50.572,86.626,49.698,89.507,48.642,92.175z
	 M117.677,108.073c-0.791-6.031-2.104-12.908-6.309-14.717c-8.123-3.49-15.125,13.547-3.98,11.057
	c4.854,2.65,2.475,12.807,2.645,17.877c1.969,0.76,5.154,0.469,7.592,0.822C119.121,117.425,118.533,114.612,117.677,108.073z
	 M45.051,105.106c9.511,7.459,33.785,10.393,46.794,6.08c-0.912-3.965-0.896-8.732-1.979-12.549
	c-11.514,5.01-32.867,1.918-41.584-5.17C47.382,97.552,45.841,100.896,45.051,105.106z M103.685,108.099
	c-4.039-0.295-8.406-0.852-11.082-0.023c-0.367,1.908,1.943,1.395,3.055,1.545c4.35,0.594,9.504,0.492,13.387,0.984
	C109.716,107.792,106.05,108.274,103.685,108.099z M119.283,111.358c2.537,0.186,5.074,0.373,7.613,0.561
	c0.051-0.699,0.104-1.4,0.154-2.1c-2.641-0.021-5.924-0.787-8.158-0.338C119.253,109.907,119.23,110.663,119.283,111.358z
	 M145.347,112.22c-0.025,0.35-0.051,0.699-0.078,1.051c23.467,3.182,49.355,4.055,71.453,8.158c2.428,0.451,5.74,0.607,7.176,2.902
	c-8.811,3.939-22.678,2.02-34.006,3.041c3.844,3.307,8.607,2.078,14.662,1.607c10.424-0.809,21.527-2.084,29.115-4.721
	c-25.373-7.686-57.752-9.328-88.002-12.807C145.359,111.474,145.353,111.847,145.347,112.22z M1.614,107.188
	c3.638,3.898,9.449,5.398,15.063,6.916c5.776,1.562,12.229,2.771,18.706,4.014c34.167,6.562,74.627,10.064,113.151,11.756
	c3.689,0.16,7.783,0.812,10.277,0.229c0.824-0.195,1.572-1.094,2.498-1.666c0.881-0.541,2.611-0.645,1.953-1.439
	c-25.92-0.734-54.482-2-82.018-4.449c-27.374-2.434-54.309-5.26-75.003-13.699c4.3-2.936,11.169-2.328,17.858-2.381
	c4.979-0.037,10.187-0.068,15.041,0.051c1.338,0.033,3.762,0.902,4.296-1.004C29.371,104.79,13.45,104.38,1.614,107.188z
	 M118.937,123.21c11.604,1.525,24.871,2.721,35.518,1.557C151.05,112.384,121.767,106.456,118.937,123.21z M41.915,115.433
	c15.852,2.959,32.797,4.969,51.036,5.865c-0.244-2.904-0.795-5.543-0.959-8.516c-14.223,3.453-36.982,0.932-47.563-6.402
	C43.757,109.589,42.661,112.308,41.915,115.433z M233.835,125.591c-11.25,3.584-25.035,4.227-38.156,5.639
	c6.666,4.984,10.65,12.277,10.996,22.715c5.504-0.744,11.309-1.139,17.012-1.65C227.798,144.427,232.142,135.31,233.835,125.591z
	 M35.813,119.472c-12.436-2.363-24.489-4.459-34.11-9.9c0.796,6.854,2.381,13.023,3.858,19.287
	c6.641,6.652,17.845,8.754,29.27,11.125c9.834,2.043,20.743,3.633,31.045,4.924c1.117,0.141,3.592-0.58,3.861,1.34
	c-13.594-0.645-27.184-3.42-39.689-5.822c0.184,7.789,1.118,14.932,1.227,22.787c13.248,4.223,31.263,7.609,48.498,8.055
	c2.453,0.062,5.441-0.684,6.543,0.746c-5.674,1.094-11.859,0.215-17.928-0.264c-18.614-1.471-36.091-5.684-48.751-11.768
	c2.542,4.736,5.953,8.607,9.368,12.564c3.144,3.643,6.608,8.078,11.061,11.107c4.52,3.076,11.134,5.1,17.708,6.844
	c18.012,4.783,41.096,5.629,61.291,6.357c1.57,0.057,4.395-0.738,4.947,0.893c-25.596,0.613-57.963-1.732-77.692-9.412
	c20.307,14.852,53.133,23.273,86.596,21.152c29.447-1.869,53.803-12.637,70.256-29.408c0.328-0.334,1.316-0.793,0.9-1.518
	c-4.621,1.545-9.881,1.084-14.668,2.09c-3.557,0.746-5.771,2.377-8.914,2.773c-18.289,2.316-30.215-10.387-32.951-25.648
	c-6.713-0.447-14.744,0.561-20.758-1.264c1.9-1.387,5.098-0.307,7.672-0.227c4.463,0.139,9.254,0.289,12.941-0.104
	c-1.367-11.203,4.902-19.678,9.484-24.902C117.388,130.532,71.796,126.304,35.813,119.472z M160.611,130.761
	c3.232,3.111,6.477,6.213,7.629,11.119c3.645-3.209,13.293-3.062,16.555,0.953c2.402-4.814,6.818-7.293,11.031-10.008
	C188.636,124.47,168.431,123.065,160.611,130.761z M196.798,133.952c-4.445,2.445-8.799,4.998-11.029,10.01
	c2.064,2.479,3.42,5.57,3.223,10.002c4.785-0.855,11.707-1.17,16.295,0.934C205.542,145.253,202.294,138.632,196.798,133.952z
	 M158.978,131.435c-3.025,2.666-5.697,5.742-7.578,9.734c4.814,1.826,9.598,3.682,13.525,6.273c0.793-1.646,1.637-3.232,2.467-4.832
	C165.634,137.983,163.042,134.071,158.978,131.435z M179.38,141.116c-9.434-2.311-15.277,4.965-14.566,15.027
	c7.883-0.074,15.365-0.615,23.031-0.945C187.904,148.14,185.208,142.544,179.38,141.116z M11.735,145.411
	c1.908,4.211,3.634,9.547,6.238,12.072c2.97,2.881,7.497,3.43,12.009,5.371c-0.165-7.809-1.075-14.971-1.229-22.789
	c-8.358-1.801-17.002-4.666-22.353-8.242C7.897,135.741,9.552,140.603,11.735,145.411z M150.779,142.444
	c-5.807,14.578,0.652,28.75,10.109,34.787c1.635-4.941,4.445-8.52,7.227-12.135c-4.322-2.879-5.746-9.391-4.053-16.662
	C160.169,145.976,155.769,143.954,150.779,142.444z M206.599,154.995c-0.826,10.637-5.82,17.316-11.373,21.861
	c-0.818,0.67-2.602,1.709-2.012,2.227c4.52-0.557,8.83-1.354,13.096-2.205c6.336-6.898,11.984-14.6,16.758-23.311
	c-0.176-0.014-0.35-0.025-0.525-0.039C217.398,154.214,212.091,154.71,206.599,154.995z M189.158,155.296
	c-1.057,6.184-3.979,10.203-9.047,11.74c1.342,4.17,1.439,9.408,1.564,14.629c12.568-2.91,21.289-10.275,23.252-25.475
	C200.712,154.062,193.546,154.327,189.158,155.296z M164.98,157.476c1.002,12.463,22.902,10.922,21.98-1.021
	C179.767,156.946,172.453,157.302,164.98,157.476z M169.369,165.979c-3.172,3.256-5.725,7.23-7.49,12.117
	c4.316,3.006,11.178,4.539,18.426,4.26c0.123-5.35-0.084-10.418-1.299-14.611C175.369,168.085,171.986,167.21,169.369,165.979z"/>
</svg>
