<?xml version="1.0" encoding="utf-8"?>
<!-- Generator: Adobe Illustrator 14.0.0, SVG Export Plug-In . SVG Version: 6.00 Build 43363)  -->
<!DOCTYPE svg PUBLIC "-//W3C//DTD SVG 1.1//EN" "http://www.w3.org/Graphics/SVG/1.1/DTD/svg11.dtd">
<svg version="1.1" id="Layer_1" xmlns="http://www.w3.org/2000/svg" xmlns:xlink="http://www.w3.org/1999/xlink" x="0px" y="0px"
	 width="100px" height="100px" viewBox="0 0 100 100" enable-background="new 0 0 100 100" xml:space="preserve">
<g id="XMLID_2_">
	<g>
		<path fill="none" stroke="#FFFFFF" stroke-width="2" d="M71.807,2.378c18.383,3.013,27.741,20.29,27.166,35.103h-0.012
			c0.008-0.257,0.012-0.511,0.012-0.768c0-17.17-11.75-31.425-27.188-34.215L71.807,2.378z"/>
		<path fill="none" stroke="#FFFFFF" stroke-width="2" d="M98.973,36.713c0,0.257-0.004,0.511-0.012,0.768H66.245l5.54-34.983
			C87.223,5.288,98.973,19.543,98.973,36.713z"/>
		<path fill="none" stroke="#FFFFFF" stroke-width="2" d="M45.026,49.736c6.58,2.778,4.852,16.483,5.001,13.04
			C50.181,59.333,38.447,46.959,45.026,49.736z"/>
		<path fill="none" stroke="#FFFFFF" stroke-width="2" d="M33.114,43.224c0.024-0.042,0.048-0.099,0.077-0.159
			c-0.016,0.116-0.032,0.202-0.044,0.262c-0.008,0.009-0.016,0.013-0.024,0.013C33.122,43.31,33.118,43.271,33.114,43.224z"/>
		<path fill="none" stroke="#FFFFFF" stroke-width="2" d="M33.122,43.34c0.008,0.047,0.008,0.073,0.008,0.073
			s-0.012-0.017-0.041-0.047C33.098,43.357,33.109,43.353,33.122,43.34z"/>
	</g>
	<g>
		<path fill="none" stroke="#FFFFFF" stroke-width="2" d="M34.688,28.806c-0.526-2.679-1.538-5.623-3.277-8.748
			c0,0-3.941-0.348-5.523,1.541c9.538,5.348,7.7,19.105,7.304,21.466c-0.016,0.116-0.032,0.202-0.044,0.262
			c-0.012,0.056-0.016,0.086-0.016,0.086s0-0.025-0.008-0.073c0-0.03-0.004-0.069-0.008-0.116
			c-0.178-1.683-2.149-14.165-22.118-20.462c1.444,14.654,14.53,17.835,19.657,19.479c0.542,0.176,1.465,0.833,1.938,1.189
			c0.142,0.103,0.243,0.185,0.283,0.219c0.012,0.008,0.02,0.013,0.02,0.013"/>
		<path fill="none" stroke="#FFFFFF" stroke-width="2" d="M33.012,43.413c0,0,0,0,0.004-0.004c0.004-0.013,0.02-0.039,0.041-0.077
			c0.016-0.03,0.032-0.064,0.057-0.107c0.024-0.042,0.048-0.099,0.077-0.159c0.68-1.382,2.966-6.782,1.497-14.255"/>
		<path fill="none" stroke="#FFFFFF" stroke-width="2" d="M33.085,43.366c-0.037,0.025-0.061,0.039-0.069,0.042"/>
		<path fill="none" stroke="#FFFFFF" stroke-width="2" d="M32.875,43.649c-0.562-0.288-11.638-5.932-19.985-3.284
			C3.033,43.49-3.931,56.725,11.692,92.832c2.432,4.559,9.966,5.652,12.746,0.734c2.319,3.936,9.271,6.146,12.977,0
			c5.098,5.408,11.819,4.426,14.138,0c4.213-8.556,6.689-16.213,7.879-22.889c2.909-16.238-1.771-26.634-7.478-29.854
			c-7.527-4.245-17.542,1.713-18.808,2.502c-0.008,0.009-0.016,0.013-0.024,0.013c-0.012,0.013-0.024,0.017-0.032,0.026"/>
		<path fill="none" stroke="#FFFFFF" stroke-width="2" d="M19.801,31.369c6.604,4.554,12.54,11.156,13.256,11.963
			c0.012,0.013,0.02,0.021,0.028,0.035h0.004c0.028,0.03,0.041,0.047,0.041,0.047"/>
		<path fill="none" stroke="#FFFFFF" stroke-width="2" d="M98.961,37.481C98.58,56.294,84.078,71.425,66.245,71.425
			c-2.259,0-4.463-0.243-6.591-0.704"/>
		<path fill="none" stroke="#FFFFFF" stroke-width="2" d="M34.688,28.811v-0.004C37.913,13.229,50.594,2,66.245,2
			c1.89,0,3.739,0.167,5.54,0.498"/>
	</g>
</g>
</svg>
