<?xml version="1.0" encoding="utf-8"?>
<!-- Generator: Adobe Illustrator 14.0.0, SVG Export Plug-In . SVG Version: 6.00 Build 43363)  -->
<!DOCTYPE svg PUBLIC "-//W3C//DTD SVG 1.1//EN" "http://www.w3.org/Graphics/SVG/1.1/DTD/svg11.dtd">
<svg version="1.1" id="Layer_1" xmlns="http://www.w3.org/2000/svg" xmlns:xlink="http://www.w3.org/1999/xlink" x="0px" y="0px"
	 width="100px" height="222.5px" viewBox="126.5 333.5 100 222.5" enable-background="new 126.5 333.5 100 222.5"
	 xml:space="preserve">
<path d="M210.696,371.914c-1.281-2.271-9.057-6.758-8.528-2.896C202.697,372.879,207.842,373.092,210.696,371.914z"/>
<path d="M203.148,357.339c-2.557,1.074-8.457,8.794-4.377,8.727C202.853,365.998,203.905,360.537,203.148,357.339z"/>
<path d="M196.495,358.225c-1.786,1.899-3.753,10.659-0.224,9.003C199.799,365.572,198.47,360.599,196.495,358.225z"/>
<path d="M205.28,364.355c-2.605,0.09-10.17,4.927-6.499,6.235C202.453,371.899,205.011,367.432,205.28,364.355z"/>
<path d="M200.562,378.241c-2.087-0.933-5.664-6.894-1.943-6.601C202.339,371.934,202.01,375.964,200.562,378.241z"/>
<path d="M197.951,379.969c1.201-2.255,0.93-11.213-1.942-8.794C193.137,373.596,195.556,378.119,197.951,379.969z"/>
<path d="M203.1,373.52c-2.619-0.815-9.229-7.242-5.227-7.367S203.495,370.715,203.1,373.52"/>
<path d="M191.971,387.432c1.83-0.705,6.021-6.001,3.089-6.03C192.127,381.374,191.406,385.178,191.971,387.432z"/>
<path d="M203.644,383.407c-0.519-2.021-5.619-7.255-6.016-4.211C197.231,382.24,201.181,383.621,203.644,383.407z"/>
<path d="M203.712,378.359c-1.219-1.538-7.523-3.959-6.677-1.151C197.883,380.015,201.729,379.569,203.712,378.359z"/>
<path d="M198.188,384.227c0.218-1.948-2.554-8.107-3.931-5.518C192.883,381.299,195.929,383.691,198.188,384.227z"/>
<path d="M188.369,379.196c0.923-1.451,5.751-3.461,5.125-0.724C192.87,381.209,189.906,380.525,188.369,379.196z"/>
<path d="M187.369,377.065c1.547,1.141,8.244,1.918,6.757-0.484C192.639,374.179,189.008,375.485,187.369,377.065z"/>
<path d="M208.773,381.666c0.794-1.793,0-8.5-2.09-6.443C204.595,377.278,206.78,380.474,208.773,381.666z"/>
<path d="M214.166,370.559c-1.799-1.059-9.106-1.143-7.23,1.288S212.578,372.454,214.166,370.559"/>
<path d="M210.638,366.946c-1.947-0.223-8.114,2.533-5.528,3.916S210.095,369.205,210.638,366.946z"/>
<path d="M210.895,375.001c-1.227-1.53-7.545-3.916-6.683-1.113C205.075,376.69,208.918,376.222,210.895,375.001z"/>
<path d="M200.4,378.403c-0.377-1.678,1.607-6.516,3.104-4.141S202.425,378.251,200.4,378.403z"/>
<path d="M177.342,338.334c-1.524,2.115-2.33,11.057,0.952,8.955C181.577,345.186,179.609,340.43,177.342,338.334z"/>
<path d="M167.284,351.305c2.048,1.87,11.532,3.982,9.758,0.307C175.267,347.936,169.868,349.275,167.284,351.305z"/>
<path d="M170.883,356.971c2.475,0.824,11.249-1.071,8.265-3.578C176.162,350.886,172.208,354.181,170.883,356.971z"/>
<path d="M172.756,346.423c1.177,2.327,8.742,7.16,8.388,3.278C180.79,345.82,175.661,345.375,172.756,346.423z"/>
<path d="M187.341,344.873c0.029,2.286-3.877,8.035-5.175,4.536C180.869,345.909,184.665,344.515,187.341,344.873z"/>
<path d="M190.004,346.515c-2.551-0.143-10.566,3.867-7.164,5.458C186.243,353.562,189.332,349.468,190.004,346.515z"/>
<path d="M181.99,344.553c0.36,2.719-2.696,11.417-4.49,7.837S179.277,345.372,181.99,344.553"/>
<path d="M199.288,348.808c-1.408-1.364-7.975-2.942-6.77-0.269C193.726,351.211,197.48,350.267,199.288,348.808z"/>
<path d="M190.733,339.906c-1.615,1.32-4.224,8.148-1.295,7.228C192.368,346.215,191.963,342.051,190.733,339.906z"/>
<path d="M186.124,341.964c-0.884,1.751-0.434,8.49,1.76,6.542C190.074,346.559,188.055,343.255,186.124,341.964z"/>
<path d="M193.769,344.512c-1.859,0.621-6.284,5.723-3.356,5.884C193.34,350.556,194.231,346.789,193.769,344.512z"/>
<path d="M193.328,355.535c-1.704-0.227-5.557-3.764-2.811-4.346S193.888,353.583,193.328,355.535z"/>
<path d="M191.815,357.339c0.384-1.882-1.724-8.287-3.279-5.929C186.98,353.769,189.691,356.515,191.815,357.339z"/>
<path d="M186.999,335.981c-1.962,0.033-7.714,3.571-4.971,4.604C184.772,341.618,186.755,338.292,186.999,335.981z"/>
<path d="M174.653,335.754c-0.206,2.076,2.789,8.744,4.206,6.021C180.277,339.051,177.04,336.399,174.653,335.754"/>
<path d="M172.857,340.473c0.616,1.862,5.707,6.299,5.875,3.373C178.901,340.918,175.136,340.016,172.857,340.473z"/>
<path d="M180.059,336.856c-0.873,1.756-0.384,8.492,1.798,6.532C184.037,341.429,181.997,338.137,180.059,336.856z"/>
<path d="M187.554,344.951c-1.363,1.047-6.587,1.278-5.062-1.079C184.019,341.517,186.565,343.177,187.554,344.951z"/>
<path d="M187.634,398.296c-0.147-2.603-5.144-10.062-6.374-6.362C180.03,395.632,184.552,398.093,187.634,398.296z"/>
<path d="M187.294,381.886c-2.769-0.165-11.471,4.159-7.779,5.9C183.207,389.526,186.562,385.09,187.294,381.886z"/>
<path d="M180.932,379.745c-2.44,0.915-8.07,7.908-4.174,7.98C180.655,387.796,181.657,382.748,180.932,379.745z"/>
<path d="M186.11,389.123c-2.378-1.068-11.301-0.068-8.584,2.727C180.243,394.646,184.511,391.765,186.11,389.123z"/>
<path d="M175.747,399.501c-1.461-1.758-2.04-8.685,1.17-6.78C180.125,394.625,178.053,398.097,175.747,399.501z"/>
<path d="M172.643,399.9c2.073-1.493,5.783-9.651,2.138-8.749C171.135,392.056,171.31,397.183,172.643,399.9z"/>
<path d="M180.108,396.386c-1.991-1.889-5.085-10.571-1.438-8.918C182.316,389.122,181.701,394.043,180.108,396.386"/>
<path d="M163.983,403.957c1.954,0.175,8.05-2.729,5.432-4.049C166.796,398.59,164.471,401.686,163.983,403.957z"/>
<path d="M176.233,405.498c0.426-2.043-1.841-8.992-3.54-6.435C170.994,401.62,173.929,404.603,176.233,405.498z"/>
<path d="M178.522,400.997c-0.415-1.917-5.004-6.872-5.483-3.979C172.561,399.911,176.209,401.209,178.522,400.997z"/>
<path d="M170.977,403.825c1.055-1.652,1.286-8.402-1.092-6.686C167.508,398.856,169.185,402.346,170.977,403.825z"/>
<path d="M164.385,394.978c1.468-0.895,6.687-0.568,4.919,1.612C167.535,398.77,165.178,396.848,164.385,394.978z"/>
<path d="M164.428,392.624c0.885,1.706,6.551,5.359,6.278,2.548C170.431,392.359,166.596,391.929,164.428,392.624z"/>
<path d="M181.605,406.199c1.503-1.26,3.751-7.627,0.968-6.705C179.79,400.417,180.342,404.25,181.605,406.199z"/>
<path d="M191.346,398.611c-1.146-1.744-7.668-5.045-7.057-2.035C184.9,399.585,189.085,399.611,191.346,398.611"/>
<path d="M189.773,393.812c-1.649-1.06-8.398-1.308-6.688,1.074S188.29,395.601,189.773,393.812z"/>
<path d="M186.449,401.154c-0.425-1.915-5.043-6.844-5.506-3.948C180.481,400.102,184.139,401.378,186.449,401.154z"/>
<path d="M175.531,399.575c0.402-1.672,4.317-5.138,4.613-2.345C180.44,400.021,177.416,400.333,175.531,399.575z"/>
<path d="M184.121,372.856c2.556-0.511,9.238-6.507,5.403-7.204C185.689,364.955,183.89,369.777,184.121,372.856z"/>
<path d="M200.32,370.214c-0.226-2.764-5.729-10.772-6.935-6.873C192.182,367.241,197.045,369.939,200.32,370.214z"/>
<path d="M201.546,363.615c-1.249-2.289-8.964-6.88-8.487-3.012C193.536,364.472,198.675,364.754,201.546,363.615z"/>
<path d="M192.988,370.06c0.725-2.504-1.521-11.198-3.905-8.116C186.697,365.026,190.148,368.847,192.988,370.06z"/>
<path d="M181.258,361.257c1.535-1.694,8.312-3.241,6.878,0.205C186.7,364.907,182.972,363.343,181.258,361.257z"/>
<path d="M180.427,358.239c1.77,1.844,10.368,4.37,8.962,0.887C187.98,355.644,182.93,356.537,180.427,358.239z"/>
<path d="M184.956,365.137c1.589-2.236,9.751-6.521,8.626-2.677C192.457,366.302,187.499,366.385,184.956,365.137"/>
<path d="M175.192,350.236c0.102,1.958,3.833,7.586,4.772,4.809C180.902,352.267,177.51,350.399,175.192,350.236z"/>
<path d="M175.389,362.581c2.082,0.134,8.644-3.086,5.873-4.409S175.951,360.174,175.389,362.581z"/>
<path d="M180.166,364.215c1.84-0.68,6.101-5.919,3.169-5.988C180.404,358.16,179.632,361.954,180.166,364.215z"/>
<path d="M176.306,357.141c1.785,0.813,8.5,0.093,6.467-2.021C180.738,353.009,177.518,355.16,176.306,357.141z"/>
<path d="M184.139,349.373c1.094,1.328,1.504,6.541-0.904,5.096C180.827,353.024,182.399,350.42,184.139,349.373z"/>
<path d="M186.476,349.084c-1.564,1.115-4.386,7.239-1.64,6.573C187.582,354.99,187.469,351.134,186.476,349.084z"/>
<path d="M175.449,367.998c1.458,1.312,8.079,2.643,6.774,0.017S177.201,366.473,175.449,367.998z"/>
<path d="M184.33,376.576c1.565-1.38,3.917-8.301,1.023-7.272C182.46,370.331,183.022,374.478,184.33,376.576"/>
<path d="M188.86,374.345c0.816-1.782,0.114-8.5-2.003-6.471C184.739,369.902,186.882,373.127,188.86,374.345z"/>
<path d="M181.125,372.086c1.835-0.69,6.066-5.955,3.135-6.006C181.328,366.029,180.578,369.828,181.125,372.086z"/>
<path d="M181.154,361.054c1.711,0.163,5.693,3.553,2.97,4.238C181.402,365.977,180.669,363.026,181.154,361.054z"/>
<path d="M171.529,358.952c-2.194,1.409-6.226,9.431-2.4,8.68C172.953,366.881,172.869,361.735,171.529,358.952z"/>
<path d="M157.413,367.326c1.219,2.491,9.266,7.937,8.964,3.867C166.075,367.123,160.562,366.386,157.413,367.326z"/>
<path d="M158.681,373.917c1.999,1.674,10.857,3.132,9-0.295C165.825,370.195,160.937,371.809,158.681,373.917z"/>
<path d="M164.295,364.793c0.24,2.596,5.503,9.87,6.598,6.129C171.989,367.181,167.382,364.885,164.295,364.793z"/>
<path d="M178.43,368.705c-0.811,2.138-6.556,6.052-6.479,2.32C172.03,367.294,176.072,367.39,178.43,368.705z"/>
<path d="M180.306,371.212c-2.32-1.07-11.249-0.283-8.668,2.446C174.22,376.385,178.596,373.71,180.306,371.212z"/>
<path d="M173.57,366.443c-0.663,2.662-6.698,9.629-7.053,5.642S170.747,366.21,173.57,366.443"/>
<path d="M188.099,376.751c-0.809-1.786-6.337-5.665-6.197-2.735C182.042,376.945,185.883,377.445,188.099,376.751z"/>
<path d="M183.409,365.33c-1.986,0.635-6.92,6.028-3.857,6.249C182.614,371.799,183.765,367.777,183.409,365.33z"/>
<path d="M178.366,365.553c-1.465,1.305-3.519,7.739-0.765,6.732C180.354,371.278,179.688,367.463,178.366,365.553z"/>
<path d="M184.543,370.729c-1.959-0.105-7.948,3.017-5.283,4.241S184.137,373.017,184.543,370.729z"/>
<path d="M180.086,380.821c-1.502-0.837-3.787-5.54-1.019-5.075C181.836,376.213,181.322,379.21,180.086,380.821z"/>
<path d="M178.017,381.943c1.048-1.61,1.439-8.341-0.874-6.718C174.83,376.848,176.343,380.397,178.017,381.943z"/>
<path d="M181.376,360.309c-1.836-0.689-8.485,0.489-6.313,2.458C177.236,364.735,180.301,362.369,181.376,360.309z"/>
<path d="M169.977,355.566c-0.954,1.855-0.617,9.158,1.702,7.144C173.996,360.697,171.96,357.042,169.977,355.566"/>
<path d="M166.573,359.296c-0.11,1.958,2.996,7.955,4.228,5.294C172.031,361.928,168.859,359.708,166.573,359.296z"/>
<path d="M174.599,358.576c-1.456,1.312-3.473,7.758-0.725,6.736C176.621,364.289,175.933,360.478,174.599,358.576z"/>
<path d="M178.601,368.857c-1.653,0.473-6.598-1.23-4.313-2.862C176.572,364.364,178.333,366.844,178.601,368.857z"/>
<path d="M169.991,377.391c-2.106-0.31-8.891,2.464-6.134,4.054C166.614,383.035,169.323,379.822,169.991,377.391z"/>
<path d="M156.81,374.972c-0.585,2.187,1.445,9.856,3.443,7.189C162.251,379.494,159.253,376.083,156.81,374.972z"/>
<path d="M154.055,379.708c0.332,2.104,5.002,7.752,5.699,4.647C160.449,381.25,156.574,379.622,154.055,379.708z"/>
<path d="M162.405,377.105c-1.245,1.726-1.907,9.027,0.773,7.312C165.86,382.702,164.255,378.817,162.405,377.105z"/>
<path d="M169.006,387.096c-1.646,0.88-7.281,0.207-5.231-2.047C165.824,382.794,168.261,385.021,169.006,387.096z"/>
<path d="M168.816,389.645c-0.855-1.903-6.772-6.208-6.647-3.145C162.295,389.563,166.423,390.265,168.816,389.645z"/>
<path d="M167.229,383.097c-1.835,1.282-9.289,2.333-7.368-0.312C161.782,380.14,165.617,381.438,167.229,383.097"/>
<path d="M170.641,397.235c0.46-1.534-0.863-6.886-2.347-5.009C166.809,394.105,168.905,396.473,170.641,397.235z"/>
<path d="M173.882,387.689c-1.563-0.675-7.493-0.002-5.727,1.777C169.922,391.245,172.788,389.387,173.882,387.689z"/>
<path d="M170.658,385.121c-1.602,0.018-6.317,2.876-4.083,3.734C168.811,389.712,170.446,387.007,170.658,385.121z"/>
<path d="M171.683,391.62c-1.149-1.115-6.51-2.406-5.527-0.224C167.139,393.58,170.205,392.811,171.683,391.62z"/>
<path d="M163.525,395.441c-0.476-1.321,0.642-5.441,2.096-3.669C167.075,393.544,165.151,395.113,163.525,395.441z"/>
<path d="M161.65,395.021c1.509-0.428,5.361-4.361,3.066-4.604C162.423,390.176,161.449,393.173,161.65,395.021z"/>
<path d="M175.323,383.508c-0.761-1.409-5.485-4.251-5.203-1.874S173.558,384.199,175.323,383.508z"/>
<path d="M170.853,374.474c-1.583,0.63-5.292,5.305-2.785,5.31C170.574,379.788,171.281,376.446,170.853,374.474"/>
<path d="M166.757,374.944c-1.118,1.146-2.424,6.503-0.238,5.525C168.704,379.492,167.943,376.423,166.757,374.944z"/>
<path d="M172.083,378.806c-1.601,0.026-6.3,2.911-4.061,3.756C170.263,383.407,171.883,380.692,172.083,378.806z"/>
<path d="M169.029,387.28c-1.271-0.596-3.401-4.295-1.119-4.075C170.192,383.428,169.945,385.897,169.029,387.28z"/>
<path d="M146.284,352.158c1.105,2.361,8.522,7.421,8.286,3.53C154.332,351.797,149.22,351.198,146.284,352.158z"/>
<path d="M152.714,367.259c2.63-0.877,9.095-8.132,5.021-8.372S152.199,364.014,152.714,367.259z"/>
<path d="M159.415,366.877c1.924-1.76,4.543-10.346,0.9-8.961C156.672,359.302,157.624,364.361,159.415,366.877z"/>
<path d="M151.116,360.103c2.605,0.106,10.512-4.147,6.949-5.728C154.502,352.793,151.615,357.055,151.116,360.103z"/>
<path d="M156.866,346.611c2.011,1.087,5.129,7.299,1.44,6.728C154.619,352.767,155.25,348.773,156.866,346.611z"/>
<path d="M159.599,345.084c-1.368,2.159-1.771,11.112,1.276,8.916C163.92,351.802,161.849,347.11,159.599,345.084z"/>
<path d="M153.979,351.127c2.55,1.01,8.658,7.916,4.658,7.739C154.637,358.69,153.375,353.896,153.979,351.127"/>
<path d="M166.123,338.093c-1.878,0.565-6.454,5.531-3.533,5.78C165.512,344.122,166.517,340.382,166.123,338.093z"/>
<path d="M154.181,341.228c0.365,2.054,5.058,7.658,5.682,4.652C160.487,342.874,156.652,341.2,154.181,341.228z"/>
<path d="M153.733,346.256c1.099,1.625,7.204,4.513,6.571,1.649C159.67,345.044,155.802,345.199,153.733,346.256z"/>
<path d="M159.683,340.821c-0.363,1.927,1.937,8.276,3.503,5.798S161.896,341.525,159.683,340.821z"/>
<path d="M169.095,346.576c-1.028,1.377-5.994,3.019-5.166,0.336C164.759,344.23,167.662,345.136,169.095,346.576z"/>
<path d="M169.933,348.775c-1.456-1.253-8.076-2.533-6.775-0.024C164.46,351.258,168.179,350.229,169.933,348.775z"/>
<path d="M148.935,342.578c-0.927,1.729-0.64,8.477,1.6,6.583C152.772,347.268,150.833,343.916,148.935,342.578z"/>
<path d="M142.722,353.248c1.713,1.191,8.995,1.825,7.307-0.74C148.341,349.944,144.448,351.479,142.722,353.248"/>
<path d="M145.969,357.116c1.926,0.368,8.282-1.916,5.807-3.489C149.301,352.054,146.679,354.904,145.969,357.116z"/>
<path d="M146.318,349.065c1.107,1.618,7.229,4.472,6.581,1.611C152.249,347.818,148.38,347.996,146.318,349.065z"/>
<path d="M157.039,346.462c0.249,1.701-2.093,6.376-3.408,3.896C152.317,347.877,155.008,346.46,157.039,346.462z"/>
<path d="M132.562,379.003c2.313,1.204,11.278,0.715,8.726-2.231C138.736,373.827,134.311,376.458,132.562,379.003z"/>
<path d="M146.846,387.091c1.556-2.296,2.281-11.986-1.101-9.701C142.364,379.675,144.465,384.825,146.846,387.091z"/>
<path d="M151.936,382.714c0.459-2.566-2.678-10.978-4.73-7.664C145.155,378.366,148.983,381.805,151.936,382.714z"/>
<path d="M141.228,382.378c2.133-1.499,5.828-9.682,2.039-8.773C139.476,374.514,139.773,379.653,141.228,382.378z"/>
<path d="M137.597,368.168c2.258-0.358,8.509,2.681,5.232,4.468C139.553,374.422,137.627,370.868,137.597,368.168z"/>
<path d="M138.839,365.295c0.226,2.544,5.345,9.901,6.431,6.306C146.353,368.004,141.856,365.537,138.839,365.295z"/>
<path d="M138.048,373.509c2.64-0.747,11.686,1.025,8.402,3.316C143.167,379.116,139.25,376.075,138.048,373.509"/>
<path d="M139.773,355.778c-1.149,1.59-1.766,8.315,0.707,6.737C142.951,360.938,141.477,357.357,139.773,355.778z"/>
<path d="M132.192,365.524c1.539,1.409,8.671,3.008,7.34,0.241C138.202,362.999,134.14,364,132.192,365.524z"/>
<path d="M134.893,369.79c1.86,0.623,8.463-0.792,6.221-2.682C138.872,365.219,135.894,367.694,134.893,369.79z"/>
<path d="M136.315,361.858c0.883,1.751,6.568,5.396,6.306,2.476C142.358,361.413,138.501,361.073,136.315,361.858z"/>
<path d="M147.288,360.709c0.02,1.718-2.925,6.039-3.898,3.406C142.418,361.481,145.274,360.436,147.288,360.709z"/>
<path d="M149.29,361.948c-1.918-0.111-7.953,2.896-5.396,4.097C146.452,367.244,148.78,364.167,149.29,361.948z"/>
<path d="M128.847,369.785c0.314,1.937,4.642,7.121,5.27,4.256C134.745,371.177,131.168,369.693,128.847,369.785z"/>
<path d="M130.396,382.034c-6.497,0.295,19.686-0.031,5.353-5.027C132.851,375.996,130.691,379.58,130.396,382.034"/>
<path d="M135.325,383.133c1.753-0.877,5.413-6.554,2.492-6.3C134.896,377.088,134.545,380.945,135.325,383.133z"/>
<path d="M130.711,376.526c1.863,0.612,8.459-0.842,6.205-2.718C134.663,371.933,131.698,374.424,130.711,376.526z"/>
<path d="M137.643,367.945c1.232,1.199,2.212,6.335-0.339,5.164C134.753,371.938,136.03,369.178,137.643,367.945z"/>
<path d="M211.923,401.756c0.44-2.569-2.758-10.958-4.785-7.629S208.965,400.867,211.923,401.756z"/>
<path d="M215.27,385.688c-2.662-0.781-12.111,1.481-8.903,4.006C209.573,392.217,213.837,388.645,215.27,385.688z"/>
<path d="M209.549,382.174c-2.584,0.346-9.639,5.9-5.856,6.842S209.582,385.264,209.549,382.174z"/>
<path d="M212.493,392.475c-2.077-1.574-10.997-2.598-8.976,0.734C205.539,396.542,210.343,394.691,212.493,392.475z"/>
<path d="M200.068,400.267c-1.03-2.04-0.041-8.922,2.66-6.346C205.428,396.496,202.63,399.415,200.068,400.267z"/>
<path d="M196.954,399.96c2.354-0.991,7.799-8.11,4.044-8.048C197.242,391.978,196.264,397.012,196.954,399.96z"/>
<path d="M205.018,398.207c-1.518-2.285-2.587-11.441,0.596-9.013C208.797,391.624,207.095,396.28,205.018,398.207"/>
<path d="M187.605,401.974c1.864,0.608,8.457-0.855,6.201-2.729C191.55,397.373,188.59,399.869,187.605,401.974z"/>
<path d="M199.199,406.22c0.872-1.895,0.221-9.176-2.009-7.063C194.961,401.267,197.153,404.831,199.199,406.22z"/>
<path d="M202.438,402.347c0.026-1.961-3.336-7.818-4.452-5.106C196.871,399.951,200.136,402.034,202.438,402.347z"/>
<path d="M194.45,403.412c1.399-1.375,3.136-7.9,0.435-6.761C192.184,397.792,193.035,401.569,194.45,403.412z"/>
<path d="M190.009,393.312c1.632-0.544,6.645,0.944,4.433,2.674C192.229,397.714,190.363,395.312,190.009,393.312z"/>
<path d="M190.578,391.028c0.479,1.86,5.184,6.69,5.547,3.89C196.488,392.115,192.848,390.837,190.578,391.028z"/>
<path d="M204.277,408.107c1.748-0.891,5.365-6.594,2.445-6.318C203.804,402.065,203.482,405.924,204.277,408.107z"/>
<path d="M215.47,402.895c-0.726-1.956-6.342-6.634-6.421-3.564C208.971,402.399,213.042,403.362,215.47,402.895"/>
<path d="M215.014,397.866c-1.37-1.402-7.893-3.156-6.76-0.452C209.388,400.118,213.167,399.275,215.014,397.866z"/>
<path d="M210.129,404.275c0.015-1.961-3.381-7.799-4.481-5.08C204.548,401.912,207.825,403.976,210.129,404.275z"/>
<path d="M199.842,400.29c0.767-1.539,5.358-4.038,5.021-1.251C204.526,401.825,201.508,401.451,199.842,400.29z"/>
<path d="M193.244,423.743c2.108-1.534,5.669-9.775,1.894-8.805C191.363,415.909,191.745,421.043,193.244,423.743z"/>
<path d="M206.853,414.564c-1.362-2.416-9.712-7.387-9.175-3.34C198.216,415.271,203.762,415.686,206.853,414.564z"/>
<path d="M205.205,408.058c-2.094-1.556-11.021-2.498-8.97,0.816C198.288,412.188,203.074,410.293,205.205,408.058z"/>
<path d="M200.128,417.492c-0.391-2.578-6.066-9.534-6.942-5.736C192.309,415.553,197.041,417.579,200.128,417.492z"/>
<path d="M185.79,414.406c0.687-2.181,6.194-6.421,6.333-2.691C192.261,415.444,188.22,415.583,185.79,414.406z"/>
<path d="M183.772,412.013c2.379,0.934,11.246-0.369,8.512-2.944C189.549,406.495,185.334,409.42,183.772,412.013z"/>
<path d="M190.772,416.383c0.509-2.695,6.129-10.002,6.714-6.041C198.072,414.302,193.604,416.452,190.772,416.383"/>
<path d="M175.67,406.934c0.911,1.736,6.656,5.287,6.346,2.372C181.706,406.39,177.844,406.113,175.67,406.934z"/>
<path d="M181.014,418.064c1.946-0.749,6.56-6.42,3.489-6.463C181.434,411.56,180.519,415.642,181.014,418.064z"/>
<path d="M186.037,417.549c1.386-1.387,3.063-7.929,0.372-6.764C183.72,411.95,184.605,415.719,186.037,417.549z"/>
<path d="M179.57,412.74c1.961-0.009,7.76-3.473,5.027-4.541C181.867,407.132,179.843,410.433,179.57,412.74z"/>
<path d="M183.436,402.406c1.547,0.749,4.101,5.312,1.311,5.007C181.955,407.108,182.293,404.086,183.436,402.406z"/>
<path d="M185.436,401.166c-0.954,1.668-0.954,8.41,1.262,6.656C188.911,406.067,187.195,402.613,185.436,401.166z"/>
<path d="M183.336,422.959c1.873,0.582,8.443-0.98,6.159-2.82C187.211,418.301,184.289,420.841,183.336,422.959z"/>
<path d="M194.99,427.033c0.846-1.908,0.085-9.178-2.112-7.033C190.68,422.145,192.926,425.675,194.99,427.033"/>
<path d="M198.172,423.112c-0.003-1.961-3.452-7.768-4.526-5.039C192.57,420.801,195.866,422.834,198.172,423.112z"/>
<path d="M190.201,424.297c1.379-1.396,3.019-7.947,0.335-6.767C187.852,418.71,188.761,422.475,190.201,424.297z"/>
<path d="M185.611,414.265c1.623-0.567,6.657,0.845,4.471,2.606C187.896,418.631,185.995,416.259,185.611,414.265z"/>
<path d="M219.015,420.468c-0.407-2.575-6.131-9.492-6.981-5.688C211.183,418.584,215.929,420.576,219.015,420.468z"/>
<path d="M217.023,404.176c-2.771,0.114-10.993,5.293-7.145,6.653S216.617,407.438,217.023,404.176z"/>
<path d="M210.479,402.687c-2.337,1.157-7.233,8.682-3.349,8.361C211.015,410.725,211.502,405.601,210.479,402.687z"/>
<path d="M216.574,411.495c-2.473-0.824-11.249,1.071-8.264,3.578C211.295,417.58,215.249,414.284,216.574,411.495z"/>
<path d="M207.311,422.865c-1.631-1.603-2.905-8.436,0.48-6.864C211.176,417.572,209.463,421.235,207.311,422.865z"/>
<path d="M204.263,423.574c1.911-1.694,4.78-10.186,1.245-8.919C201.971,415.922,202.661,421.005,204.263,423.574z"/>
<path d="M211.335,419.325c-2.17-1.678-6.124-10.005-2.33-8.727C212.801,411.876,212.685,416.833,211.335,419.325"/>
<path d="M196.056,428.483c1.96-0.022,7.734-3.526,4.996-4.575C198.314,422.859,196.312,426.174,196.056,428.483z"/>
<path d="M208.398,428.781c0.217-2.074-2.737-8.76-4.171-6.045C202.796,425.452,206.016,428.123,208.398,428.781z"/>
<path d="M210.222,424.073c-0.604-1.865-5.671-6.332-5.855-3.406S207.942,424.517,210.222,424.073z"/>
<path d="M203,427.647c0.884-1.75,0.432-8.489-1.76-6.542C199.049,423.054,201.068,426.357,203,427.647z"/>
<path d="M195.551,419.51c1.37-1.039,6.596-1.239,5.057,1.107C199.066,422.965,196.528,421.29,195.551,419.51z"/>
<path d="M195.356,417.164c1.052,1.607,7.058,4.671,6.502,1.9C201.301,416.295,197.444,416.253,195.356,417.164z"/>
<path d="M213.813,428.938c1.37-1.404,2.964-7.966,0.288-6.768S212.359,427.125,213.813,428.938z"/>
<path d="M222.74,420.407c-1.316-1.619-8.138-4.246-7.227-1.314C216.426,422.025,220.591,421.63,222.74,420.407"/>
<path d="M220.693,415.792c-1.749-0.888-8.489-0.455-6.548,1.742C216.088,419.731,219.397,417.72,220.693,415.792z"/>
<path d="M218.125,423.43c-0.616-1.86-5.706-6.3-5.875-3.372C212.082,422.985,215.848,423.887,218.125,423.43z"/>
<path d="M207.104,422.96c0.231-1.704,3.777-5.546,4.354-2.798C212.031,422.909,209.054,423.523,207.104,422.96z"/>
<path d="M211.767,441.346c1.286-2.268,1.123-11.244-1.913-8.801C206.816,434.989,209.285,439.507,211.767,441.346z"/>
<path d="M220.366,427.365c-2.238-1.637-11.896-2.715-9.734,0.748S218.016,429.662,220.366,427.365z"/>
<path d="M216.177,422.121c-2.548-0.552-11.067,2.278-7.83,4.449C211.585,428.74,215.161,425.037,216.177,422.121z"/>
<path d="M215.452,432.81c-1.42-2.187-9.464-6.177-8.692-2.355C207.53,434.274,212.677,434.164,215.452,432.81z"/>
<path d="M201.12,435.923c-0.275-2.27,2.988-8.406,4.655-5.067C207.441,434.194,203.818,435.99,201.12,435.923z"/>
<path d="M198.295,434.576c2.551-0.132,10.089-4.982,6.535-6.197C201.274,427.165,198.646,431.569,198.295,434.576z"/>
<path d="M206.474,435.664c-0.65-2.665,1.45-11.641,3.62-8.275S209.082,434.558,206.474,435.664"/>
<path d="M188.818,433.298c1.547,1.206,8.245,2.065,6.758-0.462C194.089,430.31,190.458,431.653,188.818,433.298z"/>
<path d="M198.282,441.227c1.464-1.486,3.32-8.556,0.508-7.326S196.83,439.227,198.282,441.227z"/>
<path d="M202.643,438.683c0.69-1.835-0.484-8.487-2.455-6.314C198.22,434.541,200.584,437.607,202.643,438.683z"/>
<path d="M194.768,436.975c1.783-0.818,5.631-6.368,2.703-6.213C194.543,430.919,194.062,434.761,194.768,436.975z"/>
<path d="M194.018,425.968c1.72,0.042,5.93,3.143,3.263,4.018C194.613,430.861,193.672,427.969,194.018,425.968z"/>
<path d="M195.328,424.012c-0.18,1.913,2.605,8.053,3.898,5.54C200.518,427.04,197.527,424.602,195.328,424.012z"/>
<path d="M202.419,444.726c1.945-0.245,7.283-4.381,4.444-5.112C204.023,438.883,202.412,442.402,202.419,444.726z"/>
<path d="M214.716,443.621c-0.02-2.086-3.715-8.393-4.829-5.532C208.771,440.949,212.274,443.237,214.716,443.621"/>
<path d="M215.993,438.735c-0.812-1.784-6.353-5.647-6.205-2.719C209.937,438.944,213.778,439.436,215.993,438.735z"/>
<path d="M209.224,443.107c0.679-1.84-0.533-8.484-2.491-6.301C204.776,438.99,207.159,442.043,209.224,443.107z"/>
<path d="M200.899,435.867c1.243-1.188,6.411-1.98,5.148,0.526C204.784,438.9,202.072,437.525,200.899,435.867z"/>
<path d="M202.072,455.575c1.781-0.821,5.62-6.378,2.692-6.217S201.364,453.363,202.072,455.575z"/>
<path d="M213.461,450.805c-0.648-1.982-6.077-6.877-6.276-3.812C206.986,450.056,211.017,451.178,213.461,450.805z"/>
<path d="M213.203,445.763c-1.315-1.455-7.763-3.464-6.737-0.717C207.493,447.792,211.302,447.099,213.203,445.763z"/>
<path d="M208.07,451.976c0.091-1.959-3.073-7.926-4.278-5.253S205.78,451.586,208.07,451.976z"/>
<path d="M197.947,447.59c0.826-1.507,5.514-3.826,5.067-1.054C202.568,449.308,199.566,448.816,197.947,447.59z"/>
<path d="M196.811,445.529c1.617,1.037,8.351,1.381,6.713-0.921C201.883,442.308,198.345,443.845,196.811,445.529z"/>
<path d="M218.468,448.736c0.677-1.841-0.549-8.482-2.503-6.296C214.014,444.628,216.4,447.677,218.468,448.736z"/>
<path d="M223.131,437.304c-1.862-0.94-9.162-0.552-7.132,1.753C218.028,441.36,221.669,439.298,223.131,437.304"/>
<path d="M219.377,433.927c-1.959-0.097-7.934,3.053-5.264,4.265C216.782,439.404,218.981,436.216,219.377,433.927z"/>
<path d="M220.153,441.947c-1.323-1.447-7.783-3.419-6.74-0.678C214.454,444.01,218.261,443.294,220.153,441.947z"/>
<path d="M209.901,446.021c-0.484-1.65,1.182-6.606,2.83-4.334C214.379,443.961,211.912,445.739,209.901,446.021z"/>
<path d="M204.731,465.853c1.763-0.86,5.477-6.501,2.552-6.275C204.361,459.805,203.974,463.657,204.731,465.853z"/>
<path d="M216.01,460.831c-0.692-1.968-6.228-6.74-6.358-3.673S213.575,461.257,216.01,460.831z"/>
<path d="M215.641,455.796c-1.348-1.426-7.838-3.291-6.752-0.567C209.977,457.951,213.77,457.174,215.641,455.796z"/>
<path d="M210.646,462.121c0.048-1.96-3.248-7.855-4.394-5.156S208.349,461.783,210.646,462.121z"/>
<path d="M200.429,457.962c0.793-1.526,5.428-3.948,5.043-1.167C205.086,459.576,202.074,459.151,200.429,457.962z"/>
<path d="M199.246,455.926c1.64,1.002,8.38,1.195,6.69-1.069C204.246,452.593,200.743,454.208,199.246,455.926z"/>
<path d="M164.905,431.699c1.653,1.058,8.402,1.295,6.688-1.084C169.879,428.236,166.386,429.91,164.905,431.699z"/>
<path d="M175.062,438.72c1.32-1.615,2.517-8.825-0.17-7.342C172.203,432.862,173.431,436.862,175.062,438.72z"/>
<path d="M179.169,435.784c0.517-1.892-1.267-8.406-3.027-6.061C174.383,432.068,177.02,434.903,179.169,435.784z"/>
<path d="M171.169,434.811c1.7-0.979,5.02-6.861,2.118-6.436C170.387,428.802,170.264,432.672,171.169,434.811z"/>
<path d="M169.407,423.92c1.715-0.116,6.193,2.581,3.619,3.699C170.451,428.737,169.247,425.944,169.407,423.92z"/>
<path d="M170.53,421.852c-0.002,1.921,3.339,7.778,4.394,5.157S172.775,422.235,170.53,421.852z"/>
<path d="M177.227,427.23c1.763-0.86,5.477-6.502,2.553-6.275C176.856,421.182,176.469,425.034,177.227,427.23z"/>
<path d="M188.507,422.209c-0.693-1.969-6.229-6.741-6.359-3.674C182.017,421.603,186.071,422.636,188.507,422.209z"/>
<path d="M188.136,417.173c-1.347-1.425-7.838-3.291-6.751-0.566C182.473,419.329,186.265,418.551,188.136,417.173z"/>
<path d="M183.142,423.498c0.049-1.96-3.247-7.855-4.394-5.156C177.604,421.042,180.845,423.16,183.142,423.498z"/>
<path d="M172.924,419.34c0.794-1.526,5.428-3.947,5.043-1.167S174.57,420.528,172.924,419.34z"/>
<path d="M171.742,417.303c1.64,1.001,8.379,1.196,6.689-1.069C176.742,413.97,173.238,415.586,171.742,417.303z"/>
<path d="M183.212,439.5c1.763-0.86,5.478-6.501,2.554-6.275C182.843,433.451,182.455,437.305,183.212,439.5z"/>
<path d="M194.491,434.479c-0.692-1.968-6.228-6.741-6.358-3.674C188.003,433.873,192.057,434.905,194.491,434.479z"/>
<path d="M194.122,429.443c-1.347-1.426-7.838-3.291-6.752-0.567C188.458,431.599,192.251,430.82,194.122,429.443z"/>
<path d="M189.128,435.768c0.048-1.96-3.248-7.855-4.394-5.155C183.589,433.312,186.83,435.431,189.128,435.768z"/>
<path d="M178.91,431.609c0.793-1.526,5.428-3.947,5.043-1.167C183.567,433.223,180.557,432.799,178.91,431.609z"/>
<path d="M177.729,429.573c1.64,1.001,8.379,1.195,6.69-1.069C182.728,426.239,179.225,427.854,177.729,429.573z"/>
<path d="M176.62,450.78c1.762-0.86,5.476-6.501,2.552-6.275C176.249,444.732,175.861,448.584,176.62,450.78z"/>
<path d="M187.899,445.759c-0.693-1.968-6.229-6.74-6.359-3.674C181.41,445.152,185.464,446.186,187.899,445.759z"/>
<path d="M187.528,440.724c-1.347-1.426-7.838-3.291-6.751-0.567C181.865,442.879,185.658,442.101,187.528,440.724z"/>
<path d="M182.535,447.049c0.048-1.961-3.248-7.855-4.395-5.156C176.996,444.592,180.237,446.71,182.535,447.049z"/>
<path d="M172.317,442.89c0.792-1.526,5.427-3.948,5.043-1.167C176.976,444.504,173.963,444.079,172.317,442.89z"/>
<path d="M171.135,440.853c1.64,1.002,8.379,1.196,6.69-1.068C176.135,437.52,172.631,439.136,171.135,440.853z"/>
<path d="M168.09,419.645c1.763-0.86,5.477-6.501,2.553-6.275C167.72,413.596,167.332,417.448,168.09,419.645z"/>
<path d="M179.37,414.623c-0.692-1.968-6.229-6.741-6.359-3.674S176.934,415.05,179.37,414.623z"/>
<path d="M179,409.588c-1.347-1.426-7.838-3.291-6.752-0.567C173.336,411.743,177.129,410.966,179,409.588z"/>
<path d="M174.007,415.913c0.047-1.961-3.249-7.855-4.395-5.156S171.708,415.574,174.007,415.913z"/>
<path d="M163.788,411.754c0.793-1.526,5.427-3.947,5.043-1.167C168.446,413.368,165.434,412.943,163.788,411.754z"/>
<path d="M162.606,409.718c1.64,1.001,8.379,1.194,6.69-1.069C167.606,406.384,164.102,408,162.606,409.718z"/>
<path d="M212.033,478.765c0.83-1.777,0.182-8.5-1.952-6.488C207.948,474.287,210.063,477.529,212.033,478.765z"/>
<path d="M217.662,467.775c-1.775-1.098-9.08-1.339-7.257,1.131S216.033,469.635,217.662,467.775z"/>
<path d="M214.213,464.088c-1.943-0.265-8.167,2.356-5.612,3.795C211.156,469.319,213.621,466.334,214.213,464.088z"/>
<path d="M214.296,472.146c-1.193-1.557-7.459-4.077-6.657-1.257C208.441,473.709,212.294,473.324,214.296,472.146z"/>
<path d="M203.73,475.32c-0.341-1.686,1.747-6.479,3.193-4.072C208.368,473.654,205.758,475.214,203.73,475.32z"/>
<path d="M201.532,474.478c1.905-0.25,7.273-4.328,4.537-5.031C203.332,468.744,201.618,472.201,201.532,474.478z"/>
<path d="M213.538,499.045c0.833-1.776,0.185-8.498-1.949-6.487C209.454,494.567,211.571,497.812,213.538,499.045z"/>
<path d="M219.168,488.057c-1.773-1.098-9.079-1.34-7.256,1.131C213.736,491.657,217.54,489.916,219.168,488.057z"/>
<path d="M215.721,484.369c-1.943-0.266-8.168,2.356-5.613,3.795C212.664,489.602,215.128,486.615,215.721,484.369z"/>
<path d="M215.802,492.427c-1.192-1.556-7.458-4.077-6.656-1.256C209.948,493.99,213.801,493.605,215.802,492.427z"/>
<path d="M205.236,495.603c-0.341-1.687,1.749-6.48,3.194-4.074C209.876,493.936,207.266,495.495,205.236,495.603z"/>
<path d="M203.039,494.759c1.905-0.25,7.273-4.329,4.537-5.031C204.839,489.025,203.126,492.482,203.039,494.759z"/>
<path d="M212.083,520.259c0.832-1.776,0.184-8.498-1.95-6.488C207.999,515.781,210.115,519.024,212.083,520.259z"/>
<path d="M217.714,509.27c-1.775-1.097-9.081-1.339-7.258,1.132C212.28,512.871,216.084,511.131,217.714,509.27z"/>
<path d="M214.265,505.582c-1.943-0.265-8.167,2.357-5.612,3.796C211.208,510.814,213.673,507.829,214.265,505.582z"/>
<path d="M214.347,513.641c-1.193-1.557-7.459-4.077-6.656-1.257S212.346,514.818,214.347,513.641z"/>
<path d="M203.781,516.815c-0.341-1.686,1.748-6.479,3.193-4.073S205.81,516.708,203.781,516.815z"/>
<path d="M201.583,515.973c1.905-0.25,7.273-4.328,4.537-5.031C203.383,510.239,201.67,513.695,201.583,515.973z"/>
<path d="M198.138,483.083c1.566,0.528,7.137-0.654,5.249-2.251S198.983,481.316,198.138,483.083z"/>
<path d="M207.879,486.755c0.751-1.591,0.259-7.734-1.638-5.972C204.346,482.546,206.166,485.567,207.879,486.755z"/>
<path d="M210.641,483.515c0.037-1.653-2.752-6.619-3.714-4.341C205.966,481.451,208.702,483.233,210.641,483.515z"/>
<path d="M203.896,484.351c1.191-1.148,2.707-6.638,0.421-5.697C202.03,479.594,202.719,482.785,203.896,484.351z"/>
<path d="M200.232,475.8c1.38-0.446,5.595,0.848,3.716,2.289C202.069,479.528,200.515,477.489,200.232,475.8z"/>
<path d="M200.73,473.879c0.39,1.572,4.317,5.682,4.646,3.322S202.646,473.734,200.73,473.879z"/>
<path d="M201.315,504.833c1.567,0.527,7.138-0.655,5.25-2.252C204.678,500.985,202.163,503.066,201.315,504.833z"/>
<path d="M211.058,508.504c0.75-1.591,0.259-7.734-1.638-5.972S209.344,507.317,211.058,508.504z"/>
<path d="M213.819,505.264c0.037-1.652-2.752-6.618-3.714-4.341C209.145,503.201,211.881,504.982,213.819,505.264z"/>
<path d="M207.076,506.1c1.189-1.147,2.706-6.638,0.42-5.697C205.209,501.344,205.897,504.534,207.076,506.1z"/>
<path d="M203.411,497.549c1.38-0.445,5.595,0.849,3.717,2.289C205.249,501.277,203.693,499.238,203.411,497.549z"/>
<path d="M203.908,495.628c0.391,1.572,4.318,5.682,4.646,3.322S205.824,495.483,203.908,495.628z"/>
<path d="M199.405,528.721c1.819,0.354,7.832-1.782,5.499-3.277C202.572,523.949,200.085,526.633,199.405,528.721z"/>
<path d="M210.77,531.359c0.599-1.879-0.856-8.63-2.702-6.392C206.223,527.206,208.69,530.293,210.77,531.359z"/>
<path d="M213.358,527.352c-0.203-1.842-4.035-6.945-4.767-4.272C207.861,525.751,211.164,527.325,213.358,527.352z"/>
<path d="M205.991,529.276c1.152-1.45,2.025-7.772-0.376-6.39C203.214,524.269,204.451,527.712,205.991,529.276z"/>
<path d="M200.656,520.32c1.468-0.698,6.341,0.115,4.467,1.993C203.248,524.19,201.22,522.155,200.656,520.32z"/>
<path d="M200.925,518.112c0.666,1.688,5.637,5.674,5.653,3.004C206.594,518.446,203.031,517.669,200.925,518.112z"/>
<path d="M210.186,538.949c0.545-1.885-1.149-8.423-2.941-6.103C205.451,535.166,208.049,538.038,210.186,538.949z"/>
<path d="M205.456,534.011c-0.944-1.437-0.794-6.664,1.444-4.97S207.298,533.156,205.456,534.011z"/>
<path d="M207.767,545.094c0.93-1.728,0.659-8.475-1.584-6.587S205.871,543.751,207.767,545.094z"/>
<path d="M204.112,540.477c-0.245-1.702,2.108-6.371,3.418-3.888C208.838,539.073,206.144,540.483,204.112,540.477z"/>
<path d="M205.927,552.037c0.93-1.728,0.659-8.476-1.584-6.587C202.1,547.338,204.031,550.694,205.927,552.037z"/>
<path d="M167.319,456.371c1.566,0.527,7.137-0.655,5.25-2.252S168.165,454.604,167.319,456.371z"/>
<path d="M177.061,460.042c0.751-1.591,0.258-7.734-1.638-5.972C173.526,455.834,175.347,458.854,177.061,460.042z"/>
<path d="M179.822,456.803c0.037-1.653-2.752-6.619-3.714-4.342C175.147,454.739,177.884,456.52,179.822,456.803z"/>
<path d="M173.078,457.638c1.19-1.148,2.706-6.638,0.42-5.697S171.9,456.073,173.078,457.638z"/>
<path d="M169.414,449.087c1.38-0.444,5.594,0.849,3.716,2.289C171.251,452.816,169.696,450.776,169.414,449.087z"/>
<path d="M169.911,447.166c0.39,1.572,4.319,5.682,4.647,3.322S171.826,447.021,169.911,447.166z"/>
<path d="M166.755,472.127c1.567,0.527,7.138-0.655,5.25-2.252C170.118,468.279,167.603,470.36,166.755,472.127z"/>
<path d="M176.498,475.798c0.75-1.591,0.258-7.734-1.639-5.972C172.964,471.589,174.784,474.611,176.498,475.798z"/>
<path d="M179.26,472.558c0.036-1.653-2.752-6.618-3.714-4.341C174.585,470.496,177.32,472.276,179.26,472.558z"/>
<path d="M172.516,473.394c1.19-1.147,2.706-6.638,0.419-5.697C170.649,468.638,171.338,471.829,172.516,473.394z"/>
<path d="M168.851,464.843c1.38-0.445,5.595,0.849,3.716,2.289C170.688,468.571,169.133,466.532,168.851,464.843z"/>
<path d="M169.348,462.922c0.39,1.572,4.318,5.682,4.647,3.322C174.323,463.885,171.263,462.777,169.348,462.922z"/>
<path d="M166.672,487.123c1.567,0.527,7.137-0.655,5.25-2.252C170.035,483.275,167.52,485.356,166.672,487.123z"/>
<path d="M176.415,490.794c0.75-1.59,0.257-7.734-1.639-5.972C172.88,486.586,174.701,489.607,176.415,490.794z"/>
<path d="M179.177,487.555c0.036-1.653-2.752-6.618-3.715-4.341C174.502,485.491,177.237,487.272,179.177,487.555z"/>
<path d="M172.433,488.391c1.189-1.148,2.706-6.638,0.419-5.697C170.566,483.634,171.255,486.825,172.433,488.391z"/>
<path d="M168.768,479.84c1.379-0.445,5.595,0.848,3.716,2.288S169.05,481.529,168.768,479.84z"/>
<path d="M169.265,477.918c0.39,1.573,4.319,5.683,4.646,3.323C174.24,478.881,171.18,477.774,169.265,477.918z"/>
<path d="M173.853,470.124c1.763-0.861,5.477-6.502,2.553-6.275C173.482,464.075,173.095,467.929,173.853,470.124z"/>
<path d="M185.132,465.103c-0.692-1.969-6.228-6.741-6.359-3.674C178.643,464.496,182.696,465.528,185.132,465.103z"/>
<path d="M184.762,460.066c-1.348-1.426-7.838-3.29-6.751-0.567C179.099,462.222,182.891,461.444,184.762,460.066z"/>
<path d="M179.768,466.393c0.049-1.961-3.247-7.856-4.394-5.157C174.229,463.935,177.471,466.054,179.768,466.393z"/>
<path d="M169.55,462.232c0.792-1.526,5.427-3.947,5.042-1.166C174.208,463.847,171.196,463.422,169.55,462.232z"/>
<path d="M168.368,460.197c1.64,1.001,8.379,1.194,6.689-1.069C173.368,456.863,169.864,458.479,168.368,460.197z"/>
<path d="M172.606,485.985c1.762-0.86,5.476-6.502,2.553-6.275S171.849,483.789,172.606,485.985z"/>
<path d="M183.886,480.964c-0.693-1.969-6.229-6.741-6.36-3.674C177.396,480.357,181.45,481.391,183.886,480.964z"/>
<path d="M183.516,475.929c-1.348-1.426-7.838-3.291-6.752-0.567C177.852,478.084,181.645,477.306,183.516,475.929z"/>
<path d="M178.522,482.254c0.047-1.961-3.249-7.855-4.395-5.156S176.224,481.915,178.522,482.254z"/>
<path d="M168.304,478.095c0.792-1.526,5.427-3.948,5.043-1.167C172.961,479.709,169.95,479.283,168.304,478.095z"/>
<path d="M167.122,476.058c1.639,1.002,8.379,1.196,6.689-1.069C172.121,472.725,168.618,474.34,167.122,476.058z"/>
<path d="M172.741,500.146c1.318-0.644,4.098-4.865,1.91-4.696S172.174,498.503,172.741,500.146z"/>
<path d="M181.183,496.389c-0.52-1.473-4.661-5.045-4.76-2.749C176.325,495.935,179.359,496.708,181.183,496.389z"/>
<path d="M180.904,492.621c-1.007-1.067-5.865-2.463-5.052-0.425C176.667,494.233,179.505,493.651,180.904,492.621z"/>
<path d="M177.168,497.354c0.036-1.467-2.43-5.878-3.288-3.858C173.023,495.515,175.448,497.101,177.168,497.354z"/>
<path d="M169.521,494.241c0.593-1.142,4.062-2.954,3.773-0.873C173.008,495.449,170.754,495.132,169.521,494.241z"/>
<path d="M168.637,492.718c1.227,0.749,6.27,0.895,5.006-0.801C172.378,490.223,169.756,491.432,168.637,492.718z"/>
<path d="M167.28,506.348c1.819,0.355,7.832-1.782,5.499-3.277C170.446,501.577,167.96,504.261,167.28,506.348z"/>
<path d="M178.645,508.986c0.6-1.878-0.856-8.629-2.702-6.392C174.098,504.834,176.565,507.92,178.645,508.986z"/>
<path d="M181.233,503.945c-0.204-1.842-4.034-6.945-4.767-4.273C175.736,502.345,179.039,503.919,181.233,503.945z"/>
<path d="M173.866,506.903c1.152-1.451,2.025-7.771-0.376-6.39C171.089,501.896,172.326,505.34,173.866,506.903z"/>
<path d="M168.531,497.948c1.467-0.7,6.34,0.114,4.467,1.992C171.124,501.818,169.095,499.781,168.531,497.948z"/>
<path d="M168.8,495.739c0.666,1.689,5.636,5.675,5.653,3.004C174.468,496.074,170.906,495.297,168.8,495.739z"/>
<path d="M178.346,519.525c0.418-1.451-0.885-6.484-2.266-4.697C174.7,516.614,176.7,518.824,178.346,519.525z"/>
<path d="M173.331,513.086c-0.944-1.438-0.794-6.665,1.444-4.971C177.015,509.809,175.173,512.23,173.331,513.086z"/>
<path d="M188.962,388.3c0.91-1.737,0.562-8.482-1.659-6.569C185.081,383.645,187.052,386.979,188.962,388.3z"/>
<path d="M195.076,377.573c-1.724-1.176-9.011-1.743-7.299,0.806C189.489,380.928,193.367,379.359,195.076,377.573z"/>
<path d="M191.796,373.735c-1.93-0.351-8.265,1.99-5.775,3.542C188.509,378.826,191.104,375.953,191.796,373.735z"/>
<path d="M191.519,381.789c-1.123-1.608-7.271-4.405-6.595-1.552C185.6,383.09,189.467,382.877,191.519,381.789z"/>
<path d="M180.822,384.489c-0.266-1.699,2.034-6.395,3.371-3.927C185.53,383.032,182.853,384.473,180.822,384.489z"/>
<path d="M178.663,383.549c1.915-0.164,7.46-4,4.758-4.824C180.718,377.901,178.852,381.279,178.663,383.549z"/>
<path d="M197.781,372.878c-0.587-1.871-5.609-6.386-5.823-3.462C191.745,372.341,195.496,373.3,197.781,372.878z"/>
<path d="M194.502,360.976c-2.05,0.391-7.597,5.151-4.583,5.739S194.56,363.447,194.502,360.976"/>
<path d="M189.467,360.59c-1.611,1.117-4.424,7.258-1.569,6.589C190.753,366.512,190.551,362.645,189.467,360.59z"/>
<path d="M194.976,366.471c-1.932-0.34-8.253,2.038-5.755,3.575C191.718,371.582,194.297,368.693,194.976,366.471z"/>
<path d="M189.337,375.954c-1.391-1.012-3.093-5.956-0.4-5.16C191.629,371.59,190.758,374.503,189.337,375.954z"/>
<path d="M193.568,460.854c2.313,1.203,11.278,0.716,8.726-2.231C199.741,455.678,195.316,458.309,193.568,460.854z"/>
<path d="M207.852,468.941c1.556-2.296,2.281-11.985-1.101-9.7C203.37,461.526,205.47,466.676,207.852,468.941z"/>
<path d="M212.94,464.565c0.46-2.566-2.678-10.979-4.73-7.664C206.16,460.216,209.989,463.655,212.94,464.565z"/>
<path d="M202.233,464.229c2.133-1.499,5.829-9.681,2.038-8.772C200.481,456.364,200.778,461.504,202.233,464.229z"/>
<path d="M198.603,450.019c2.257-0.358,8.509,2.681,5.231,4.469C200.559,456.273,198.633,452.718,198.603,450.019z"/>
<path d="M199.845,447.146c0.225,2.546,5.346,9.901,6.43,6.307C207.359,449.855,202.862,447.388,199.845,447.146z"/>
<path d="M199.054,455.359c2.64-0.747,11.687,1.026,8.402,3.316C204.172,460.967,200.256,457.926,199.054,455.359"/>
<path d="M200.778,437.629c-1.148,1.59-1.765,8.315,0.707,6.737C203.956,442.789,202.482,439.208,200.778,437.629z"/>
<path d="M193.198,447.375c1.538,1.408,8.671,3.009,7.34,0.242C199.207,444.85,195.145,445.851,193.198,447.375z"/>
<path d="M195.898,451.641c1.86,0.623,8.465-0.792,6.222-2.683C199.877,447.07,196.899,449.544,195.898,451.641z"/>
<path d="M197.32,443.709c0.883,1.751,6.568,5.396,6.307,2.476C203.364,443.265,199.507,442.924,197.32,443.709z"/>
<path d="M208.293,442.56c0.02,1.72-2.926,6.041-3.898,3.406C203.424,443.332,206.28,442.287,208.293,442.56z"/>
<path d="M210.294,443.798c-1.917-0.109-7.952,2.896-5.395,4.098C207.457,449.095,209.785,446.019,210.294,443.798z"/>
<path d="M189.853,451.636c0.314,1.936,4.642,7.12,5.27,4.256S192.174,451.545,189.853,451.636z"/>
<path d="M191.402,463.885c2.084-0.095,8.252-4.017,5.353-5.027C193.856,457.846,191.697,461.431,191.402,463.885"/>
<path d="M196.33,464.983c1.754-0.877,5.414-6.554,2.492-6.299C195.901,458.938,195.551,462.796,196.33,464.983z"/>
<path d="M191.717,458.378c1.862,0.61,8.458-0.842,6.205-2.719C195.669,453.783,192.704,456.275,191.717,458.378z"/>
<path d="M198.648,449.796c1.231,1.199,2.213,6.335-0.339,5.164C195.759,453.788,197.035,451.028,198.648,449.796z"/>
<path d="M190.463,402.338c1.514-1.247,3.813-7.597,1.023-6.697C188.696,396.541,189.215,400.378,190.463,402.338z"/>
<path d="M200.266,394.83c-1.131-1.752-7.625-5.107-7.04-2.094C193.813,395.751,197.996,395.812,200.266,394.83z"/>
<path d="M198.734,390.02c-1.643-1.073-8.389-1.378-6.698,1.019C193.727,393.433,197.234,391.794,198.734,390.02z"/>
<path d="M195.349,397.332c-0.409-1.917-4.986-6.884-5.473-3.992S193.035,397.538,195.349,397.332z"/>
<path d="M184.443,395.663c0.417-1.668,4.361-5.101,4.634-2.307C189.349,396.15,186.321,396.438,184.443,395.663z"/>
<path d="M182.82,393.958c1.827,0.593,8.427-0.786,6.258-2.596C186.908,389.554,183.876,391.939,182.82,393.958z"/>
<path d="M204.582,391.557c0.187-1.952-2.687-8.064-4.021-5.453C199.229,388.716,202.313,391.057,204.582,391.557z"/>
<path d="M206.187,379.315c-2.04-0.437-9.001,1.794-6.452,3.507C202.282,384.535,205.279,381.615,206.187,379.315"/>
<path d="M201.697,377.003c-1.919,0.405-6.897,4.968-4.006,5.462C200.58,382.959,201.897,379.317,201.697,377.003z"/>
<path d="M204.487,384.562c-1.647-1.063-8.396-1.33-6.692,1.057C199.499,388.006,202.999,386.346,204.487,384.562z"/>
<path d="M195.605,391.107c-0.888-1.473-0.534-6.689,1.637-4.909C199.414,387.978,197.479,390.324,195.605,391.107z"/>
<path d="M173.426,399.463c1.593,1.144,8.321,1.738,6.735-0.729S175,397.755,173.426,399.463z"/>
<path d="M183.196,407.012c1.404-1.544,2.98-8.681,0.218-7.342C180.651,401.011,181.665,405.069,183.196,407.012z"/>
<path d="M187.453,404.297c0.616-1.861-0.82-8.46-2.703-6.213C182.869,400.334,185.354,403.304,187.453,404.297z"/>
<path d="M179.517,402.901c1.749-0.888,5.375-6.585,2.455-6.314C179.053,396.859,178.725,400.718,179.517,402.901z"/>
<path d="M178.333,391.934c1.719-0.026,6.049,2.905,3.418,3.886C179.12,396.799,178.065,393.946,178.333,391.934z"/>
<path d="M179.564,389.927c-0.104,1.918,2.921,7.943,4.114,5.383C184.87,392.747,181.785,390.429,179.564,389.927z"/>
<path d="M187.468,410.344c1.935-0.321,7.104-4.665,4.239-5.283C188.841,404.441,187.368,408.022,187.468,410.344z"/>
<path d="M199.712,408.755c-0.102-2.084-4.043-8.24-5.045-5.337C193.665,406.319,197.256,408.468,199.712,408.755"/>
<path d="M200.795,403.822c-0.883-1.751-6.571-5.392-6.308-2.472S198.609,404.608,200.795,403.822z"/>
<path d="M194.203,408.458c0.605-1.865-0.869-8.456-2.738-6.197C189.597,404.521,192.098,407.477,194.203,408.458z"/>
<path d="M185.6,401.553c1.194-1.236,6.328-2.233,5.165,0.323C189.602,404.431,186.837,403.163,185.6,401.553z"/>
<path d="M154.476,380.997c1.96,0.037,7.837-3.292,5.132-4.423C156.901,375.443,154.801,378.697,154.476,380.997z"/>
<path d="M166.804,381.666c0.28-2.067-2.472-8.838-3.986-6.167C161.304,378.17,164.442,380.937,166.804,381.666z"/>
<path d="M168.769,377.015c-0.549-1.882-5.478-6.501-5.751-3.581C162.746,376.353,166.476,377.389,168.769,377.015z"/>
<path d="M161.442,380.37c0.936-1.723,0.688-8.472-1.562-6.592C157.63,375.659,159.55,379.022,161.442,380.37z"/>
<path d="M154.241,372.012c1.401-0.997,6.63-1.041,5.021,1.259C157.651,375.571,155.165,373.821,154.241,372.012z"/>
<path d="M154.117,369.661c1.003,1.639,6.915,4.882,6.443,2.096C160.086,368.972,156.231,368.813,154.117,369.661z"/>
<path d="M172.213,381.986c1.41-1.363,3.201-7.875,0.49-6.757C169.992,376.347,170.813,380.13,172.213,381.986z"/>
<path d="M181.391,373.727c-1.267-1.658-8.005-4.489-7.182-1.531C175.031,375.154,179.206,374.884,181.391,373.727"/>
<path d="M179.483,369.052c-1.721-0.94-8.471-0.71-6.596,1.545C174.762,372.852,178.131,370.94,179.483,369.052z"/>
<path d="M176.688,376.61c-0.561-1.879-5.515-6.469-5.771-3.548C170.659,375.983,174.396,376.997,176.688,376.61z"/>
<path d="M165.684,375.808c0.284-1.696,3.944-5.43,4.436-2.666C170.612,375.906,167.618,376.431,165.684,375.808z"/>
<path d="M209.05,465.745c-0.139-1.956-3.978-7.513-4.862-4.717C203.303,463.823,206.73,465.625,209.05,465.745z"/>
<path d="M208.616,453.405c-2.084-0.094-8.582,3.252-5.787,4.521C205.625,459.195,208.101,455.823,208.616,453.405z"/>
<path d="M203.809,451.864c-1.826,0.716-5.986,6.036-3.054,6.048C203.687,457.923,204.386,454.114,203.809,451.864z"/>
<path d="M207.805,458.862c-1.801-0.778-8.501,0.071-6.426,2.144C203.452,463.078,206.63,460.867,207.805,458.862z"/>
<path d="M200.123,466.78c-1.119-1.307-1.63-6.511,0.806-5.113C203.362,463.065,201.842,465.699,200.123,466.78z"/>
<path d="M197.792,467.114c1.542-1.146,4.245-7.322,1.514-6.604C196.572,461.23,196.759,465.083,197.792,467.114z"/>
<path d="M208.451,447.991c-1.483-1.284-8.128-2.487-6.773,0.113C203.033,450.704,206.729,449.549,208.451,447.991z"/>
<path d="M199.406,439.586c-1.538,1.409-3.756,8.375-0.882,7.29C201.396,445.793,200.755,441.658,199.406,439.586"/>
<path d="M194.921,441.903c-0.783,1.797,0.049,8.5,2.127,6.431C199.127,446.267,196.922,443.082,194.921,441.903z"/>
<path d="M202.697,444.013c-1.821,0.727-5.95,6.071-3.018,6.065C202.611,450.073,203.287,446.26,202.697,444.013z"/>
<path d="M202.882,455.043c-1.715-0.13-5.761-3.441-3.052-4.18C202.539,450.127,203.329,453.062,202.882,455.043z"/>
<path d="M140.937,369.531l10.732-5.355l3.304-12.33l6.571-5.618l4.601,7.659l11.928-2.547l5.065-5.112l6.638,3.503l5.045,11.05
	l9.752,9.175l1.577,8.724l3.358,14.003l-7.381,8.645l9.897,11.131l-0.879,10.042l-9.479-2.406l7.841,17.245l-1.087,8.34
	l-5.599-13.69l-9.412-3.264l-8.276,3.728l-5.384-0.464l-0.37,8.225l-2.033,10.568l-0.489-17.99l-5.088-12.619l-3.628-5.938
	c0,0-6.174-7.422-17.026-6.163c-10.851,1.259-2.314,2.971-8.978,6.644c-6.664,3.673-18.665-25.215-13.291-30.226
	c5.375-5.01,7.717-3.035,7.717-3.035L140.937,369.531z M184.474,352.791l-12.577,5.636l-2.126,7.839l8.731-3.729L184.474,352.791z
	 M191.248,366.704l-4.028-4.167l-4.605,7.871l6.994,7.111l7.46-4.222L191.248,366.704z M174.295,373.688l-0.748-4.157h-9.1
	l1.696,5.459l-12.565,2.528l0.943,7.873l7.623-2.965l7.161-4.321l4.648,6.004l1.718-4.122l4.937,4.122l1.197-8.744L174.295,373.688z
	 M201.338,388.173l-7.062,1.646l-5.789-1.285l6.558,9.033l5.766-7.748L201.338,388.173z M178.072,395.185l6.602,5.544l-2.059,7.284
	l16.571-2.064l-9.526-2.319l-7.045-17.581L178.072,395.185z M162.146,400.519h12.608l-4.103-7.835L162.146,400.519z
	 M177.253,406.797l-7.717,0.508l10.214,14.76L177.253,406.797z M196.595,415.485l-11.064-0.779v8.252l10.363-6.62L196.595,415.485z"
	/>
</svg>
