<?xml version="1.0" encoding="utf-8"?>
<!-- Generator: Adobe Illustrator 14.0.0, SVG Export Plug-In  -->
<!DOCTYPE svg PUBLIC "-//W3C//DTD SVG 1.1//EN" "http://www.w3.org/Graphics/SVG/1.1/DTD/svg11.dtd" [
	<!ENTITY ns_flows "http://ns.adobe.com/Flows/1.0/">
]>
<svg version="1.1"
	 xmlns="http://www.w3.org/2000/svg" xmlns:xlink="http://www.w3.org/1999/xlink" xmlns:a="http://ns.adobe.com/AdobeSVGViewerExtensions/3.0/"
	 x="0px" y="0px" width="100px" height="100px" viewBox="-10 0.244 100 100" enable-background="new -10 0.244 100 100"
	 xml:space="preserve">
<defs>
</defs>
<path fill-rule="evenodd" clip-rule="evenodd" fill="#FFFFFF" d="M40.541,3.598c1.721,1.721,1.529,4.589,1.529,4.589v24.668
	c0,0,0.191,2.678,1.53,4.398c1.339,1.722,3.634,1.53,3.634,1.53h26.963c0,0,2.868,0,4.244,1.529c1.375,1.53,1.529,4.59,1.529,4.59
	V94.05c0,0,0.155,1.721-1.529,3.633s-4.053,1.53-4.053,1.53H4.781c0,0-1.912,0-3.251-1.53C0.191,96.153,0,92.52,0,92.52L0.114,9.113
	c0,0,0.27-4.077,1.416-5.515c0.956-1.2,5.354-1.53,5.354-1.53H35.76C35.76,2.068,38.819,1.876,40.541,3.598z M8.988,33.175
	c0,0.489,0,0.979,0,1.469c0.937,3.214,6.542,2.203,11.749,2.203c3.986,0,8.171,0.6,10.097-0.184c2.729-1.11,1.801-5.481-0.551-5.875
	c-6.303,0-12.606,0-18.909,0C10.185,31.189,9.389,31.985,8.988,33.175z M24.776,53.735c8.282,0,17.87,0,26.802,0
	c5.389,0,13.81,1.486,13.953-2.937c0.057-1.75-0.857-2.326-2.02-3.121c-12.209,0-26.183,0-39.103,0c-4.262,0-9.291-0.795-13.034,0
	c-1.252,0.266-1.774,0.991-2.387,2.203c0,0.489,0,0.979,0,1.468C10.382,55.11,18.457,53.735,24.776,53.735z M64.612,61.997
	c-12.528,0-26.766,0-40.02,0c-4.223,0-9.441-0.806-13.218,0c-1.251,0.267-1.735,1.025-2.387,2.202c0,0.552,0,1.103,0,1.652
	c0.715,2.257,2.889,2.192,4.957,2.203c14.672,0.079,29.258,0,43.876,0c4.383,0,8.449,0.728,8.995-2.569c0-0.307,0-0.612,0-0.918
	C66.439,63.352,65.677,62.523,64.612,61.997z M64.43,77.051c-3.694-0.535-8.411,0-13.218,0c-4.167,0-8.681,0-13.219,0
	c-9.982,0-19.594-0.744-26.436,0c-0.979,0.106-2.05,0.695-2.386,2.386c-0.061,0-0.123,0-0.184,0c0,0.49,0,0.979,0,1.469
	c0.498,1.339,1.545,2.128,3.121,2.387c17.195,0,34.391,0,51.585,0c1.656-0.303,2.717-1.199,3.121-2.753c0-0.245,0-0.489,0-0.734
	C66.293,78.539,65.739,77.24,64.43,77.051z M45.867,0v23.33c0,0,0.085,4.016,1.529,5.929c1.445,1.912,6.025,2.467,6.025,2.467
	s25.671,0.588,25.671,0.589L45.867,0z"/>
</svg>
