<?xml version="1.0" encoding="utf-8"?>
<!-- Generator: Adobe Illustrator 14.0.0, SVG Export Plug-In  -->
<!DOCTYPE svg PUBLIC "-//W3C//DTD SVG 1.1//EN" "http://www.w3.org/Graphics/SVG/1.1/DTD/svg11.dtd" [
	<!ENTITY ns_flows "http://ns.adobe.com/Flows/1.0/">
]>
<svg version="1.1"
	 xmlns="http://www.w3.org/2000/svg" xmlns:xlink="http://www.w3.org/1999/xlink" xmlns:a="http://ns.adobe.com/AdobeSVGViewerExtensions/3.0/"
	 x="0px" y="0px" width="100px" height="100px" viewBox="-2.753 -4.648 100 100" enable-background="new -2.753 -4.648 100 100"
	 xml:space="preserve">
<defs>
</defs>
<path fill-rule="evenodd" clip-rule="evenodd" fill="#FFFFFF" d="M5.061,0.08c27.368,0,54.764,0,82.358,0
	c0.888,0,2.195-0.179,2.622,0c0.274,0.114-0.247,0.412-0.437,0.602C76.528,13.758,63.712,26.574,50.639,39.647
	c-0.82,0.82-1.77,2.253-3.006,2.24c-1.2-0.013-2.155-1.503-3.005-2.295c-6.283-5.861-12.441-12.386-18.417-18.363
	C20.914,15.932,15.694,10.768,10.417,5.49C8.629,3.702,6.639,1.837,5.061,0.08z"/>
<path fill-rule="evenodd" clip-rule="evenodd" fill="#FFFFFF" d="M95.454,3.085c0.045-0.01,0.051,0.021,0.054,0.055
	c0,16.886,0,35.065,0,52.409c0,3.522,0.171,6.688-1.748,8.308c-0.415,0.351-1.22,0.855-1.695,0.875
	c-0.47,0.018-1.441-1.17-1.912-1.64c-4.27-4.271-8.519-8.554-12.734-12.789c-4.498-4.52-9.054-9.109-13.661-13.717
	c-0.256-0.254-0.925-0.768-0.929-0.875c-0.007-0.113,0.705-0.706,1.037-1.038C74.306,24.231,85.087,13.372,95.454,3.085z"/>
<path fill-rule="evenodd" clip-rule="evenodd" fill="#FFFFFF" d="M32.168,35.438c-9.181,9.16-18.302,18.248-27.599,27.544
	c-0.508,0.508-1.434,1.706-1.857,1.694c-0.914-0.024-1.906-1.285-2.241-2.131c-0.178-0.448-0.335-1.033-0.383-1.585
	c-0.197-2.318,0-4.802,0-7.214c0-16.467,0-34.081,0-50.333C0.073,3.315,0.139,3.301,0.143,3.359
	C10.832,14.039,21.569,24.667,32.168,35.438z"/>
<path fill-rule="evenodd" clip-rule="evenodd" fill="#FFFFFF" d="M36.267,39.428c2.577,2.44,5.363,5.417,8.088,8.144
	c0.768,0.768,1.87,2.298,2.951,2.458c1.564,0.233,2.67-1.521,3.497-2.35c2.466-2.465,4.732-4.731,7.269-7.268
	c0.197-0.198,0.611-0.654,0.655-0.656c0.241-0.011,1.232,1.232,1.586,1.585c7.422,7.422,14.766,14.766,22.188,22.188
	c0.505,0.505,1.121,0.949,1.476,1.586c-24.41,0-48.821,0-73.231,0c-0.079-0.244,0.352-0.571,0.601-0.82
	C19.556,56.083,28.021,47.654,36.267,39.428z"/>
</svg>
