<?xml version="1.0" encoding="utf-8"?>
<!-- Generator: Adobe Illustrator 14.0.0, SVG Export Plug-In  -->
<!DOCTYPE svg PUBLIC "-//W3C//DTD SVG 1.1//EN" "http://www.w3.org/Graphics/SVG/1.1/DTD/svg11.dtd" [
	<!ENTITY ns_flows "http://ns.adobe.com/Flows/1.0/">
]>
<svg version="1.1"
	 xmlns="http://www.w3.org/2000/svg" xmlns:xlink="http://www.w3.org/1999/xlink" xmlns:a="http://ns.adobe.com/AdobeSVGViewerExtensions/3.0/"
	 x="0px" y="0px" width="100px" height="100px" viewBox="-8.8 -10.025 100 100" enable-background="new -8.8 -10.025 100 100"
	 xml:space="preserve">
<defs>
</defs>
<path fill-rule="evenodd" clip-rule="evenodd" fill="#FFFFFF" d="M40.993,0C18.356,0,0,18.353,0,40.992
	C0,59.104,11.746,74.47,28.033,79.891c2.049,0.379,2.801-0.89,2.801-1.973c0-0.977-0.038-4.206-0.056-7.632
	c-11.404,2.48-13.81-4.837-13.81-4.837c-1.865-4.737-4.552-5.997-4.552-5.997c-3.72-2.545,0.28-2.492,0.28-2.492
	c4.116,0.289,6.284,4.225,6.284,4.225c3.656,6.267,9.59,4.455,11.929,3.407c0.368-2.648,1.43-4.458,2.603-5.481
	c-9.105-1.036-18.677-4.552-18.677-20.259c0-4.476,1.602-8.132,4.224-11.003C18.634,26.815,17.23,22.646,19.457,17
	c0,0,3.442-1.102,11.275,4.203c3.27-0.909,6.776-1.364,10.261-1.381c3.484,0.017,6.993,0.472,10.27,1.381
	C59.086,15.898,62.524,17,62.524,17c2.23,5.646,0.828,9.815,0.402,10.849c2.629,2.871,4.219,6.527,4.219,11.003
	c0,15.745-9.59,19.211-18.719,20.227c1.471,1.271,2.78,3.767,2.78,7.591c0,5.484-0.047,9.899-0.047,11.249
	c0,1.092,0.737,2.369,2.815,1.967c16.279-5.426,28.01-20.786,28.01-38.893C81.985,18.353,63.631,0,40.993,0z"/>
<path fill="#FFFFFF" d="M15.526,58.856c-0.09,0.204-0.411,0.265-0.703,0.125c-0.297-0.134-0.464-0.411-0.368-0.616
	c0.088-0.209,0.409-0.268,0.706-0.128C15.459,58.372,15.629,58.652,15.526,58.856L15.526,58.856z M15.021,58.482"/>
<path fill="#FFFFFF" d="M17.187,60.709c-0.195,0.181-0.578,0.097-0.837-0.19c-0.269-0.285-0.318-0.668-0.12-0.852
	c0.201-0.181,0.572-0.096,0.841,0.189C17.338,60.146,17.391,60.525,17.187,60.709L17.187,60.709z M16.796,60.289"/>
<path fill="#FFFFFF" d="M18.803,63.069c-0.251,0.175-0.662,0.011-0.916-0.354c-0.251-0.365-0.251-0.802,0.006-0.978
	c0.254-0.175,0.659-0.017,0.916,0.344C19.06,62.453,19.06,62.891,18.803,63.069L18.803,63.069z M18.803,63.069"/>
<path fill="#FFFFFF" d="M21.017,65.351c-0.225,0.247-0.704,0.181-1.053-0.157c-0.359-0.33-0.458-0.8-0.233-1.048
	c0.228-0.248,0.709-0.178,1.062,0.157C21.148,64.633,21.256,65.104,21.017,65.351L21.017,65.351z M21.017,65.351"/>
<path fill="#FFFFFF" d="M24.072,66.675c-0.1,0.321-0.56,0.467-1.024,0.33c-0.464-0.141-0.767-0.517-0.673-0.841
	c0.096-0.323,0.56-0.475,1.027-0.329C23.864,65.975,24.168,66.348,24.072,66.675L24.072,66.675z M24.072,66.675"/>
<path fill="#FFFFFF" d="M27.427,66.92c0.011,0.338-0.383,0.619-0.87,0.625c-0.49,0.011-0.887-0.263-0.893-0.596
	c0-0.342,0.385-0.618,0.875-0.627C27.027,66.312,27.427,66.585,27.427,66.92L27.427,66.92z M27.427,66.92"/>
<path fill="#FFFFFF" d="M30.548,66.389c0.059,0.33-0.28,0.669-0.764,0.759c-0.476,0.088-0.917-0.117-0.977-0.443
	c-0.059-0.338,0.286-0.677,0.761-0.765C30.053,65.855,30.487,66.054,30.548,66.389L30.548,66.389z M30.548,66.389"/>
</svg>
