<?xml version="1.0" encoding="utf-8"?>
<!-- Generator: Adobe Illustrator 14.0.0, SVG Export Plug-In  -->
<!DOCTYPE svg PUBLIC "-//W3C//DTD SVG 1.1//EN" "http://www.w3.org/Graphics/SVG/1.1/DTD/svg11.dtd" [
	<!ENTITY ns_flows "http://ns.adobe.com/Flows/1.0/">
]>
<svg version="1.1"
	 xmlns="http://www.w3.org/2000/svg" xmlns:xlink="http://www.w3.org/1999/xlink" xmlns:a="http://ns.adobe.com/AdobeSVGViewerExtensions/3.0/"
	 x="0px" y="0px" width="100px" height="100px" viewBox="-33.914 -33.651 100 100" enable-background="new -33.914 -33.651 100 100"
	 xml:space="preserve">
<defs>
</defs>
<path fill="#FFFFFF" d="M16.289,0C7.294,0,0,7.293,0,16.29c0,7.196,4.667,13.302,11.141,15.456c0.814,0.149,1.111-0.354,1.111-0.785
	c0-0.387-0.014-1.411-0.021-2.771c-4.531,0.984-5.487-2.184-5.487-2.184c-0.741-1.882-1.809-2.383-1.809-2.383
	c-1.479-1.011,0.112-0.99,0.112-0.99c1.635,0.115,2.494,1.679,2.494,1.679c1.453,2.489,3.812,1.771,4.741,1.354
	c0.147-1.053,0.569-1.771,1.034-2.178c-3.617-0.411-7.42-1.809-7.42-8.051c0-1.778,0.635-3.232,1.677-4.371
	c-0.167-0.412-0.727-2.068,0.159-4.311c0,0,1.368-0.438,4.48,1.67c1.299-0.361,2.692-0.543,4.078-0.549
	c1.383,0.006,2.776,0.188,4.078,0.549c3.109-2.108,4.475-1.67,4.475-1.67c0.889,2.242,0.33,3.898,0.162,4.311
	c1.044,1.139,1.674,2.593,1.674,4.371c0,6.258-3.809,7.635-7.438,8.038c0.586,0.503,1.106,1.497,1.106,3.017
	c0,2.178-0.021,3.935-0.021,4.469c0,0.436,0.294,0.942,1.121,0.783c6.467-2.158,11.13-8.26,11.13-15.454
	C32.579,7.293,25.285,0,16.289,0z"/>
</svg>
