<?xml version="1.0" encoding="utf-8"?>
<!-- Generator: Adobe Illustrator 14.0.0, SVG Export Plug-In  -->
<!DOCTYPE svg PUBLIC "-//W3C//DTD SVG 1.1//EN" "http://www.w3.org/Graphics/SVG/1.1/DTD/svg11.dtd" [
	<!ENTITY ns_flows "http://ns.adobe.com/Flows/1.0/">
]>
<svg version="1.1"
	 xmlns="http://www.w3.org/2000/svg" xmlns:xlink="http://www.w3.org/1999/xlink" xmlns:a="http://ns.adobe.com/AdobeSVGViewerExtensions/3.0/"
	 x="0px" y="0px" width="100px" height="100px" viewBox="-1.455 -1 100 100" enable-background="new -1.455 -1 100 100"
	 xml:space="preserve">
<defs>
</defs>
<path fill-rule="evenodd" clip-rule="evenodd" fill="#FFFFFF" d="M97.5,14.49v68.807c0,0,0.278,5.293-3.343,9.75
	s-11.421,4.457-11.421,4.457H15.042c0,0-7.799-0.836-10.585-4.457S0,82.184,0,82.184V17.555c0,0,1.393-9.471,4.458-13.093
	c3.064-3.621,10.028-4.457,10.028-4.457c0,0,67.136,0,67.136,0s10.864-0.278,13.649,3.343C98.057,6.969,97.5,14.49,97.5,14.49z
	 M26.965,29.593c8.412-2.138,6.892-19.587-4.984-16.505C11.257,15.872,16.542,32.242,26.965,29.593z M77.799,37.33
	c-7.182-5.254-20.215-1.945-23.922,4.126c-0.162-1.896,0.426-4.567-0.498-5.674c-4.32,0-8.639,0-12.958,0
	c0,15.817,0,31.635,0,47.452c4.485,0,8.971,0,13.456,0c-0.212-16.928-1.228-28.072,2.374-31.812c1.901-1.974,5.834-5.07,9.47-2.745
	c7.204,4.608,4.437,22.489,4.603,34.557c4.485,0,8.971,0,13.456,0C83.488,67.133,85.799,43.183,77.799,37.33z M16.88,35.783
	c0,14.37,0.118,29.227,0.118,46.936c3.726,0.85,10.727,0.85,14.453,0c-0.329-15.477,0.66-32.316-0.498-46.936
	C26.632,35.783,21.199,35.783,16.88,35.783z"/>
</svg>
