<?xml version="1.0" encoding="utf-8"?>
<!-- Generator: Adobe Illustrator 14.0.0, SVG Export Plug-In . SVG Version: 6.00 Build 43363)  -->
<!DOCTYPE svg PUBLIC "-//W3C//DTD SVG 1.1//EN" "http://www.w3.org/Graphics/SVG/1.1/DTD/svg11.dtd">
<svg version="1.1" id="Layer_1" xmlns="http://www.w3.org/2000/svg" xmlns:xlink="http://www.w3.org/1999/xlink" x="0px" y="0px"
	 width="100px" height="100px" viewBox="0 0 100 100" enable-background="new 0 0 100 100" xml:space="preserve">
<path fill="#FFFFFF" d="M97.545,14.296V81.4c0,0,2.056,15.153-16.993,15.153s-49.787,0-64.507,0C1.326,96.554,1,82.268,1,82.268
	V13.431c0,0,2.056-13.854,15.477-13.421c21.214,0,47.19,0,64.074,0C97.437,0.01,97.545,14.296,97.545,14.296z M9.86,32.913
	l3.68,4.762c0,0,3.246-1.948,6.277-3.68c1.354-0.773,4.063,0.773,7.522,11.698c4.282,13.524,6.981,36.357,18.129,37.874
	c12.879,0,25.258-17.746,34.227-30.303c11.762-16.467,14.986-29.463,6.144-36.586c-2.114-0.865-21.429-11.04-29.872,16.452
	c22.513-7.36,3.845,25.924-2.236,25.683c-9.02-0.357-3.356-44.683-20.06-43.866C24.148,15.411,9.86,32.913,9.86,32.913z"/>
</svg>
