<?xml version="1.0" encoding="utf-8"?>
<!-- Generator: Adobe Illustrator 14.0.0, SVG Export Plug-In . SVG Version: 6.00 Build 43363)  -->
<!DOCTYPE svg PUBLIC "-//W3C//DTD SVG 1.1//EN" "http://www.w3.org/Graphics/SVG/1.1/DTD/svg11.dtd">
<svg version="1.1" id="Layer_1" xmlns="http://www.w3.org/2000/svg" xmlns:xlink="http://www.w3.org/1999/xlink" x="0px" y="0px"
	 width="100px" height="100px" viewBox="0 0 100 100" enable-background="new 0 0 100 100" xml:space="preserve">
<symbol  id="round_element" viewBox="-86 -83 172 166">
	<path fill="none" stroke="#FFFDFD" stroke-width="7" d="M62,2.083c0-34.748-28.169-62.917-62.917-62.917
		S-63.834-32.665-63.834,2.083S-35.665,65-0.917,65S62,36.831,62,2.083z"/>
	<line fill="none" stroke="#FFFDFD" stroke-width="7" x1="-86" y1="2.083" x2="86" y2="2.083"/>
	<line fill="none" stroke="#FFFDFD" stroke-width="7" x1="0" y1="-83" x2="0" y2="83"/>
	<path fill="none" stroke="#FFFDFD" stroke-width="7" d="M-26.417-21.534l-0.802,12.903c0,0-19.525,0.298-22.781,0.298
		C-44-39-10-43.666-10-43.666V51c0,0-39.213-6.312-38.666-38.666c4.36,0,20.437,0,20.437,0l0.001,17.799"/>
	<path fill="none" stroke="#FFFDFD" stroke-width="7" d="M25.99-23.118l0.802,12.903c0,0,19.524,0.298,22.781,0.298
		c-6-30.667-40-35.333-40-35.333v94.666c0,0,39.213-6.312,38.665-38.666c-4.359,0-20.437,0-20.437,0l-0.001,17.799"/>
</symbol>
<use xlink:href="#round_element"  width="172" height="166" id="XMLID_1_" x="-86" y="-83" transform="matrix(0.5814 0 0 -0.5843 50 48.4995)" overflow="visible"/>
</svg>
