<?xml version="1.0" encoding="utf-8"?>
<!-- Generator: Adobe Illustrator 14.0.0, SVG Export Plug-In  -->
<!DOCTYPE svg PUBLIC "-//W3C//DTD SVG 1.1//EN" "http://www.w3.org/Graphics/SVG/1.1/DTD/svg11.dtd" [
	<!ENTITY ns_flows "http://ns.adobe.com/Flows/1.0/">
]>
<svg version="1.1"
	 xmlns="http://www.w3.org/2000/svg" xmlns:xlink="http://www.w3.org/1999/xlink" xmlns:a="http://ns.adobe.com/AdobeSVGViewerExtensions/3.0/"
	 x="0px" y="0px" width="100px" height="100px" viewBox="0.022 -1.28 100 100" enable-background="new 0.022 -1.28 100 100"
	 xml:space="preserve">
<defs>
</defs>
<path fill="none" stroke="#000000" stroke-width="2.5" d="M25.442,38.668c-4.218-4.338-8.924,1.436-7.058,5.843
	c1.67,3.942,8.183,5.811,12.05,4.835C41.261,46.616,42.3,31.12,34.785,24.821C17.253,10.127-8.585,38.137,12.104,50.402
	c12.692,7.524,22.355,2.492,33.402-4.919c4.727-3.171,15.233-6.979,18.162,1.161c2.914,8.094-11.958,9.558-10.392,2.426"/>
<path fill="none" stroke="#000000" stroke-width="2.5" d="M1.022,0.72c4.257,6.041,3.314,21.333,3.267,21.568L4.134,55.491
	c0,0,74.864,0,77.729,0c14.511,0,16.583,2.925,16.583,2.925"/>
<path fill="none" stroke="#000000" stroke-width="2.5" d="M72.75,49.225c-1.12,3.163-5.398,6.266-7.598,4.044
	c-3.239-8.016,3.446-13.094,8.931-7.02c2.364,2.621,2.596,7.927,7.583,7.859c3.844-0.051,6.462-4.027,4.708-7.252"/>
<path fill="none" stroke="#000000" stroke-width="2.5" d="M4.431,23.556C4.376,16.01,8.967,7.473,15.323,9.311
	c8.268,2.391,0.796,17.877-4.091,11.789c-1.576-3,0.187-6.664,3.466-4.652"/>
</svg>
