<?xml version="1.0" encoding="utf-8"?>
<!-- Generator: Adobe Illustrator 14.0.0, SVG Export Plug-In . SVG Version: 6.00 Build 43363)  -->
<!DOCTYPE svg PUBLIC "-//W3C//DTD SVG 1.1//EN" "http://www.w3.org/Graphics/SVG/1.1/DTD/svg11.dtd">
<svg version="1.1" xmlns="http://www.w3.org/2000/svg" xmlns:xlink="http://www.w3.org/1999/xlink" x="0px" y="0px" width="100px"
	 height="100px" viewBox="0 0 100 100" enable-background="new 0 0 100 100" xml:space="preserve">
<g id="Layer_1">
	<polyline fill="none" stroke="#000000" stroke-width="3" points="0.015,86.908 18.021,86.908 18.021,69.277 25.401,69.277 
		25.401,86.908 73.374,86.908 73.374,69.277 80.55,69.277 80.55,86.908 99,86.908 	"/>
	<polyline fill="none" stroke="#000000" stroke-width="3" points="0.015,13.585 18.021,13.585 18.021,31.216 25.401,31.216 
		25.401,13.585 73.374,13.585 73.374,31.216 80.55,31.216 80.55,13.585 99,13.585 	"/>
	<polyline fill="none" stroke="#000000" stroke-width="3" points="86.32,98 86.089,81.057 68.047,81.002 68.066,73.789 
		86.109,73.842 86.254,26.966 68.213,26.915 68.232,19.902 86.273,19.954 86.32,1.298 	"/>
	<polyline fill="none" stroke="#000000" stroke-width="3" points="11.768,97.867 11.768,80.898 29.81,80.898 29.81,73.684 
		11.768,73.684 11.768,26.807 29.81,26.807 29.81,19.798 11.768,19.798 11.768,1.166 	"/>
	<rect x="1.445" y="2.565" fill="none" stroke="#000000" stroke-width="4" width="96.504" height="94.298"/>
	<ellipse fill="none" stroke="#000000" stroke-width="3" cx="47.397" cy="8.135" rx="4.511" ry="4.408"/>
	<polyline fill="none" stroke="#000000" stroke-width="2" points="42.888,8.135 30.849,8.135 30.849,3.17 	"/>
	<polyline fill="none" stroke="#000000" stroke-width="2" points="52.686,8.135 66.771,8.135 66.771,3.17 	"/>
	<ellipse fill="none" stroke="#000000" stroke-width="3" cx="47.677" cy="91.855" rx="4.511" ry="4.406"/>
	<polyline fill="none" stroke="#000000" stroke-width="2" points="43.166,91.855 31.128,91.855 31.128,95.818 	"/>
	<polyline fill="none" stroke="#000000" stroke-width="2" points="52.962,91.855 67.051,91.855 67.051,95.818 	"/>
	<ellipse fill="none" stroke="#000000" stroke-width="3" cx="7.256" cy="51.705" rx="4.511" ry="4.406"/>
	<polyline fill="none" stroke="#000000" stroke-width="2" points="7.256,56.113 7.256,67.877 2.201,67.877 	"/>
	<polyline fill="none" stroke="#000000" stroke-width="2" points="7.256,46.542 7.256,32.774 2.201,32.774 	"/>
	<ellipse fill="none" stroke="#000000" stroke-width="3" cx="91.652" cy="49.122" rx="4.508" ry="4.407"/>
	<polyline fill="none" stroke="#000000" stroke-width="2" points="91.652,44.714 91.652,32.955 96.71,32.955 	"/>
	<polyline fill="none" stroke="#000000" stroke-width="2" points="91.652,54.289 91.652,68.053 96.71,68.053 	"/>
</g>
<g id="Layer_2">
</g>
</svg>
