<?xml version="1.0" encoding="utf-8"?>
<!-- Generator: Adobe Illustrator 14.0.0, SVG Export Plug-In . SVG Version: 6.00 Build 43363)  -->
<!DOCTYPE svg PUBLIC "-//W3C//DTD SVG 1.1//EN" "http://www.w3.org/Graphics/SVG/1.1/DTD/svg11.dtd">
<svg version="1.1" id="Layer_1" xmlns="http://www.w3.org/2000/svg" xmlns:xlink="http://www.w3.org/1999/xlink" x="0px" y="0px"
	 width="962px" height="964px" viewBox="-187.333 -187.748 962 964" enable-background="new -187.333 -187.748 962 964"
	 xml:space="preserve">
<polyline fill="none" stroke="#000000" stroke-width="20" points="1.349,520.385 110.308,520.385 110.308,413.696 154.965,413.696 
	154.965,520.385 445.265,520.385 445.265,413.696 488.688,413.696 488.688,520.385 600.334,520.385 "/>
<polyline fill="none" stroke="#000000" stroke-width="20" points="1.349,76.685 110.308,76.685 110.308,183.375 154.965,183.375 
	154.965,76.685 445.265,76.685 445.265,183.375 488.688,183.375 488.688,76.685 600.334,76.685 "/>
<polyline fill="none" stroke="#000000" stroke-width="20" points="523.604,587.504 522.205,484.975 413.028,484.643 
	413.146,440.997 522.329,441.315 523.203,157.657 414.032,157.349 414.151,114.91 523.323,115.226 523.604,2.333 "/>
<polyline fill="none" stroke="#000000" stroke-width="20" points="72.469,586.7 72.469,484.016 181.647,484.016 181.647,440.36 
	72.469,440.36 72.469,156.697 181.647,156.697 181.647,114.281 72.469,114.281 72.469,1.535 "/>
<rect x="-85.111" y="-86.561" fill="none" stroke="#000000" stroke-width="200" width="761.814" height="761.813"/>
<ellipse fill="none" stroke="#000000" stroke-width="20" cx="288.07" cy="43.706" rx="27.299" ry="26.674"/>
<polyline fill="none" stroke="#000000" stroke-width="20" points="260.787,42.705 187.934,42.705 187.934,12.661 "/>
<polyline fill="none" stroke="#000000" stroke-width="20" points="320.072,42.705 405.31,42.705 405.31,12.661 "/>
<path fill="none" stroke="#000000" stroke-width="20" d="M289.763,523.659c15.075,0,27.294,11.938,27.294,26.664
	c0,14.725-12.221,26.656-27.294,26.656c-15.071,0-27.29-11.934-27.29-26.656C262.473,535.596,274.691,523.659,289.763,523.659z"/>
<polyline fill="none" stroke="#000000" stroke-width="20" points="262.467,551.323 189.622,551.323 189.622,575.303 "/>
<polyline fill="none" stroke="#000000" stroke-width="20" points="321.744,551.323 407.001,551.323 407.001,575.303 "/>
<ellipse fill="none" stroke="#000000" stroke-width="20" cx="45.165" cy="307.36" rx="27.298" ry="26.663"/>
<polyline fill="none" stroke="#000000" stroke-width="20" points="45.165,334.036 45.165,405.221 14.577,405.221 "/>
<polyline fill="none" stroke="#000000" stroke-width="20" points="45.165,276.117 45.165,192.804 14.577,192.804 "/>
<path fill="none" stroke="#000000" stroke-width="20" d="M555.871,265.061c15.062,0,27.278,11.94,27.278,26.668
	c0,14.727-12.218,26.669-27.278,26.669c-15.069,0-27.278-11.942-27.278-26.669C528.593,277.001,540.802,265.061,555.871,265.061z"/>
<polyline fill="none" stroke="#000000" stroke-width="20" points="555.871,265.054 555.871,193.9 586.477,193.9 "/>
<polyline fill="none" stroke="#000000" stroke-width="20" points="555.871,322.997 555.871,406.286 586.477,406.286 "/>
</svg>
